<?xml version="1.0" encoding="utf-8"?>
<!-- Generator: Adobe Illustrator 18.1.1, SVG Export Plug-In . SVG Version: 6.00 Build 0)  -->
<svg version="1.1" id="Layer_1" xmlns="http://www.w3.org/2000/svg" xmlns:xlink="http://www.w3.org/1999/xlink" x="0px" y="0px"
	 width="773.8px" height="459.3px" viewBox="18.2 152.7 773.8 459.3" enable-background="new 18.2 152.7 773.8 459.3"
	 xml:space="preserve">
<polygon fill="#FFAB4C" points="18.3,260.6 47.8,277.4 77.6,277.3 222,242.2 218.5,270 75,310 47.1,307 18.9,287.6 "/>
<polygon fill="#FFAB4C" points="22.5,449.2 54.1,469.6 84.8,470.2 235,412 259.8,423.3 81.9,494.8 51.7,493.9 22.5,470.6 "/>
<path fill="#FFAB4C" d="M19.8,299.9L46.5,318l27.5,2.5l13.1-6l128-38.5c0,0-9.5,10.8-0.5,18.9c0,0-12.7,96.6,18.1,114.3l-148.1,57
	l-30.1-0.8L20,442l0.5-140"/>
<path fill="#FFAB4C" d="M331.2,369c0,0,37.1-87,104.3-74c0,0,39.5,8,42.3,71.5c0,0-0.4,57.3-51.8,100.1c0,0-45.7,37.7-90.3,3.5
	C335.7,470.2,306.2,443.5,331.2,369z"/>
<path fill="#FFAB4C" d="M255.5,253.5l-31.4-12.9l-37.1-35.2l-0.5-11.7l16.4-20.9l2.5-11.3l11-3.3l8,1.3l25.4-3.7l-5.9-2.5
	c0,0,3.1-2.6,10.9,0.7l17.5,6.2l-7,0.9l-1.2,1.8l1.6,1.2l4.7-0.3c0,0,2.5,2.1-4,3.1l-27.2,6l-33.5,2L192,193l31.9,21l24.6,7.5l6-3.5
	l17.5-44.2l48.2-8.2l7.7,0.9l-53.5,9.9l-18.2,44.2c0,0-0.5,3,5.7,1.7l112-24.8l0.4,3.3l41.4-10.4l-1.4,24.8L377,225.2
	c0,0,4.1-27.2-8.7-22.9l-110.6,27.9l-0.2,21C257.5,251.3,258,255.2,255.5,253.5z"/>
<path fill="#FFAB4C" d="M349.4,171.8l-0.1,8.5c0,0,1.1,9.5,33.7,6.5c0,0,16.1-2.6,12.6-13.5V171C395.5,171,370.5,182.3,349.4,171.8z
	"/>
<ellipse fill="#FFAB4C" cx="372.3" cy="166.2" rx="23" ry="6"/>
<path fill="#FFAB4C" d="M44.7,237.9l-0.1,7.7c0,0,1,8.6,30.6,5.9c0,0,14.7-2.3,11.5-12.3v-2C86.6,237.2,63.9,247.4,44.7,237.9z"/>
<ellipse fill="#FFAB4C" cx="65.9" cy="233" rx="20.9" ry="5.5"/>
<path fill="#FFAB4C" d="M414.1,225.4l-73.1,21c0,0,25,3.5,39.5,22.8c0,0-98.8-7.1-118.5,103.9c0,0-13.5,79.2,72.4,97.7
	c0,0-32.1-6.6-36.3-54.1c0,0-9.4-56.4,47.1-108.8c0,0,21.1-23.4,64.6-24.9l4.2,0.4l1.1-56.8L414.1,225.4z"/>
<path fill="#FFAB4C" d="M362,253.8"/>
<path fill="#FFAB4C" d="M237.7,349.2c0.8-10.3,1.6-20.5,2.5-30.8c0.1-1.1,0.3-2.2,0.3-3.3c0.1-2.2,0.4-4.2-1.7-6.2
	c-4.1-4.1-2.4-14.1,2.4-17.3c1.3-0.8,1.6-1.7,1.7-3c0.7-8.5,1.3-17.2,2.1-25.8c0.3-2.2,0.7-4.6,3.3-5.5c1.2,0.7,0.8,1.7,0.8,2.6
	c0.3,2.4-0.4,4.7,0.4,7.1c6.6,1.7,12.9,4.9,19.8,2.2c0.7-0.3,1.6-0.7,2.1-0.4c3.9,2.5,7.4-0.3,11-0.9c1.3-0.3,2.5-0.5,3.7-0.9
	c0.5-0.1,1.3-0.5,1.3,0.5l-1.4,1.6c-26,22.2-41.1,50.5-46.5,84.1c0,0.4-0.3,0.7-0.4,1.1C237.2,353,238.4,350.9,237.7,349.2
	L237.7,349.2z"/>
<linearGradient id="SVGID_1_" gradientUnits="userSpaceOnUse" x1="315.2381" y1="455.4625" x2="797" y2="455.4625">
	<stop  offset="0" style="stop-color:#FFFFFF;stop-opacity:0.4"/>
	<stop  offset="1.468519e-03" style="stop-color:#FFFCF6;stop-opacity:0.3986"/>
	<stop  offset="9.486604e-03" style="stop-color:#FFECC8;stop-opacity:0.3909"/>
	<stop  offset="1.852297e-02" style="stop-color:#FFDD9D;stop-opacity:0.3823"/>
	<stop  offset="2.823497e-02" style="stop-color:#FFD077;stop-opacity:0.373"/>
	<stop  offset="3.880620e-02" style="stop-color:#FFC457;stop-opacity:0.3629"/>
	<stop  offset="5.048892e-02" style="stop-color:#FFBB3B;stop-opacity:0.3518"/>
	<stop  offset="6.367495e-02" style="stop-color:#FFB325;stop-opacity:0.3392"/>
	<stop  offset="7.907894e-02" style="stop-color:#FFAD14;stop-opacity:0.3245"/>
	<stop  offset="9.811787e-02" style="stop-color:#FFA909;stop-opacity:0.3063"/>
	<stop  offset="0.1248" style="stop-color:#FFA702;stop-opacity:0.2808"/>
	<stop  offset="0.199" style="stop-color:#FFA600;stop-opacity:0.21"/>
	<stop  offset="0.2796" style="stop-color:#FEA90A;stop-opacity:0.1832"/>
	<stop  offset="0.4172" style="stop-color:#FAB225;stop-opacity:0.1376"/>
	<stop  offset="0.595" style="stop-color:#F4C051;stop-opacity:7.856524e-02"/>
	<stop  offset="0.8016" style="stop-color:#ECD38D;stop-opacity:1.000000e-02"/>
</linearGradient>
<path fill="url(#SVGID_1_)" d="M433.3,291c-18.6,1.4-34.3,6.4-47.5,13.7c2.5-0.3,5.1-0.5,7.7-0.6c22.7-0.4,39.5,18.8,40.4,40.4
	c0.5,10.1-4.8,21.6-11.8,28.6c-5.7,5.7-13.3,9.5-21.3,11.1c-0.2,0.2-0.5,0.5-0.7,0.7c-0.4,0.7-0.8,1.4-1.2,2c4.4,3.1,8.1,7,11.3,12
	c3.1,4.9,4.7,10.4,5.2,16.1c3.9,4.7,6.8,10.3,8.7,16.1c3.1,9.7,1,22.5-4.1,31.1c-5.5,9.3-14.2,15.1-24.2,18.6
	c-5.8,2-12.6,2.7-18.8,2.5c-5.3-0.2-9.8-1.1-14.1-2.4c-9.1-0.5-17.2-4.1-23.5-9.6c-1.4-1.1-2.7-2.3-3.9-3.6
	c-2.2-2.1-4.2-4.4-6.7-6.6l71,158.9H797V316.5L433.3,291z"/>
<path fill="#FFFFFF" d="M452.5,312.1c-16.2-5.4-31.3-2.1-45.9,5.3c-6.2,3-12,6.7-17.2,11.3c-30.4,26.3-47.3,59.1-47.8,99.6
	c-0.1,11.8,2.2,23.3,7.5,34c2.8,5.7,6.6,10.6,11.2,14.9c0.1,0.5,0,0.8-0.7,0.7c-9.5-4.7-15.5-12.6-19.8-22.1
	c-5.7-12.4-7.5-25.5-6.4-38.9c3.2-39.7,20.8-71.6,52.4-95.8c11.3-8.7,24.1-14.3,38.5-15.8c10.3-1.1,20.1,0.5,28.9,6.4
	C453.1,312.1,453,312.4,452.5,312.1L452.5,312.1z"/>
<path fill="#FFFFFF" d="M391.6,434.2c6.3-0.3,11.8-2.9,17-6.4c13-9.1,21-21.7,25.4-36.8c1.8-6.4,2.6-13.1,1.8-19.8
	c-2-16.4-11.4-24.3-27.6-23c0.5-1.3,1.4-1.7,2.8-2c10.4-2,20,2.6,24.8,12.1c3.8,7.4,4.6,15.2,3.5,23.3
	c-2.2,18.1-10.3,33.3-24.1,45.3c-6.4,5.7-13.8,9.6-22.6,10.5c-8.8,0.9-17.3-3.4-21.6-11.2c-0.3-0.7,0-0.7,0.5-0.7
	c3.9,5,8.8,8.5,15.5,8.8C388.7,433.8,390.1,433.8,391.6,434.2L391.6,434.2z"/>
<path fill="#FFAB4C" d="M74.1,225.9l54.1-7.6l28,6l-62.9,22.4l4.2-12C97.5,234.8,96.6,223.8,74.1,225.9z"/>
</svg>
