<svg xmlns="http://www.w3.org/2000/svg" viewBox="0 0 363.7 262.8" enable-background="new 0 0 363.7 262.8"><path fill="#FFAB4C" d="M44.9 238.5c-5.2-.2-10.4-.4-15.7-.5-1.7 0-1.9-.9-1.9-2.3-.1-22.5-.3-45.1-.5-67.6l-.3-28c0-1 0-1.8-1.3-2.1-1.7-.4-1.9-2-2-3.5-.2-4.8-.3-9.6.3-14.4.2-1.3-.1-1.9-1.4-2.7-4.4-2.6-8.7-5.5-13-8.3-2.4-1.6-5-2.7-7.3-4.4-.9-.6-1.2-1.1-1.2-2.1 0-3.3-.1-6.7-.2-10-.4-3.3-.1-6.6-.1-9.9 0-.4.2-.6.6-.7 2.5 1.8 5.1 3.4 7.8 4.8.8.4 1.8.3 2.2 1.4 3.8 2.5 7.5 5.1 11.7 7 2.5.3 4.9.3 7.4 0 5.1.2 10.2 0 15.3-.1 1.4-.5 2.9.1 4.3-.3l25-6.4c1.4-1.3 3.3-1.1 4.9-1.7.8-.3 1.7-.4 2.6-.7 3.3-.9 6.6-1.9 9.9-2.6 1.1-.1 2.1-.4 3.1-.7 3.1-.9 6.2-1.8 9.3-2.5l1.8-.3c.2 0 .4.1.6.2 1.6-.3 3.2-.5 4.6-1.2 3.5-1.7 7.1-2.7 10.9-2.8.6-.1 1.2.1 1.7-.4 1.9-1.5 4.3-1.6 6.5-2.2.6-.1 1.3-.2 1.9-.4l8.2-2.1c1.2-.1 2.3-.5 3.4-.9 1.2-.4 2.5-.7 3.7-.9.9-.4 1.9 0 2.8-.2 1.5-.3 2.9-.6 4.7-.9-2.6 4.4-1.9 9.1-2.6 13.6-.2 1.7-.5 3.4-.4 5 .2 2.4-1 3-3 3.5-31.9 8.9-63.8 17.8-95.6 26.8-1.6.4-1.9.1-2.3-1.4-1-4.7-2.5-9.3-5.9-13-3.8-4.2-9.1-4.7-13.5-1.5.5.3.9 0 1.3-.1 4.6-1.4 8.4-.1 11.4 3.5 3.6 4.4 5 9.7 6 15.2 1 6.1 1 12.2.8 18.3 1.1-.4 1.4-1.3 1.4-2.4 0-4.2.2-8.4-.3-12.5-.2-1.2.1-1.7 1.3-2.1 31.8-9.1 63.5-18.2 95.3-27.2.2-.1.4 0 .8 0-2.7 2.6-3.6 5.6-3.3 9.1.2 2.2.9 4.1 2.9 5.3.8.5.8 1 .8 1.7l-2.1 37c-.5 8.5.1 16.9 2.1 25.1 2.2 8.9 6.2 16.8 13 23.2-.3.8-1.1.7-1.6 1l-111.1 42.4c-.6.2-1.1.6-1.8.5-1.4-.8-2.7-.9-3.9-.6zM342.6 188.3c-.7 1.4-1.3 2.7-1.6 4.2.1.4-.1.6-.5.8-.8 1.8-1.9 3.5-2.5 5.4-.4.9-.4 2-1.4 2.5l-5.7 9.7c-.3.6-.5 1.2-1.1 1.7l-5.2 7c-.1.7-.7 1-1.2 1.3-3.9 4.5-8.1 8.7-12.6 12.6-.2.4-.5.7-.9.8-4.5 3.3-9.2 6.4-14.2 8.9-.5 1.1-1.7.8-2.5 1.2-3.4 1.2-6.9 2.3-10.5 3-.7.4-1.6 0-2.3.3l-2.3.1c-.7.2-1.4.2-2.1 0-1.4-.2-2.8-.2-4.2 0-.6.2-1.1.2-1.7.1-1.9-.2-3.9-.2-5.8 0-.6.1-1.1.2-1.7-.1-7.9-.9-14.7-4-20.3-9.7l-1.1-1.1c-.2-.2-.4-.4-.5-.6-.5-.5-1.2-.7-1.7-1.3-6.2-8-9.1-17.2-10.1-27.1-1.8-18.5 2.6-35.8 10.4-52.5 6.1-12.9 14.3-24.3 24.8-33.9 11-10.1 23.5-17.4 38.7-19.4.6 0 1.1 0 1.7.2 2 .5 4.1.1 6.2.2.6 0 1.2-.1 1.7.1 1 .5 2.1.5 3.3.5.4.2 1-.1 1.4.3 2.1.8 4.2 1.5 6.3 2.4 4.7 2 8.2 5.4 11.3 9.4 2.7 3.6 4.4 7.9 7.5 11.3.6.2.7.8.9 1.3 2.7 5 4.3 10.4 5.5 15.9l.3 2.2c0 .4.1.8.1 1.1l.3 3.5v7.5l-.3 3.6-.1 1.5c-.4.7 0 1.6-.3 2.3-1 4.4-1.7 8.9-2.9 13.3-.6 2-1.5 3.8-1.7 5.9-.4 1.4-.2 2.7-1.4 3.6zM227.2 230.2c-2.4-.5-4.1-2.1-6.2-3.1-4.7-2.5-9.2-5.2-13.8-7.9-1-.6-1.9-1.3-2.8-2-.5-.2-.9-.4-1.2-.8-1.9-1.5-3.5-3.3-5.1-5-1.2-.7-2-1.8-2.4-3.1l-1.4-1.9c-.8-.5-1.2-1.4-1.7-2.2-4-7.1-6.3-14.8-7.1-22.8-2.3-22.1 3.4-42.3 15.3-60.8 7.6-11.8 16.9-21.8 28.8-29.3 10.3-6.5 21.5-10.4 33.8-10.2 4.4.1 8.7 1 13 2.1 1.2.3 2.4.8 3.5 1.4 1 .8 2.1 1.4 3.4 1.7 1 .4 2 .9 3 1.4 2.3 1.4 4.6 2.6 7.1 3.6.9.4 1.9.6 2.8 1.1.5.6 1.2.9 1.3 1.7-.5.8-1.3.6-2.1.7-18.1-1-33.1 6.2-46.5 17.6-15 12.7-24.8 28.9-31.1 47.4-3.9 11.5-5.6 23.3-4.7 35.4.9 12.2 4.7 23.3 13 32.6.4.7 1.5 1.2 1.1 2.4zM3.4 225.6l19.2 13.8c1.5 1.1 3 1.6 4.8 1.7 6.6.3 13.2.6 19.9 1 1.2.1 2.3-.1 3.5-.5l112.9-44.1c1.2-.5 2.1-.4 3.2.4 4.2 3.4 8.9 5.9 14.1 7.5.9.8 2 .2 2.9.5.1.1.2.2.2.4s-.1.3-.2.4c-3.5 1.5-7.1 2.4-10.5 4.2-.6.4-1.1.7-1.9.8l-24.9 9.8c-3.1 1.2-6.2 2.6-9.3 3.9-.5 1-1.5.6-2.2 1-.7.5-1.7.3-2.3.9-1.4 1.4-3.4 1.7-5.2 2.5-.6.3-1.3.5-2 .8-2.4 1.1-4.9 1.9-7.3 2.9-.7.2-1.3.5-2 .9-8.7 3.6-17.4 7-26.1 10.5l-15 6.1c-1 .4-2 1-3.2.9-.6 0-1.2-.1-1.7.5-2.2 1.8-5 2.3-7.4 3.5-.9.4-1.8.7-2.7 1-.7.2-1.3.5-1.9.8-.7.3-1.4.7-2.2.4-.6.1-1.2.2-1.6.6-1.7 1.4-3.5 2.7-5.9 1.6-1.1-.2-2.2-.2-3.3-.1-.1 0-.2.1-.4.1-3.8-.3-7.6-.4-11.4 0-1.2.1-2.3.5-3.4-.4-.6-.2-1.1-.2-1.7 0-.2.3-.5.3-.8.3-.7-.1-1.4-.2-2.1-.2-3-1.4-5.4-3.5-7.5-5.9-.6-.5-.8-1.5-1.7-1.6-1.3.1-1.8-1.1-2.7-1.7-.4-.6-.9-1.1-1.6-1.3-.6-.3-1-.7-1.4-1.2-.5-.6-1.1-.9-1.7-1.3-1.5-1.2-3.2-2.1-4.2-3.7l-1.2-1.3c-.7-.5-.8-1.2-.7-1.9.7-4.6.1-9.2.4-13.7 0-.4.1-.6.2-.8zM167.9 72.7c0-.6-.5-.7-.9-.9l-10.2-4.9c-1-.5-1.5-1.3-2.3-2-.5-.2-1-.3-1-1l-1.3-1.1c-.4-.2-.7-.4-.8-.8-.6-.6-1.3-1.2-2-1.8-.6.8-.9 1.8-1.8 2.2-.8.2-1.7.2-2.5 0-1.9-.6-2.1-2.5-3-3.8l.9-.9c.2-.5.6-.7 1.2-.8.3-.2 1.5.2.5-.8-.3-.3-.7-.6-1.1-.9l-9.2-8.8c-.3-.6-.8-1-1.4-1.4-1.3-1-2.4-2.2-3.5-3.4-.4-.4-1-.8-.7-1.6v-1.7c-.6-1-1-2-.3-3.2.3-1.2.1-2.4.1-3.6.7-1.5 1.8-2.7 3.2-3.7.3-.2.7-.4.7-.9-.1-.4.2-.6.5-.6.6.1 1 .4.8 1.1l-.4.7c-1.8 3-1.8 3 1.3 5l21.9 13.5c3.1 1.9 6.6 2.5 10.2 3.1.5.3 1.4-.4 1.7.5 1.9.5 3.8 1.1 5.7 1.5 2.4.6 4.9-.6 5.9-2.9 2.7-6.5 5.2-13.1 7.8-19.6 1.2-3.1 2.5-6.1 3.8-9.2 0-.7.3-1.3.7-1.8.1-1.2.9-1.7 1.9-1.9 1.3-.3 2.7-.4 4.1-.6 1 .2 2.2-.2 2.9 1-1.7.3-3.5.6-5.2 1-.8.2-1.3.8-1.6 1.5-2.3 5.7-4.7 11.5-7 17.3v.4c-.1.7-.1 1.4-.8 1.8-1.3 2.7-2.6 5.4-3.4 8.3-.4.5.1 1.4-.7 1.7-.4 1.3-2 2.4-1 3.9 1.1 1.6 2.7.6 4 .3l43.4-9.3c1.1-.5 2.2-.8 3.3-.8 2.7-.3 5.3-1 8-1.8.3-.1.5-.3.9-.2 4.6-1 9.3-2 13.8-3.5.5-.5 1.2 0 1.7-.4l11.2-2.6c1-.2 1.9-.3 2.9-.3.2.1.3.2.2.4-.1.7-.3 1.4.1 2.1.4.3.8.2 1.2.1l11.6-3c1.4-.7 2.8-1 4.3-1.2l14.4-3.8c.7 1.2.4 2.5.2 3.7-.1 3.3-.3 6.6-.1 9.8-.4 1.1-.1 2.3-.2 3.5 0 .7.2 1.4-.7 1.7l-25.9 6.9-1.2.2c-1.2 0-1.5-.6-1.5-1.7 0-3.2.3-6.4-.2-9.6l-.1-.6c-.1-3.9-2.5-5.6-6.4-4.7-27.2 6.8-54.4 13.6-81.6 20.3-2.2.5-3.1 1.3-2.9 3.7.3 4.4.1 8.8.2 13.2 0 2.2-1.3 3-3.3 2.1-3-1.4-6-2.9-9-4.4-.4-.2-.8-.2-1.2-.3-.5.4-.6.4-.8.3zM296.2 92.4c-1.1-.1-2.1-.5-3.1-.9-2.2-1.5-4.8-2.3-7-3.7-1.1-.1-2-.9-3-1.3-1.1-.5-2.3-1-3.3-1.7l-3.1-1.2c-.6-.2-.8-.8-.8-1.3.6-4.8-1.3-9.1-2.7-13.5-.2-.9-.4-1.8-.4-2.7-.3-1.2-.4-2.4-.4-3.2-.1-.7-.3-.5-.3-.4.6 1.1.3 2.5.7 3.7 0 1 .2 2.1.5 3.1 1 3.7 1 7.5 1.4 11.3.1 1-.1 1.9-1.5 1.6-.8-.5-1.2-1.4-2-2-.5-.8-1.2-1.5-1.5-2.5-5.2-6.2-14.1-10.3-24.2-11.3.2-.6.8-.6 1.2-.7 7.9-2.3 16.1-3.8 23.6-6.9 10-4.1 20.6-5.7 30.7-9.1.8-.3 1 .1 1 .8-.1 2.1.2 4.3-.1 6.4-.1 3.8-.3 7.7-.1 11.5-.4 3.6-.1 7.3-.2 11v7.2c-.7 2.3-.4 4.7-.4 7.1 0 1.5-.5 1.7-1.7 1.1-1.1-.7-2.3-1.3-3.3-2.4zM159.6 142.6c.6-7.8 1.2-15.6 1.9-23.4.1-.8.2-1.7.2-2.5.1-1.7.3-3.2-1.3-4.7-3.1-3.1-1.8-10.7 1.8-13.2 1-.6 1.2-1.3 1.3-2.3.5-6.5 1-13.1 1.6-19.6.2-1.7.5-3.5 2.5-4.2.9.5.6 1.3.6 2 .2 1.8-.3 3.6.3 5.4 5 1.3 9.8 3.7 15.1 1.7.5-.2 1.2-.5 1.6-.3 3 1.9 5.6-.2 8.4-.7 1-.2 1.9-.4 2.8-.7.4-.1 1-.4 1 .4l-1.1 1.2c-19.8 16.9-31.3 38.4-35.4 64 0 .3-.2.5-.3.8-1.4-1-.5-2.6-1-3.9zM263.4 76.4c-.2-1-1.1-1-1.7-1.3-10.2-5.1-20.8-5.3-31.5-2.2-15.7 4.5-28.2 13.9-38.7 26.1-14.7 17-22.9 36.8-23.7 59.4-.5 13.3 2 25.9 9 37.4 1 1.6 2 3.2 3.4 4.6.1.5-.1.7-.6.6-6.1-5.9-9.7-13.2-12-21.2-4.5-16-3.1-31.8 2.1-47.4 7.6-22.8 21-41.3 41.6-54 7.6-4.7 15.9-7.8 24.8-9 12.4-1.6 23.7 1.2 33.6 8.9.8.2 1.2.9 1.7 1.5.8.3 1.4.9 1.7 1.7-2.3.3-3.8-1.2-5.6-2.2-1-.6-1.9-1.3-3.2-1.4-.4-.4-.8-.8-.9-1.5zM77.5 53.9c-7 2-13.6 4.8-19 9.9-.5.5-1.2.8-1.2 1.6-.8.6-.9 0-1-.6-.3-1.3-.3-2.8-.3-4.3 0-3.1 0-3.1-3.2-3.1h-3.5c-.4-1.1.5-1 1-1.1 1-.2 2.1 0 3.1-.1.6 0 1.4.2 1.9-.5.5-1.5 1.2-3 1.2-4.6.1-2.2-.9-3-3-2.3-1.2.4-2.3 1-3.4 1.7-2.6 1.9-5.3 3.6-7.3 6.2-1.3.7-2.5 1.2-3.6-.4.1-.8.5-1.2 1.4-1.2.4-.3 1.1-.2 1.3-.8 4.1-3.4 8.5-6.6 13.2-9.1.4-.2.9-.4 1.4-.1.4.1.7 0 .9-.3.4-.7 1.1-1 1.9-1.2 3.2-1 6.4-1.6 9.7-2.1.6-.1 1.2-.2 1.8.2.6 0 1.2.2 1.7-.2.1-.5.6-.6 1-.7.7-.1 1.5 0 2.2-.3l.9-.2c.7 0 1.4 0 2.1-.3l.9-.2c.7 0 1.4 0 2.1-.3l1.2-.2c.4 0 .8 0 1.2.1.8.3 1.5.2 2.3.2.6.2.8.6 1.1 1.1.1 1.2 1 2.2.8 3.5-.4 2.3-.1 4.6-.1 6.9-.1.4-.3.7-.6.8-3 .8-6 1.7-9.2 1.8-.3.2-.6.2-.9.2zM155 17c-2.4-.1-4.9-.3-7.3-.1-1.9-.4-3.8-.2-5.7-.1-1 0-1.6-.2-1.7-1.2-.1-1.3.1-2.5.9-3.6.7-1 .6-2.2 1.1-3.2 1.5.2 2.7 1.1 4.1 1.5l5.3 2c1.1.4 2.3.9 3.4 1.2-1.1-.2-2.1-.8-3.2-1.1-1.8-.6-3.6-1.4-5.4-2.1-1.2-.7-2.9-.4-3.6-2 2.3-2.3 4.9-3.8 8.1-4.1 1.3-.1 2.4.6 3.5.9.9.3 1.7.6 2.6.3 1-.2 1.9-.3 2.9 0 .4.2.8.1 1.3 0l2.2-.3c.4 0 .8-.1 1.1-.1 1.1-.4 1.9.6 2.9.7l3.6 1.1c.7.2 1.4 0 2.2.1l2.4.4c.7.1 1.3.3 2.1.7-.7-.4-1.3-.6-2-.7l-2.4-.4h-1.9c-1.3-.4-2.6-1-4-1.3-.5-.6-2.2.1-1.5-1.6 1.1-.7 2.3.3 3.4-.3.2 0 .5 0 .7-.1.8-.4 1.8.1 2.6-.4 1.1-.3 2.1.5 3.2.5 1.7-.1 3.2.7 4.7 1.3 2.2.9 4.7 1.2 6.6 2.8.4.3.9.6 1.3.8 1.4 0 1.8.7 1.6 2l-12.6 2.7c-2.5.5-5 1.1-7.6 1.6-.5.1-1.1.1-1.5.5-.7.2-1.6.5-1.9-.5-.2-1-.3-2.1 1-2.6l1.2-.4c.2-.2 1.2-.2.3-.8-1.3.3-2.6.4-3.9.2-2.1.1-3.6-1.5-5.4-1.8 1.4.8 3.5.7 4.5 2.5.1.8-.1 1.7.1 2.5.2 1.8-.6 2.6-2.3 2.7-2.4-.1-4.7.2-7-.2zM278.2 17.1l.8-.1c.8-.5 1.8-.5 2.7-.7 1.3-.1 2.4-1 3.6-1.4.4-.4.7-1.1 1.5-.8.6.3.4 1 .4 1.5-.1 1.9.3 3.8-.3 5.7-2.3 3.1-5.8 3.7-9.3 4.6-.9.2-1.9.4-2.8.5-.5.2-.9.2-1.4 0-2.9-.2-5.8 0-8.6.3-1.6.2-3.2.1-4.6-.9-.6 0-1.2 0-1.6-.4-.7-.2-1.6-.2-2.2-.8-1.3-.3-2.3-1.1-3.2-1.9-.7-.6-1.6-1.2-1.2-2.7.4-1.7.1-3.6.1-5.5 3.2 1.7 6.5 2.8 10.1 2.9l2.7.3c2.7.3 5.3.3 8 0 1-.4 2.1.1 3-.3.2 0 .5 0 .7-.1l1.6-.2zM261 14.5c-3.6-.8-7.5-1-10.1-4.2-.1-.2-.1-.4 0-.7.1-1.1.9-1.7 1.9-1.9 8.1-.4 16.2.4 24.4.5 3.3.1 6.6.6 9.9.6.3 0 .5.1.7.3-1 2.2-3.1 3.1-5.2 3.8-2 .6-4 1-6 1.5l-2.2.3-.1-.1-.1.1c-1 .8-2.1.2-3.2.2-2 0-4 .2-6-.1l-1.5-.1c-1-.2-1.8.2-2.5-.2zM77.1 62.2c1 .3 2.1.5 3.1 1 1.9.9 1.9 1.7.3 3.1-.8.6-1.6.8-2.5 1.1-.6.2-1.2.5-1.8.6.3 0 .7-.1 1 .2 2.3.2 2.4.2 6.8-2.7.7 2.3-1 3.2-2.6 4.1.4.4.9.6 1.2 1 .5.6 1.2 1.3.5 2.2-.7.9-1.3.2-1.9-.3-.4-.3-1 0-1.3-.5-2-.3-3.9-.7-5.9-.9-2.1-.4-4.3-.3-6.4 0-2.7.3-5.3.8-7.6 2.4-.4.3-.9.4-1.4.2-1.1-1.7-.3-3.3 1.2-3.6 2.7-.7 2.4-2.3 2.1-4.3.5-.4.6.2.8.3.8 1.4 2.4 1.6 3.7 2.1.7-.4 1.6 0 2.3-.3-.3 0-.7.3-1-.1-.5-.8-1.5-.6-2.2-1.1-.6-.5-1.7-.8-1.6-1.7.1-1 .9-1.5 1.9-1.9 1.5-.7 3.2-.6 4.8-1.2.4 0 .8 0 1.3-.1.7-.3 1.4-.2 2.1 0 1.2.1 2.1.2 3.1.4z"/><path fill="#FEFEFE" d="M118.2 233.2c2.4-1.3 5-2.1 7.5-3 .6-.1 1.4.2 1.7-.7 1.7-.9 3.5-1.7 5.4-2.2-.2 1.4-1.1 2.5-1.4 3.9-.3 1.2-3.3 1.8-4.9 1.3-2.6-.9-3.9-.2-4.5 2.5-.2 1-.9 1.1-1.7 1.1-1 0-2.1 0-3.1.2-1.1.3-1.9.4-2.1 1.7-.3 1.3-1.5 1.6-2.7 1.3-3.6-.9-6.6.4-9.3 2.5-.7.6-1.3.5-2.1.3s-1.5-.4-2 .7c-1.5 3.1-4.1 4.3-7.4 3.5-1.7-.4-2.8-.8-3.4 1.5-.7 2.3-3.1 1.6-4.8 1.6-1.4 0-2 .1-1.7 1.7.4 1.7-1.3 2.4-2.1 2-2-.9-3.8-.1-5.7-.2-.7-.1-1.5.1-1.6-.9 2.7-1.7 5.8-2.6 8.8-3.9 4.1-1.8 8.3-3.3 12.4-5 5.9-2.4 11.8-4.9 17.8-7.2 1.7-.7 3.4-1.7 5.3-1.9.4-.3 1.1-.2 1.6-.8z"/><path fill="#FFAB4C" d="M276 2.7c3 .7 6.1 1.1 8.8 2.8.6.4 1.4.7 1.7 1.5-.4 1-1.3.8-2.1.8-1.6.1-3.3-.3-4.8.4-5.8-.2-11.7.3-17.5-.4-2.8-.3-5.7 0-8.6-.1-.7 0-1.5.2-2.2-.3-.9-1.1.3-1.3.7-1.6 2.6-1.6 5.5-2.2 8.4-2.7.7-.1 1.5-.3 2.2-.5l3.1-.3h7.6c.9.5 1.9 0 2.7.4zM78.4 53.9c2.8-1.3 6-1.5 9-2.2.3-.1.5-.1.6-.4.1-2.4 0-4.7-.1-7.1.1-1.2-.7-2.2-.8-3.3-.1-.8-.3-1.4-1.3-.9h-.9c-.7-.1-1.3-.4-2 0l-1.1.1-2.3.3c-.2 0-.5 0-.7.1l-2.2.3c-.2 0-.5 0-.7.1-.7.4-1.5-.1-2.2.4l-1.2.2-.6-1.3c-.3-.5-.9-1-.5-1.7s1.3-.9 2-.8c2.4.4 4.7-.3 6.9-.3 2.3.1 4.8.3 7.1.8 1.6.3 1.7 1.7.6 3.8 2.6.2 4 1.5 3.5 4.2-.5 2.4.5 4.7-.3 7.1-.4 1.2-.8 1.9-1.8.9-1-.9-.7.5-1.1.4-3-.6-5.9 1.1-8.9.4-.4-.1-1-.4-1-1.1zM159.6 142.6c.6 1.2.7 2.6.9 3.9-.5 6.5-.9 12.9-.1 19.4 1.7 14.7 7 27.6 19.1 36.9l.6.6c0 .4 0 .6-.5.4-2.1-1.1-3.9-2.6-5.6-4.2-7.7-7.2-11.8-16.4-13.9-26.6-2-10.1-1.8-20.2-.5-30.4z"/><path fill="#FEFEFE" d="M134.4 45.9l9.3 8.8c.4.8 1 1.5.4 2.5-.4.1-.8.3-1.3.4-.6-1.6-1.2-3.2-3.5-2.6-.5.2-.9-.3-1.1-.8l-.1-1c-.4-1.8-3-.9-3.2-2.5-.3-1.6-.7-2.2-2.5-2.7-1.5-.4-2.6-2.8-3.6-4.4-.2-.4-.1-1.1-.7-1.6s-.8-1.5.5-1.9l4.6 4.7c0 .8.7.8 1.2 1.1z"/><path fill="#FFAB4C" d="M176.4 2.4c-1.5-.5-3.2-.6-4.5-1.9 2.9-1 5.5-.4 8.3.5 4.1 1.4 8.2 2.9 12.5 3.8.2.4 1.1 0 .8.8-1.8.1-3.5 1.1-5.4.7-.6.2-1.1.1-1.6-.1-2.8-1.1-5.7-2-8.6-3-.6-.1-1.2-.2-1.5-.8zM274.2 27.5c4.7-.2 9.1-1.3 12.8-4.2 1-.4 1.1.1.8.9-1.9 3.1-5.1 3.8-8.3 4.6-.3.1-.7 0-.9.3-.7.7-1.5.9-2.5.5-.3 0-.6.1-.8.1-.6.3-1.2.2-1.7.1-2.9-.2-5.7-.2-8.6 0-.8.1-1.6.5-2.3-.4-.9-.4-1.9-.8-2.5-1.7 1-1 2.3-.6 3.5-.6 3 .2 5.9.7 8.8.7.6-.1 1.2-.1 1.7-.3zM201.1 16.8c-.9-.5-2.1-.3-2.9-1l10.9-2.2c.5-.4 1.2 0 1.8-.3.9.1 1.6-.1 2.4-.4.7-.5 1.5 0 2.2-.4 3.6-.6 7.2-1.2 10.7-1.7 1.3-.1 2.6-.8 3.8.4l-22.6 4.5c-1.2 1.3-2.8.8-4.3.9-.7 0-1.4.1-2 .2z"/><path fill="#FEFEFE" d="M147.9 69.3l-3.8.9c-1.3-.7-2.3.3-3.4.8-2.7 1-5.4 1.6-8.2 2.2-.6.4-1.3-.2-1.8.4-2.2.8-4.4 1.3-6.6 1.8.4-3.4 1.2-4.3 5-3.1.5.1 1 .6 1.4.2 1.8-1.7 4.1-1.2 6.2-1.3.4 0 .7 0 .9-.4.8-2.2 2.7-2.7 4.6-3.3.9-.2 1.6.5 2.4.6.9.7 2.5-.4 3.3 1.2z"/><path fill="#FFAB4C" d="M56.6 45.1c-5 2.2-9.2 5.8-13.7 8.8-.3.2-.6.3-.9.3-.9-1.1-1.6-2.1.4-2.8.9-.3 1.2-1.1 1.3-2 .2-1.8.9-2.6 2.9-2.1 1.8.4 3.9.5 5-1.4 1.3-2.4 3.1-1.5 5-.8z"/><path fill="#FEFEFE" d="M56.1 258.1l2-.7c.6-.2 1.3-.2 1.8-.8 3.4-1.6 6.9-3.1 10.5-4.2.3.4.8.8 1 1.3.4.8.2 1.4-.7 1-.9-.3-1.4-.1-1.9.7-.5.7-1.2.9-2 .6-1.3-.5-1.8.1-1.8 1.3 0 1.6-.9 2.1-2.4 2.2-2.3.1-4.4-.4-6.5-1.4z"/><path fill="#FFAB4C" d="M251.3 7.4l25.2.4c1.1 0 2.2 0 3.3-.1 2.4-.4 4.9.1 7.4-.3.8 1-.2.8-.6.8-2 0-4 0-5.9.4h5.2c.7 0 1.4-.3 1.9.5-11.9-.4-23.7-.9-35.6-1-1.1.1-1 .9-1.2 1.6l-.1.4c-.7-.9-.6-1.9.4-2.7z"/><path fill="#FEFEFE" d="M10.8 247.8c.5.4.9.8 1.4 1.3.6.4 1.1.9 1.6 1.3l2.6 2.1v1.5c-.1.6.4 1.5-.4 1.6-.8.2-1.4-.4-1.7-1.2-.4-1-.6-2-2.1-1.5-.6.2-1.2-.3-1-1.2.5-1.8-.7-2.2-2-2.5-1.2-.2-2.2-.6-2-2.1.1-.9-.7-.9-1.2-1.2-1.2-.6-2-1.3-1.2-2.8 1.7.9 3.1 2.3 4.6 3.5.2.7.8.9 1.4 1.2z"/><path fill="#FFAB4C" d="M70.8 41.7c-2.7.6-5.5 1.3-8.2 1.7-1.8.3-3.3 1.3-5.1 1.4v-.4c-.1-3.6.1-3.7 3.5-3.5 2.6.1 5.1 0 7.7 0 .8 0 1.7-.2 2.1.8z"/><path fill="#FEFEFE" d="M27.9 259.9h.6c.4 1.7-.3 2.7-1.9 2.5-1.3-.2-3.1.5-2.9-2.1 0-.6-1.4-2.1-3-1.6-.2.1-.4.3-.6.2-.5 0-.4-.5-.5-.8-.6-1.3-3.5-1.8-1.6-4.1 2.3 1.3 4 3.2 6.1 4.8.4.3.8.8 1.4.8.9.3 1.7-.1 2.4.3z"/><path fill="#FFAB4C" d="M144.1 68.6c-.9.1-1.5-.5-2.1-.9-1-1-.1-1.7.4-2.4.8-.1 1.4.2 2.1.6.9.5 2.2.6 3.1-.2.8-.6 1.5-.8 2.3.1 1 1.1 0 1.6-.5 2.3-.5.6-1.1.9-1.9.7-.9-.3-1.8-.3-2.6-.1-.2 0-.5 0-.8-.1zM176.4 2.4c4 1.2 7.9 2.5 11.8 4l-.9 1.4c-3.8-1.2-7.6-2.5-11.4-4 .2-.5.3-1 .5-1.4zM40.7 55.1l-1.2 1c-.2.3-.5.5-.6.8.8.7 2-.1 2.7.8-2 1.1-4.2 1.3-6.3.5-1.6-.6-1.5-2.1-1-3.2.5-1.3 1.7-.9 2.6-.3.8.5 1.5.3 2.2-.1.6-.3 1.2-.4 1.6.5zM132.8 26.6c1.1-2 2.4-3.7 3.8-5.5.3-.6.6-1.2 1.2-1.6l1.8-2.5c.7-.2 1.4-.7 1.7.4-.8.9-1.6 1.8-2.1 3-.3.6-.5 1.3-1.2 1.6-1.4 1.8-2.8 3.7-4.3 5.5-.2-.4-.5-.7-.9-.9zM41.5 57.7c-1.2 0-2.3 0-3.5-.1-.8-.1-.7-.5 0-.8 2.9.5 5.8-.3 8.7-.2.8 0 1.7-.1 2.4.6 2 0 4 .1 6 0 1.3-.1 1.7.4 1.7 1.7 0 1.9 0 3.7.1 5.6 0 .4-.3 1.1.6 1l-1.3 1.8c-.9-2.9-1.2-5.8-.8-8.8.4-1.1-.4-.8-.9-.8h-13z"/><path fill="#FDFDFD" d="M274.2 27.5c-3.4.7-6.7.4-10.1.2-1.3-.1-2.6-.4-3.9-.1-1.4-.6.1-1.2 0-1.8l4.6.4c1.6-.2 3.1-.2 4.6.4.2 1.1 1.1.8 1.8.8.9.1 2 .1 3 .1z"/><path fill="#FFAB4C" d="M235 233.1l4.1 2.1c.5.9.5 1.5-.8 1.3l-7.4-4.3c-.5-.3-.3-.7-.3-1.2.6-.6 1.2-.2 1.8-.1 1.2.4 2.1 1.2 2.6 2.2z"/><path fill="#FEFEFE" d="M48.6 260.3c2.1.1 3.9-1.1 5.9-1.6-.1.7-.4 1.5-.4 2.2 0 1.6-.5 2.2-1.9 1-.4-.3-.8-.4-1.4-.2-1.3.6-1.9-.2-2.2-1.4z"/><path fill="#FFAB4C" d="M235 233.1c-1.1-.1-1.4-1.4-2.3-1.6-.6-.3-1.2-.7-1.9-.9l-.4-.3c-.3-.3-.8 0-1-.5-2.6-.8-2.7-.9-2.4-2.9 2.5 1.4 4.9 2.8 7.4 4.1 1.2.6 1.3 1.2.6 2.1zM301.6 97.5c-.8-.3-1.3-.8-1.2-1.7.8-.6 1.2-.1 1.6.5 2.4 1.1 4.9 2.2 7.5 2.9.4.8.6 1.5-.7 1.3-1.8-.9-3.5-1.7-5.5-2.1-.7-.1-1.4-.2-1.7-.9zM165.1 11.2c1.5 0 3-.5 4.4-.8.5.7.4 1.3 0 2l-2.2.5c-1.1.3-.6 1.3-.6 2 .1 1.2 1.1.2 1.6.5-2.1.7-2.6.4-2.3-1.6.2-1.2.5-2.2-1.3-2.2.2-.3.3-.4.4-.4zM301.5 86.9l.2-16.4.2-2.2v18.3c0 .5.1 1.1-.3 1.6-.4-.4-.2-.8-.1-1.3z"/><path fill="#FDFDFD" d="M3.4 225.6c-.2 5.4-.1 10.8.1 16.2l-.2.1c-1.6-1.1-1.1-2.4-.4-3.8v-12.4c0-.1 0-.2.1-.2.2.1.3.1.4.1z"/><path fill="#FEFEFE" d="M3 238.1c.2 1.3-.4 2.6.4 3.8-.5.6-1.2 1.1-2 .6-.9-.6-.3-1.4-.1-2 .4-.9.2-2.3 1.7-2.4zM131.6 27.9c-.9 1.2-1.4 2.7-2.8 3.4-.2.2-.4.2-.6-.1 0-3.1 0-3.1 3.4-3.3z"/><path fill="#FFAB4C" d="M190.2 10.6c-.3-.2-.5-.6-.4-.8.2-.4 0-.5-1.2-.9 0 0-.1-.1-.1-.2l.1-.2 1.7-.4c.7-.1 1.5-.9 1.8.4.2.9.2 1.8-1.2 1.8-.3.1-.5.2-.7.3zM165.1 11.2l-.3.3c-.7 1.8-.1 3.6-.2 5.5-.2.2-.4.2-.6-.1-.2-1.8.2-3.6-.2-5.3l-5.1-2.2c2.4 0 4.2 1.5 6.4 1.8zM272.7 43.4c.9 3 .3 6 .3 9 0 1.1.4 1.8 1.3 2.3-1.2.7-1.8.6-1.8-1 .2-3.5.2-6.9.2-10.3zM286.9 21.2v-6.9c-.7-.3-1 .6-1.6.6-.3-.9-.3-1.7.7-1.9.7-.2 1.2.5 1.2.9.1 2.4.7 4.9-.3 7.3z"/><path fill="#FEFEFE" d="M30.2 259.9h3.4c.2.2.6.1.8.4l-2 .9c-2 1.2-2.1 1.1-2.2-1.3zM45.3 260.3c-.2.8 1.2 2.1-.3 2.4-1.5.4-1.7-1.1-1.9-2.3.8-.5 1.5-.3 2.2-.1z"/><path fill="#FFAB4C" d="M227.1 226.8c-.6 2.1 1.8 1.8 2.4 2.9-.8 0-1.3 1.3-2.3.4.2-1.1-1-1.3-1.3-2.1 1 .2.3-1.2 1.2-1.2z"/><path fill="#FDFDFD" d="M45.3 260.3c-.7 0-1.4.1-2.2.1h-1.6c-.2.1-.3.1-.5 0-2.2 0-4.5 0-6.7-.1-.3 0-.6-.1-.8-.4 4 0 7.9-.1 11.8.4z"/><path fill="#FFAB4C" d="M264.7 14.9c3.1 0 6.1 0 9.2-.1-.4.8-.6 1.4-1.8.7-1.3-.8-3-.1-4.5-.3-.9 0-1.9.5-2.9-.3zM302.9 102.8c2.6-.9 5.3-.1 8-.4.6.1 1.2-.1 1.7.4-.6 0-1.1 0-1.7.1-2.1.3-4.2.3-6.3 0-.6 0-1.2-.1-1.7-.1zM164.2 17h.4c-1.1.9-2.5.4-3.7.4-2 0-4 .4-5.9-.3 2.4 0 4.7 0 7.1-.1.7-.3 1.4-.3 2.1 0zM141.2 17.4c-.4-.8-1.2-.2-1.7-.4l1.2-1.7c-.1.9 0 1.4 1.2 1.4 1.9 0 3.9-.2 5.8.3-2.1.2-4.4-.4-6.5.4zM262.7 247.8c.6 0 1.1 0 1.7-.1 2-.3 3.9-.3 5.9 0 .6 0 1.1 0 1.7.1-3.2.6-6.3.6-9.3 0z"/><path fill="#FEFEFE" d="M41.1 260.4h.5c.4.6 1.5.7 1 1.7-.1.2-.6.5-.9.5-.5 0-1-.3-1-.8s.3-1 .4-1.4z"/><path fill="#FFAB4C" d="M287.2 7.4c-1.3 1.1-2.9.3-4.3.4-1 .1-2.1-.1-3.1-.1 1.1-.8 2.4-.3 3.7-.4 1-.1 2.1.2 3.1-.4.2.2.4.4.6.5zM203 16.5l4.3-.9c-1 2.3-2.7 1.2-4.3.9z"/><path fill="#FDFDFD" d="M302.1 56.8v-5.7c0-.6.3-1.5-.8-1.4.5-.5 1.2-.5 1.2.3-.2 2.2.4 4.5-.4 6.8z"/><path fill="#FEFEFE" d="M128.6 35.4c-.7 1 .5 2 0 2.9-1.6-1.2-1.7-2.2-.4-3.4.2.2.3.3.4.5z"/><path fill="#FFAB4C" d="M229.9 11.1c-1.2-.8-2.5-.1-3.8-.4 1.9-.7 3.9-.3 5.9-.4.1.1.2.2.1.2 0 .1-.1.1-.1.1-.6.4-1.3.6-2.1.5z"/><path fill="#FDFDFD" d="M342.6 188.3c.4-1.1.9-2.2 1.3-3.4.7 1.6.3 2.7-1.3 3.4z"/><path fill="#FFAB4C" d="M81.7 83.6h-.4c-1.1-1.9-.6-3.9-.5-5.9.8-.4.8-.4.8.8.1 1.7.1 3.4.1 5.1zM293.2 244.4l2.5-1.2c.4 3.1-1.6 1-2.5 1.2zM142.8 8.1c1 1.1 2.5 1.3 3.8 1.8.1.4.1.6-.4.4-1.4-.3-2.7-.9-4-1.6-.2-.6.4-.4.6-.6z"/><path fill="#FDFDFD" d="M276.1 29.5c.8-.2 1.6-.3 2.5-.5-1.2 1.7-1.5 1.8-2.5.5z"/><path fill="#FFAB4C" d="M169.4 3.6c-1.1.5-2.2.4-3.4.4-.2.2-.4.1-.5-.1 1.2-1.8 2.6.1 3.9-.3z"/><path fill="#FDFDFD" d="M287.9 32.5c-1.4.6-2.8.9-4.3 1.2 1.2-1.3 2.7-1.3 4.3-1.2zM232.1 43c-1.1.5-2.2.6-3.3.8.8-1.3 1.9-1.7 3.3-.8zM186.5 38.8c.1-.7.3-1.3.8-1.8.2.6 1.2.8.7 1.7-.5.6-1.1 0-1.5.1zM301.5 47.5c1.1-.8.5-2 .7-3 .1-.7.2-1.5.2-2.2v3.7c0 .7.1 1.5-.9 1.5z"/><path fill="#FFAB4C" d="M238.4 236.5c1.1.1.9-.6.8-1.3h.6c.5.3.9.7 1.1 1.3-.9-.3-1.7.8-2.5 0zM165.5 3.9l.5.1c-.3 1.4 1.4.5 1.6 1.3v.2c-1.1.1-1.9-.6-2.9-.8 0-.4.3-.7.8-.8zM192.3 18.3c-.1.7-.3 1.3-.7 1.8-.4-.4-.7-.8-1.1-1.1.4-.8 1.2-.3 1.8-.7zM323.4 221l1.2-1.3c.1.5.7.9.3 1.4-.5.5-1-.3-1.5-.1z"/><path fill="#FDFDFD" d="M336.7 201.2l1.4-2.5c-.1 1.1.1 2.3-1.4 2.5z"/><path fill="#FFAB4C" d="M256.4 24.6c.7.3 1.4.5 2.2.8-1.1.7-1.9.6-2.2-.8z"/><path fill="#FDFDFD" d="M128.6 35.4c-.1-.1-.2-.3-.4-.4v-3.8c.2 0 .4 0 .6.1-.1 1.4-.1 2.8-.2 4.1zM272 36.7c-.3.4-.8.3-1.3.3-.7-.8-.3-1.6-.2-2.5 0-.1 0-.3-.1-.4 1.2.6-.1 2.5 1.6 2.6zM302.5 32.5c-.1-1.2-.2-2.5-.2-3.7 1 1.2.7 2.4.2 3.7zM363.3 223.6c0-1.2-.1-2.4.3-3.6 0 1.2.5 2.4-.3 3.6z"/><path fill="#FFAB4C" d="M232 10.7v-.4c.6-.7 1.2-.6 2 .2-.7.1-1.4.1-2 .2z"/><path fill="#FDFDFD" d="M135.2 226.3c.7-.3 1.5-.6 2.2-1-.2 1.8-1.4.9-2.2 1z"/><path fill="#E6E5E5" d="M271.4 79.8l-1.7-1.5c0-.2.1-.4.1-.7.7.6 1.5 1.1 1.6 2.2z"/><path fill="#FDFDFD" d="M363.7 212.5c-.4-1.2-.4-2.3-.3-3.5.7 1.1.2 2.3.3 3.5z"/><path fill="#FFAB4C" d="M281.7 16.2c-.8.5-1.7.7-2.7.7.6-1.1 1.7-.7 2.7-.7zM160 5.2h-2.9c1-.6 2-.6 2.9 0zM265.8 2.4c-1 .4-2.1.4-3.1.3.9-.7 2-.2 3.1-.3zM275.7 17.5c-1 .4-2 .4-3 .3.9-.7 2-.3 3-.3zM137.9 22l1.2-1.6c0 .8.1 1.7-1.2 1.6zM287.8 24.2c0-.5-.2-.9-.8-.9.1-.5.5-1 .9-.7.5.4.4 1.1-.1 1.6z"/><path fill="#FDFDFD" d="M271.6 26.6l1.9-.4c.4 0 .8.1 1.3.1-1 .7-2.1.2-3.2.3z"/><path fill="#FFAB4C" d="M317.1 103.7c-.5 0-1 0-1.4-.3.4-.3.7-.6 1.2-.9.4.2.1.7.2 1.2z"/><path fill="#FDFDFD" d="M240.9 41c-.2.3-.5.3-.9.2.5-.4-.2-1.3.4-1.4.7 0 .4.8.5 1.2z"/><path fill="#FFAB4C" d="M300.3 95.4l1.2-.1c.8 0 .6.5.4.9l-1.6-.5c.1 0 0-.2 0-.3z"/><path fill="#FDFDFD" d="M182.3 48.8c.1-.6.3-1.2.7-1.7.2 1.8.2 1.8-.7 1.7zM168.4 50.2c-.6-.2-1.2-.1-1.7-.5.6-.2 1.5-1.1 1.7.5z"/><path fill="#FFAB4C" d="M225 230.9c-.2.2-.4.4-.5.4-.2-.1-.4-.3-.5-.5.1-.1.3-.4.4-.4.1.1.3.3.6.5z"/><path fill="#FEFEFE" d="M1.7 236.4c.2.3.4.5.3.5-.1.2-.3.3-.5.5-.1-.1-.4-.3-.4-.4l.6-.6z"/><path fill="#FDFDFD" d="M136.4 27.4c-.2-.3-.4-.4-.5-.7 0-.1.3-.4.3-.3.2.1.4.3.5.5.1 0-.1.2-.3.5zM271.4 32.9c-.2.1-.4.3-.5.3-.3 0-.5-.2-.4-.5 0-.1.3-.2.5-.2 0 .1.2.3.4.4z"/><path fill="#FFAB4C" d="M329.8 212.6c.4-.6.8-1.1 1.1-1.7 0 .8-.1 1.6-1.1 1.7zM308.7 100.4c1.3.2.9-.6.7-1.3h.5c-.1.7.5 2.1-1.2 1.3z"/><path fill="#FDFDFD" d="M171.6 211.7c.5-.4 1.2-.7 1.9-.8-.5.8-1 1.3-1.9.8z"/><path fill="#FFAB4C" d="M276 2.7c-.9 0-1.8.1-2.7-.3.9.1 1.9-.4 2.7.3zM235.8 10.4c-.3.1-.4.3-.6.3-.3 0-.5-.2-.4-.5.1-.1.3-.2.5-.2s.3.2.5.4zM172.7 3.2c-.8.4-1.7.4-2.6.4.8-.7 1.7-.3 2.6-.4zM264.7 17.8c-.9.1-1.8.1-2.7-.3.9 0 1.9-.4 2.7.3z"/><path fill="#FDFDFD" d="M340.5 193.3l.5-.8c.3.1.8.1.6.5-.2.5-.7.3-1.1.3z"/><path fill="#FFAB4C" d="M74.2 61.8h-2.1c.7-.6 1.4-.6 2.1 0zM280.4 247.7c.7-.4 1.5-.4 2.3-.3-.6.6-1.5.3-2.3.3zM303.6 240.9c-.1-.2-.3-.4-.2-.5 0-.1.2-.3.3-.4.1.1.3.3.3.4-.1.1-.2.2-.4.5zM230.4 230.2h.3c.4.2.3.5.1.7l.2 1.2c-1-.3-.5-1.2-.6-1.9zM276.1 247.8h2.1c-.8.6-1.4.6-2.1 0zM193.5 5.7c0-.6-.6-.5-.8-.8.5 0 1.1-.1 1.4.5.1.2-.3.3-.6.3zM309.9 234.3l.9-.8c.1.3.4.6 0 .9-.3.3-.6 0-.9-.1zM163.5 4.9c-.7.4-1.5.4-2.2.3.7-.6 1.5-.3 2.2-.3zM241.3 237c.5.2.9.6 1.1 1.1-.7 0-1-.4-1.1-1.1z"/><path fill="#FDFDFD" d="M256.4 37.1c-.5.4-1.1.5-1.7.4.4-1 1.1-.4 1.7-.4zM343.1 128c-.3-.4-.6-.8-.9-1.3.8.1 1.3.4.9 1.3z"/><path fill="#FFAB4C" d="M278.2 17.1c-.5.4-1.1.4-1.7.3.5-.4 1-.8 1.7-.3z"/><path fill="#FDFDFD" d="M348.9 146.1c-.4-.7-.4-1.4-.3-2.2.6.7.2 1.5.3 2.2z"/><path fill="#FFAB4C" d="M274.2 14.9c.7-.4 1.5-.4 2.2-.3-.6.6-1.4.2-2.2.3zM261 14.5c.8 0 1.5 0 2.3.3-.8 0-1.6.4-2.3-.3z"/><path fill="#FDFDFD" d="M348.5 165.7c0-.8-.1-1.6.3-2.3 0 .7.4 1.6-.3 2.3z"/><path fill="#FFAB4C" d="M210.8 13.3c-.5.4-1.1.4-1.8.3.5-1 1.2-.3 1.8-.3zM215.4 12.4c-.7.4-1.4.4-2.2.4.7-.7 1.5-.3 2.2-.4zM10.2 228.1c2.8.2 3.3-.9 3.3-3l-1.8-108v-2.6c2.8 1.8 5.3 3.4 7.8 5.1 1.4.9 1.3 2.5 1.3 4l.6 42.9 1 67.2c0 .8.4 1.9-.4 2.3-.8.5-1.5-.4-2.2-.9-3-2.2-6-4.4-9.6-7zM2.6 206.9l-.1-6.9c-.4-3.5-.1-7-.2-10.5 0-.9.2-1.8-.2-2.7.2-2.2.1-4.3-.1-6.5-.4-3.6-.1-7.3-.2-10.9 0-.9.2-1.8-.2-2.7.2-2.3 0-4.6-.1-6.9-.4-3.5-.1-7-.2-10.5 0-.9.2-1.8-.2-2.7.2-2.4 0-4.9-.1-7.3-.3-3.4-.1-6.9-.2-10.3 0-.8.1-1.7-.2-2.5.2-2.3 0-4.6-.1-6.9-.4-2.3-.1-4.6-.1-7 0-.4.2-.6.6-.6.7.5 1.4 1.2 2.2 1.6 2.8 1.2 3.4 3.3 3.4 6.3.5 33.3 1.2 66.6 1.8 99.9v2.6c-1.2 0-1.8-1.2-2.8-1.4-.5-.2-1-.3-1.3-.8-.5-.6-1.4-.6-1.7-1.3-.3-3.1 0-6.3-.1-9.5.3-.8.4-1.7.1-2.5zM44.9 81.9c.6.2.8-.4 1.2-.5.5-.4 1-.9 1.7-.7 2.1-1.3 4.2-2.6 4.9-5.2.5-.1.6.2.7.6-.1.9.2 1.9-.2 2.8v2.5c.2.7.3 1.4 0 2.1-2.5 4.5-6.9 5.7-11.4 6.7l-2.4.5c-.6.3-1.1.2-1.7.1-2.2-.2-4.4-.2-6.6 0-.6.1-1.2.2-1.7-.1-3.7-.4-7.1-1.2-10.2-3.3-1.7-1.2-2.6-2.7-2.8-4.7-.3-1.7-.1-3.4-.1-5.2 0-.4.1-.7.6-.6 1.2 2.6 3.6 3.8 6.1 4.7 2.7 1 5.5 1.7 8.4 1.6 2.2.3 4.4.3 6.6 0h.7c.8-.7 1.8.1 2.6-.4l.7-.1c.9-.5 1.9-.5 2.9-.8zM80.9 77.7c.9 1.9.1 3.9.5 5.9l-.5 1.1c-1.3 2.6-3.9 2.4-6.2 2.9l-1 .1-1.5.1c-1 .2-1.9.2-2.9 0-1.8-.2-3.5-.3-5.2-.9-2.2-.8-3.4-2.2-3.4-4.7 0-1.4-.1-2.8-.1-4.1.3-.3.5-.3.8.1.2.5.7.4 1.1.4.5.4 1.4-.3 1.8.6.9.4 1.9.3 2.8.3 2.3.3 4.7.3 7 0 2.3 0 4.6-.5 6.8-1.8zM37.9 75.7c3.1 0 6-.7 8.6-2.4 1-.7 1.5-1.4 1.3-2.6.4-.3.8-.4 1.2.1 1.6 1.5 2.4 3.2.8 5.2-.2.9-1 1-1.7 1.3-2.5 1.4-5.2 1.9-7.9 2.6l-2.3.3h-6.8c-.8-.4-1.8.1-2.6-.4-3.1-.4-6.2-.9-8.5-3.4s-2-4 1.2-5.9c.1 2.3 1.6 3.3 3.5 3.9 2.1.7 4.2 1.3 6.5 1.2 2.3.4 4.5.4 6.7.1zM55.3 58.4c.9 2.9.7 5.9.8 8.8-1.8 2-2.3 4.5-2.5 7.1-.2.3-.4.3-.6 0l-.6-2.4c-.1-.6-.5-1-.4-1.7v-.4c-.3-1.4-.3-2.8 0-4.2.2-2.8 1.2-5.3 3.3-7.2zM79.2 73.2c.4.6 2.2.9.4 1.9-.3.6-.9.1-1.3.5-1-.2-1.9.4-2.9.5-.7.4-1.3 0-2-.1-.3-.1-.5-.3-.6-.6-.1-.2-.1-.4 0-.6-.2-.4 1.1.2.3-.6-.1-.2-.1-.4 0-.6.3-.8.8-1.3 1.4-1.9 1.8-.1 3.4.1 4.7 1.5zM65.8 76.4c-1.5-.5-3.1-.4-4.5-1.2-.8-1.1.2-1.7.9-2.1 1.4-.9 2.9-1.5 4.7-1.1.8.5 1.2 1.1 1.3 2 0 .3-.1.5-.3.8-.3.4-.2.8-.3 1.2-.6.5-1.3.1-1.8.4zM67.1 72.3c-1.6-.1-3.1.4-4.6 1.1-.7.3-1.7.6-1.2 1.8-1-.4-2.1-.5-2.6-1.6 2.6-1.8 5.5-2.8 8.7-3 .7-.2 1.4-.2 2.1 0 .2.3.1.6 0 .9-.2.3-.4.5-.6.6-.3.2-.7.4-1.1.5-.3 0-.5-.1-.7-.3zM79.2 73.2c-1.5-.4-3-1.2-4.6-1-.5.5-1 .4-1.5 0s-1.1-.8-1.1-1.6c.7-.5 1.5-.3 2.2-.2 2 .1 3.9.2 5.7 1.3-.8.3-.7.9-.7 1.5z"/><path fill="#FDFDFD" d="M73.6 87.7c2.5-.7 5.2-1 7.2-3 .2.7 1 .9 1.3 1.4-2.5.9-5 1.5-7.6 2-.2-.1-.5-.2-.9-.4zM1.8 166.7c.5 4.5.4 9.1.3 13.6-.8-1.1-.3-2.3-.4-3.4l.1-10.2zM2.2 186.8c.5 4.4.4 8.8.3 13.2-.8-1.2-.3-2.6-.4-3.8 0-3.1.1-6.2.1-9.4zM1.3 146.6c.5 4.4.4 8.8.3 13.2-.8-1.2-.3-2.6-.4-3.8.1-3.2.1-6.3.1-9.4zM.9 126.5c.5 4.3.4 8.5.3 12.8-.8-1.5-.3-3.1-.3-4.7-.1-2.7 0-5.4 0-8.1zM2.6 206.9c.4 4 .4 7.9.3 11.9-.8-2.2-.2-4.5-.3-6.7-.1-1.7 0-3.4 0-5.2zM.9 81.8c-.9.7-.4 1.7-.4 2.5-.1 2.7 0 5.4 0 8.1-.8-3.4-.2-6.9-.3-10.3-.1-.5.3-.5.7-.3z"/><path fill="#FFAB4C" d="M16.8 77c-1 1.9 0 3.9-.4 5.8-.6-.6-.3-1.4-.4-2.2-.1-1.6.3-3.2-1.5-4.6 1.3 0 2.2-.3 2.3 1z"/><path fill="#FDFDFD" d="M1.3 112c-1.1 1-.3 2.2-.4 3.3l-.1 4.3c-.8-2.4-.3-4.9-.3-7.4.1-.5.5-.4.8-.2zM144.1 68.6c.3 0 .6 0 .8-.1.8-.3 1.7-.3 2.5 0 .8.2 1.4-.3 2.1-.5.2.4.6.5 1 .5-.8.5-1.7.6-2.6.7-1.1-.8-2.6.3-3.8-.6zM30 94.9c-2.5.3-4.9.5-7.4 0h7.4z"/><path fill="#FFAB4C" d="M73.9 79.4c-2.3.5-4.7.5-7 0h7zM37.9 75.7c-2.2.5-4.4.5-6.6 0h6.6zM37.9 83.2c-2.2.5-4.4.5-6.6 0h6.6z"/><path fill="#FDFDFD" d="M10.9 87.9c-.8-.4-1.6-.7-2.2-1.4 1.3-.3 2.5-.6 2.2 1.4z"/><path fill="#FFAB4C" d="M70 76c-.3 1.2-.9 1-1.7.5-.3-.3-.7-.5-.4-1 .5-.3 1-.3 1.5-.2.3.2.5.4.6.7zM67.9 67.7c.7 0 1.3-.8 2.4 0-1.4.6-2.6.4-3.8.4.5-.5 1-.3 1.4-.4zM47.9 80.8c-.5.4-1 .8-1.7.7 0-.6.1-1.1.7-1.3.6-.3.8.1 1 .6zM51.9 65.6v4.2c-.5-1.4-.5-2.8 0-4.2z"/><path fill="#FDFDFD" d="M153.4 63.7c.4.2.8.5 1 1-.5.2-.8 1.1-1.3.5-.5-.4.2-1 .3-1.5zM49.6 94.5c-1.4.7-2.8.4-4.3.3 1.4-.7 2.9-.2 4.3-.3z"/><path fill="#FFAB4C" d="M44.9 81.9c-.9.5-1.9.7-2.9.8.7-1 1.8-1 2.9-.8zM70 76l-.5-.3c.1-.3.3-.6.6-.7.7-.2 1.3-.2 1.7.5 0 .2-.1.4-.3.5h-1.5z"/><path fill="#FDFDFD" d="M35.4 91.1c.8-.1 1.6-.3 2.3-.4.6 0 1.1 0 1.7.1-1.3.7-2.6.2-4 .3z"/><path fill="#FFAB4C" d="M49 70.7l-1.2-.1c-.7-.9.1-.8.6-.8.8-.1.9.3.6.9zM41.2 82.8c-.8.5-1.7.4-2.6.4.7-1.5 1.8-.2 2.6-.4zM53 74.3h.6v1.6c0 .2-.1.2-.3.2l-.5-.5c0-.5.1-.9.2-1.3z"/><path fill="#FDFDFD" d="M69.2 87.8h2.9c-1 .6-2 .6-2.9 0z"/><path fill="#FFAB4C" d="M71.6 76c.1-.1.2-.2.3-.4.3-.4.6-.8 1.1-.4l.4.4c.2.3.2.6 0 .9l-1.8-.5zM53.3 76.1c.1 0 .2-.1.3-.2-.1 1 .4 2.1-.3 3v-2.8zM48.2 77.3l1.7-1.3c.2 1.3-.7 1.4-1.7 1.3zM73.4 76.5v-.9l2.1.5c-.7.5-1.4.3-2.1.4zM67.9 75.6l.4.9-2.6-.1c0-.8 1.7.3 1.3-1.1.4 0 .7.1.9.3zM28.5 79.8c.9 0 1.8 0 2.6.4-.8-.1-1.8.4-2.6-.4zM77.1 68.1c-.4 0-.8.1-1.2-.2.6-.5 1.4-.5 2.1-.5-.3.2-.6.4-.9.7z"/><path fill="#FDFDFD" d="M145 62.3h2.5c-.9.6-1.7.5-2.5 0z"/><path fill="#FFAB4C" d="M52 70.2c.1.6.2 1.1.4 1.7-.4-.6-1.1-1-.4-1.7z"/><path fill="#FDFDFD" d="M151.2 61.9c.5 0 .8.3.8.8-.3.1-.6.4-.9.1-.2-.4 0-.7.1-.9z"/><path fill="#FFAB4C" d="M62.9 66l-.8-.3-.1-.7c.8-.1.8.5.9 1zM78.3 75.6l1.3-.5c.2 1.9-.9.2-1.3.5z"/><path fill="#FDFDFD" d="M4.7 220.2c.6 0 .9.4 1.3.8-.9.4-1.3 0-1.3-.8z"/><path fill="#FFAB4C" d="M61.2 78.2c-.3 0-.5 0-.8-.1-.2-.2-.5-.4-.2-.6.6-.3.8.3 1 .7zM64.1 79.2c-.6-.2-1.3-.1-1.8-.6.5.4 1.6-1 1.8.6zM37.9 80.2c.7-.4 1.5-.4 2.3-.3-.6.6-1.5.2-2.3.3zM53.3 83.6v-2.1c.5.7.6 1.4 0 2.1z"/><path fill="#FCFCFC" d="M39 112.1c-.2 1 .3 1.9.5 2.8-6.1.2-5.8.5-5.9-3.4-.1-5.6 0-4.4 5.6-4.4l-.2 1.6c.3 1.1.3 2.3 0 3.4z"/><path fill="#FDFDFD" d="M140.8 71c.9-1.1 1.7-2.7 3.4-.8-1.1.5-2.2.8-3.4.8zM130.7 73.6c.4-1.1 1.2-.4 1.8-.4-.5.4-1.1.5-1.8.4zM104.8 80.3c.4-1.1 1.2-.4 1.8-.4-.6.4-1.2.5-1.8.4z"/><path fill="#FEFEFE" d="M328.6 114.4c-12.3-4.1-23.8-1.6-34.9 4-4.7 2.3-9.1 5.1-13.1 8.6-23.1 20-36 45-36.4 75.8-.1 9 1.7 17.7 5.7 25.9 2.1 4.3 5 8.1 8.5 11.3.1.4 0 .6-.5.5-7.2-3.6-11.8-9.6-15.1-16.8-4.3-9.4-5.7-19.4-4.9-29.6 2.4-30.2 15.8-54.5 39.9-72.9 8.6-6.6 18.3-10.9 29.3-12 7.8-.8 15.3.4 22 4.9 0 .3-.1.5-.5.3z"/><path fill="#FDFDFD" d="M278.7 207.3c4.8-.2 9-2.2 12.9-4.9 9.9-6.9 16-16.5 19.3-28 1.4-4.9 2-10 1.4-15.1-1.5-12.5-8.7-18.5-21-17.5.4-1 1.1-1.3 2.1-1.5 7.9-1.5 15.2 2 18.9 9.2 2.9 5.6 3.5 11.6 2.7 17.7-1.7 13.8-7.8 25.3-18.3 34.5-4.9 4.3-10.5 7.3-17.2 8-6.7.7-13.2-2.6-16.4-8.5-.2-.5 0-.5.4-.5 3 3.8 6.7 6.5 11.8 6.7 1.2-.4 2.3-.4 3.4-.1z"/><path fill="#FFAB4C" d="M249.6 190l-.4.5c-.6-.6-.9-1.4-1.2-2.2.2-.2.3-.2.5 0 .4.5.8 1.1 1.1 1.7zM327.9 115.1l.5-.4c.5.2.9.3 1.1.9-.7.2-1.2-.1-1.6-.5zM257.2 241.1l.5-.5c.5.2.8.4 1.1 1-.8.3-1.2-.1-1.6-.5zM247.5 187.1c-.5-.4-.5-1-.7-1.7 1 .1.7.9 1 1.3 0 .2-.1.3-.3.4zM247.5 187.1c.1-.1.2-.3.4-.4l.7 1.6h-.5l-.6-1.2z"/><path fill="#FDFDFD" d="M127.4 229.4c.2 2-.7 1.4-1.7.7.5-.4 1.1-.5 1.7-.7zM118.2 233.2c.1 1.8-1.1.7-1.8.7.5-.4 1.1-.7 1.8-.7zM10.8 247.8c-.8 0-1.7 0-1.5-1.2.7.1 1.1.6 1.5 1.2zM59.9 256.6c-.2 1.2-1.1.7-1.8.8.6-.5 1.2-.7 1.8-.8zM13.8 250.3c-.8-.1-1.3-.6-1.6-1.3.8.1 1.3.6 1.6 1.3zM27.9 259.9c-.8-.1-1.6.3-2.3-.3.8-.1 1.6 0 2.3.3z"/><path fill="#FFAB4C" d="M259 110.3c2.6 1.3 5 2.5 7.5 3.7l1.5.6c.4.1.8-.8 1.2 0 .2.3.1.7-.2.9-.5.3-.9.6-1.5.4l-2.2-1.1c-1.7-.8-3.4-1.7-5.1-2.4-.8-.5-1.5-.9-1.2-2.1zM245.3 122.3l7.1 3.9c.7.4 1.4 1.2 2.4.4.6-.4.7.3.5.6-.5.8-1 1.5-2.1.8-2.4-1.3-4.7-2.6-7.1-3.8-.7-.4-1.2-.9-.8-1.9zM241.9 127l7.1 3.9c.7.4 1.4 1.2 2.4.4.6-.5.7.4.5.6-.4.7-.9 1.5-1.9.9l-7.7-4.1c-.6-.4-.8-.9-.4-1.7zM276.1 99.3c2.7 1.2 5.2 2.3 7.7 3.3.6.2 1.1.7 1.8.5.4-.1.8-.3.9.4.1.7-.4.8-.8 1-.5.2-.9-.1-1.4-.3l-6.9-3c-.7-.3-1.5-.5-1.3-1.9zM224.2 156.3l7.1 3.9c.5.3 1.1.6 1.7.7.5.1 1.2-.6 1.1.5-.1.7-.8 1-1.4.9-.5-.1-1-.5-1.5-.7l-6-3.3c-.8-.4-1.4-.8-1-2zM249.4 118.8l7.4 3.9c.5.3.9.7 1.5.6.4-.1.8-.9 1.2-.1.1.2 0 .6-.2.8-.4.4-.8.9-1.4.6-2.8-1.4-5.5-2.9-8.3-4.4-.5-.3-.5-.9-.2-1.4zM221.7 161.2c2.6 1.4 4.9 2.7 7.2 4 .5.3 1.1.6 1.7.8.4.1 1.1-.6 1.1.5 0 .7-.8 1-1.2.9-3-1.5-6.2-2.8-8.8-5-.1-.3 0-.6 0-1.2zM226.3 150.6l7.2 3.9c.5.3 1 .5 1.5.7.4.2.9-.7 1.2.1.1.3.1.7-.3.9-.5.3-1 .5-1.5.2-.2-.1-.4-.2-.5-.3l-6.6-3.6c-.7-.3-1.4-.7-1-1.9zM229 145.2c2.7 1.5 5.1 2.8 7.5 4.1.5.3 1 .5 1.5.6.4.1 1.2-.7 1.2.4 0 .7-.9 1.2-1.3 1-2.9-1.5-6-2.8-8.6-4.9-.3-.1-.3-.5-.3-1.2zM219.9 166.7c2.3 1.3 4.6 2.6 6.9 3.8.6.3 1.2.7 1.9.9.5.1 1.2-.3 1 .6-.1.7-.7.8-1.3.7l-.9-.4-6.5-3.6c-.8-.4-1.5-.7-1.1-2zM271.9 101.7c2.6 1.2 5.1 2.3 7.6 3.4.6.2 1.1.7 1.7.5.5-.1 1-.4 1 .4.1.7-.5.8-.9.9-.7.2-9.1-3.6-9.4-4.3-.1-.2 0-.5 0-.9zM216 188.5l6.7 3.7 1.8 1c.5.2 1.5-.1 1.1.9-.3.7-1 .5-1.6.2l-7.5-4.1c-.7-.3-.9-.8-.5-1.7zM218.2 172.2c2.6 1.4 4.9 2.7 7.3 4 .5.3 1 .6 1.5.7.5.1 1.3-.3 1 .7-.2.8-.9.8-1.5.5l-3.5-1.9-4.2-2.3c-.6-.3-.7-.8-.6-1.7zM253.8 114.4c2.7 1.4 5.1 2.6 7.5 3.8.5.3 1 .7 1.7.6.3-.1.9-.9 1 .1.1.9-.8 1.5-1.3 1.3-3-1.4-6.2-2.6-8.9-4.7-.1-.1 0-.5 0-1.1zM216.4 183.1c2.4 1.4 4.7 2.6 7 3.9.6.3 1.2.7 1.9.8.4.1 1.1-.1.9.7-.1.8-.8.8-1.3.6-.7-.2-1.4-.7-2-1-1.8-1-3.5-2-5.3-2.9-.7-.4-1.4-.7-1.2-2.1zM296.1 100.4c-.1 1.2-1 1.1-1.7.8-2.8-1.1-5.6-2.2-8.3-3.3-.6-.2-.6-.7-.6-1.4 1.7.6 3.4 1.2 5.1 1.9 1 .1 2 .3 2.9.7.9.5 2.2.1 2.6 1.3zM280.9 97.7c2.6 1.1 5.1 2.2 7.6 3.2.5.2 1 .5 1.6.6.5.1 1.2-.4 1.2.6-.1.9-.9.9-1.4.7-2.8-1.1-5.6-2.4-8.4-3.6-.6-.2-.8-.7-.6-1.5zM217.4 177.7c2.3 1.3 4.6 2.6 6.9 3.8.6.3 1.2.7 1.9.8.4.1 1-.1.9.7-.1.8-.8.8-1.3.6-.5-.1-1-.5-1.5-.7l-5.8-3.2c-.7-.4-1.5-.7-1.1-2zM215.8 194c3.3 1.3 5.9 3.7 9.3 4.7.4.1.5.5.3.8-.4.8-1 .5-1.6.2l-7.1-3.9c-.2-.1-.5-.2-.7-.4-.4-.5-.3-.9-.2-1.4zM262.9 107c2.7 1.3 5 2.4 7.4 3.5.6.3 1.2.7 1.9.7.4 0 1-.1.9.5-.1.5-.6 1.1-1.2.9-2.9-1.4-6-2.5-8.7-4.3-.1-.2-.1-.6-.3-1.3zM291.1 97.9c-.6-.3-1-.7-.8-1.6l7.5 2.9 1.5.6c.5.2 1.7-.3 1.3.9-.3.8-1.1.4-1.8.2-.9-.3-1.7-1-2.7-.8-.7-.4-1.5-.4-2.2-.7-.9-.6-2-.7-2.8-1.5zM230.4 224c-4.2-1.3-8.2-4-8.6-5.8 3 2.1 6.4 3 8.6 5.8zM219.7 213.8c2.6 1.5 5.3 3 7.9 4.4.5.3.8.7.5 1.2-.4.7-.9 0-1.2-.2-2.1-1.2-4.2-2.4-6.3-3.5-.7-.4-1.3-.7-.9-1.9zM218.1 209.1c2.6 1.5 5.2 2.9 7.8 4.3.5.3 1 .7.6 1.3-.4.7-.9 0-1.2-.2-2.1-1.2-4.2-2.4-6.3-3.5-.8-.4-1.4-.8-.9-1.9zM216.7 204.5c6 2.4 8.3 4 8.6 5.7-3.1-1.9-6.4-2.9-8.6-5.7zM247.2 136.7l-7.9-4.2c-.4-.2-1.1-.4-.8-1 .3-.6 1-.4 1.4-.1 2.6 1.3 5.1 2.7 7.7 4.1.2.6-.1.9-.4 1.2zM277.9 109.2c-.2.1-.4.3-.5.3-3.1-1-6-2.6-8.9-4-.5-.2-.4-.8-.3-1.4 3.1 1.4 6.1 2.8 9.1 4.1-.1.6.1.9.6 1zM240.5 146c-2.9-1.7-6.3-2.5-8.4-5.4l9.2 4.3c.1.6-.4.8-.8 1.1zM303.3 98.6c.4.4 1.3.7.9 1.4s-1 0-1.4-.2c-2.2-.8-4.3-1.6-6.4-2.4-.7-.3-1.5-.4-1.4-1.7l6.2 2.1c.7.2 1.5.2 2.1.8zM243.8 141c-2.9-1.6-6.3-2.5-8.4-5.4 3.3.9 5.9 3.4 9.2 4.2 0 .6-.3.9-.8 1.2zM224.3 222.8c2.6 1.4 5.1 2.8 7.5 4.2.5.3 1.1.7.7 1.3-.5.8-1 0-1.4-.2-2-1.1-4-2.2-6-3.4-.6-.4-1.3-.7-.8-1.9zM224.5 204.7c-5.8-2.3-8.2-4-8.5-5.8 2.9 2.2 6.5 2.9 8.5 5.8zM291.1 97.9c1.1.2 2.1.6 3 1.2-.2.4-.6.2-.9.4-.9-.3-1.9-.5-2.6-1.1.2-.2.3-.4.5-.5zM243.8 141c-.1-.6.6-.7.8-1.1.4-.3 1-.7.9.2-.1.8-.6 1.5-1.7.9zM240.5 146c-.1-.6.6-.7.8-1.1.6-.5 1.1-.3.8.4-.2.7-.8 1.2-1.6.7zM293.2 99.5c.2-.4.6-.3.9-.4.7.2 1.5.3 2 1 .1.1 0 .2 0 .4-.8-.9-2.1-.2-2.9-1zM247.2 136.7l.4-1.2c.4-.1.9-.9 1.1-.2.2 1.1-.6 1.5-1.5 1.4zM277.9 109.2c-.6-.1-.9-.3-.6-.9.3-.2.7-.6 1-.1.3.4.2.9-.4 1zM303.3 98.6c-.8.1-1.5-.2-2.2-.7l.5-.4c.6.2 1.3.2 1.7.8v.3z"/><path fill="#FDFDFD" d="M144.1 57.2c-.1-.8-.6-1.6-.4-2.5 1 .4 1.6 1.3 2.7 2.3-1 .1-1.6.1-2.3.2zM134.4 45.9c-.5.2-1 .4-1.4.5-.4-.7 0-1.2.2-1.7.6.2 1.1.6 1.2 1.2z"/><path fill="#FFAB4C" d="M270.5 34.6c.5.8.1 1.6.2 2.5-.9-.8-.6-1.6-.2-2.5z"/><path fill="#F2F2F2" d="M166.6 105.7c-.2 1-.5 2-1.7 2-1 0-1.4-.9-1.3-1.8.1-.9.5-1.8 1.6-1.9 1 .1 1.3.9 1.4 1.7z"/><path fill="#FFAB4C" d="M261.7 76.9c-3.2-.4-6.3-1.2-9.5-1.3-11.2-.4-21.7 2.5-31.5 7.8-19.3 10.6-32.3 26.8-40.6 47-5.1 12.4-7.7 25.3-7.1 38.8.2 5.3 1.3 10.5 2.5 15.7-.2.5-.3 1.1-.9 1.4-2.5-6.5-3.6-13.3-3.7-20.2.3-2.1.3-4.2 0-6.3.1-10.2 2.2-20.1 5.9-29.6 9.2-23.8 24.8-41.8 48.4-52.2 9.9-4.4 20.2-6.2 31-3.7 2.2.5 4.3 1.4 6.4 2.2 0 .8-.4.6-.9.4zM174.6 186.3c.1-.6.3-1.1.9-1.4 1.8 5.3 4.1 10.4 7.2 15 .2.5-.1.6-.5.5-3.4-4.2-6-8.9-7.6-14.1zM182.2 200.4l.5-.5c.6.6 1.2 1.1 1.2 2-1 0-1.3-.8-1.7-1.5zM42.9 56.3c.3-2 2.2-2.5 3.4-3.6 2.1-1.8 4.4-3.6 7.1-4.4 2.8-.9 4 .1 3.6 3-.2 1.6-.8 3.1-1.2 4.6-.1.1-.2.2-.3.2-3.1.4-6.2-.1-9.3.5-1.1.1-2.3.6-3.3-.3zM42.9 56.3c1-.1 2-.3 3 0 2.5-.4 5.1-.1 7.6-.2.7 0 1.5.2 2.2-.2.5 1.4-.7.8-1.1.8-1.9.3-3.8-.4-5.6.4l-10.1.1c-.4 0-.8 0-1-.5l1.4-.7c1.2 1.3 2.4.8 3.6.3z"/><path fill="#FDFDFD" d="M85.8 39.6c1-.2 2.2-.6 1.3 1.3-.3-.3-.6-.5-.8-.8-.4.1-.5-.1-.5-.5z"/><path fill="#FFAB4C" d="M85.8 39.6l.5.5c-.7.5-1.4.5-2.1-.1.3-.3.7-.2 1-.4.2.1.4.1.6 0zM85.2 39.7l-1 .4c-.4 0-.8 0-1.3-.1.8-.6 1.6-.3 2.3-.3zM73.8 41.3c.6-.7 1.5-.3 2.2-.4-.7.4-1.5.4-2.2.4zM76.7 40.8c.7-.6 1.5-.3 2.2-.3-.7.4-1.4.4-2.2.3zM79.6 40.4c.7-.7 1.5-.3 2.3-.3-.7.4-1.5.4-2.3.3zM146.2 10.3c.1-.1.3-.2.4-.4 1.8.7 3.6 1.4 5.5 2.1.1.4.1.6-.4.4-1.9-.5-3.8-1.2-5.5-2.1zM164.2 17h-2.1c1.4-.4 1.9-1.3 1.7-2.7-.1-.9 0-1.8 0-2.7.8 1.7.2 3.6.4 5.4zM169.1 8.7c1.7-.7 2.7-.7 4.1-.2-1.3.9-2.4.7-4.1.2zM176 10.2c-1.6.4-3.3.7-5 .2l5-.5c.1.1.2.2.1.2l-.1.1zM164.2 8.6c-1.4-.1-2.5-.9-3.8-1.4 1.4-.2 2.5.8 3.8.6.3.3.3.6 0 .8zM167.6 5.6v-.2c1.4.1 2.7.5 3.9 1.1-.1.3-.3.3-.5.4-1.2-.4-2.4-.6-3.4-1.3zM151.7 12.4l.4-.4c1 .4 2 .9 3.1 1.3-1.4 0-2.5-.2-3.5-.9zM159.1 15.4l-3-1.3c1.2-.1 2.2.3 3 1.3zM154.5 7.7c1.1-.2 2 .1 2.7 1-.9-.3-1.8-.6-2.7-1zM173.4 6.6c.9-.1 1.7 0 2.5.4.1.1.2.2.1.2 0 .1-.1.1-.1.1-.9 0-1.7 0-2.5-.3-.1-.1-.2-.2-.1-.3 0-.1.1-.1.1-.1zM176 7.3v-.4c.9-.1 1.7.2 2.5 1-1.1.3-1.8-.3-2.5-.6zM165.1 8.3c.4.7 1.3.5 2.3 1.4-1.3-.1-2.1-.4-2.7-1-.2-.5 0-.6.4-.4zM176 10.2v-.4c.5-.5 1.2-.6 2-.8-.6 1-1.4.9-2 1.2zM173.4 6.6v.4c-.8.1-1.7.2-2.5-.2l.5-.4c.7.1 1.4.1 2 .2zM169.6 12.4v-2c.9.6.8 1.3 0 2zM165.1 8.3l-.4.3h-.4c0-.3 0-.6.1-.8.3-.1.6-.5 1 0 .2.3-.1.3-.3.5zM251 9.9c-.4-1.1-.5-2 1.2-1.6-.4.5-.8 1-1.2 1.6zM74.3 70.5c-.6.4-1.5-.4-1.9.6-.2.1-.3.2-.5.2-.7-.3-1.6.2-2.3-.4-.6-.5-1.5 0-2.1-.4 2.2-.4 4.5-.5 6.8 0zM137.7 19.5c-.2.7-.6 1.2-1.2 1.6.1-.9.3-1.5 1.2-1.6z"/><path fill="#FDFDFD" d="M115.6 76.2l.3.3c-.1.1-.2.3-.4.4-.2.1-.4-.1-.3-.3 0-.3.2-.3.4-.4z"/><path fill="#FFAB4C" d="M147.5 68.5c-.8.3-1.7.3-2.5 0 .8-.6 1.6-.6 2.5 0zM230.8 231c0-.2 0-.5-.1-.7.7.2 1.5.5 2 1.2-.7.2-1.2-.5-1.9-.5zM73.3 71.9c.3.6.8.2 1.2.3l-1.2 1.7c-.3.3-.7.5-1.2.4-.6-.1-1.1-.3-1.4-.8.6-1 1.2-1.9 2.6-1.6zM73 75.2c-.4.1-.8.3-1.1.4-.5-.7-1.2-.3-1.8-.4-.3.1-.6.2-.9-.1-.1-.2 0-.4.1-.6.9-.5 1.9-.3 2.8-.4.3-.1.6-.1.9 0 .2.2.2.4 0 .5-.1.3-.1.5 0 .6zM72.9 74.5c-.3 0-.6 0-.8-.1-.1-.1-.1-.2-.1-.3 0-.1 0-.2.1-.2h1.3v.4c-.1.2-.3.3-.5.2zM72.9 74.5l.4-.2c.1.1.2.2.3.4l-.7.1v-.3zM67.1 72.3c.3 0 .5 0 .8-.1.5.2 1 .5 1.4.8.1.2.2.3.2.5s-.1.4-.2.5c-.4.3-.8.6-1.3.2-.1-.7-1.1-1.1-.9-1.9zM69.2 75.1l.8.2-.5.4c-.5 0-1.1 0-1.6-.1l-.8-.3c.1-.2.2-.3.4-.5.6-.4 1.2-.1 1.7.3zM69.2 75.1c-.6-.1-1.2-.2-1.7-.3l.4-.5 1.3-.3c.2.3.3.5 0 .8v.3zM69.2 73.6v-.5c-.4-.4-.4-.8-.4-1.3l.4-.3c1-.2 2 0 2.9-.4.1.1.1.1.2.1l1 .8c-1.2 0-1.4 1.4-2.5 1.6-.5.4-1.1.4-1.6 0zM72.1 71c-.8 1.4-1.9.8-2.9.4.1-.2.2-.4.4-.5.8-.2 1.7-.5 2.5.1zM68.7 71.8c.7.3.4.8.4 1.3-.6 0-1.3 0-1.3-.9.2-.4.6-.3.9-.4zM198 110.3c.3-.2.6-.5 1 0 1 1.3 2.5 1.8 4.1 1.9-.9 1.6-2.7 1.3-4.9-1.1-.3-.2-.1-.5-.2-.8zM182.8 181c-.6.2-.4 1.1-.9.8-1.1-.5-2.4-.7-2.9-2-.1-.2.6-.7.9-.6.9.5 2 .8 2.9 1.8zM196.5 115.5c-.7-.9-2-.6-2.8-1.2-.6-.4-1.4-.6-1.1-1.9 1.3 1 2.9 1 4 2.2.1.3.1.6-.1.9zM188 129.3c-1.7 0-3-.5-3.7-2.2 1.4.8 3.3.6 4.3 2.1-.1.2-.3.2-.6.1zM191.9 122.5c-1.2-.9-3.4-.6-3.8-2.8 1.1 1 3 .4 3.8 2 .2.3.2.6 0 .8zM181.5 186.3c.7.7 2.1.5 2.5 1.8.1.2-.4.7-.7.6-1-.5-2.2-.6-2.7-1.6-.2-.4.4-.7.9-.8zM179.7 182.8c-1.2 1-2.1 0-3-.6-.2-.2-.3-.5-.1-.7.2-.2.6-.4.7-.3.8.4 2 .4 2.4 1.6zM196.5 115.5v-.9l3 1.3c.3.1 1-.1.7.6-.2.5-.5.9-1.1.5-.9-.5-1.8-1-2.6-1.5zM191.9 122.5v-.8c1.4 0 2.3 1.5 3.8 1.3.5-.1.2.3.1.5-.2.5-.5.9-1.1.6-1-.4-2.1-.7-2.8-1.6zM194.2 118.1c1.2.6 2.3 1.1 3.4 1.6.1.1.2.4.1.5-.1.2-.5.5-.5.5-1.1-.5-2.2-1.1-3.2-1.8-.3-.1-.3-.7.2-.8zM179.6 182.8c1.3-.2 2.2.6 3.2 1.1.4.2.5.4.2.8-.1.2-.3.6-.6.5-.9-.7-2.7-.5-2.8-2.4zM189.8 125.5c-1.8.4-2.9-.6-3.8-1.9 1.4.7 3.2.4 4.2 1.9-.1.1-.2.1-.4 0zM189.8 125.5h.4c1.2.2 1.9 1.3 3.2 1.3.4 0 .5.1.3.4-.2.3-.6.7-.6.7-1.1-.8-3-.6-3.3-2.4zM182.4 189.6c.9.6 3 .9 2.6 1.7-.8 1.4-2-.5-3.1-.6-.5-.6-.2-.9.5-1.1zM198 110.3c.5.2.2.6.1.9-1.5 0-2.7-.4-3-2.3 1 .4 1.9.9 2.9 1.4zM184.8 135.9c1.2.6 2.3 1.2 3.5 1.7.4.2.8 0 .6.6-.2.4-.4.7-.9.4-1.2-.7-2.5-1.3-3.6-2.3-.1-.3 0-.5.4-.4zM186.4 132.5c-1.4.4-1.6.3-3.7-1.3 1.3-.3 3.4.5 3.7 1.3zM188 129.3l.6-.1c.9.4 1.8.9 2.8 1.2.5.2.5.4.4.7-.1.3-.4.5-.6.4-1.1-.7-2.7-.7-3.2-2.2zM181 190.3c-.8-.5-1.9-.6-2.3-1.5 0-.1.3-.5.5-.5 1.1 0 1.9.4 2.6 1.2-.2.4-.4.7-.8.8zM180.8 186c-.7.4-.6 1.2-1.1.9-.8-.4-2-.5-2.2-1.6-.1-.3.5-.7 1-.5.7.3 1.4.7 2.3 1.2zM183.8 192.9c.9.6 2 .7 2.6 1.6.1.2-.5.8-.9.5-.8-.5-1.9-.5-2.3-1.5-.1-.1.4-.4.6-.6zM176.6 177.4c.6.6 1.8.5 2.1 1.6 0 .2-.4.8-.9.6-.8-.3-1.8-.6-2.1-1.5-.1-.4.4-.6.9-.7zM178.8 141.4c1.5-.1 2.2 1.5 3.5 1.1.3-.1.3.3.3.6-.1.4-.4.8-.9.5-1-.5-2.2-.8-2.9-2.2zM186.4 132.6c1.3.2 2.3 1.2 3.5 1.7.3.1.4.3.3.6-.1.1-.4.3-.5.3-1.1-.9-3.1-.7-3.3-2.6zM190.2 116.3c1.1.5 2.6.4 3 2.4-1.3-.7-2.7-.8-3-2.4zM184.8 135.9l-.4.4c-1.3-.2-2.4-.7-3.2-2.1 1.6.1 2.4 1.5 3.8 1.1-.1.2-.2.4-.2.6zM187.8 197.3c-.2.6-.5.9-.8.8-.9-.4-2-.4-2.4-1.5-.1-.3.5-.5.8-.4.8.3 1.6.7 2.4 1.1zM184.3 195.6c0 .7-.4.9-.7.8-.8-.2-1.6-.4-2.2-1.1-.3-.4.4-.7.5-.6.9.2 1.7.6 2.4.9zM182.5 139.8c-1-.4-2.1-.6-2.5-2.3 1.4.8 2.6 1.3 3.5 2.2-.3.3-.7.2-1 .1zM183.1 192.6c-1.4 1.3-2.2.1-3-.5-.4-.3.3-.7.7-.6l2.3 1.1zM182.4 148.4c1.4-.9 2.1.5 3 .2.1.2.2.4.2.5 0 .4-.3.3-.6.4-1.1.1-1.5-.9-2.6-1.1zM182.5 139.8c.3 0 .7 0 1-.1.9.1 1.5.6 2.2 1.1.1.3.1.5-.1.7-1.1-.5-2.1-1.1-3.1-1.7zM185.5 141.5l.1-.7c.1 0 .3 0 .4.1.4.5 1.4.1 1.6.9 0 .1-.2.4-.3.5-.8.2-1.2-.4-1.8-.8zM185.2 145.5c-.9-.4-1.9-.6-2.6-1.6 1.4-.2 2.2.5 3.1 1.1-.1.4-.3.4-.5.5zM180.2 146.8c-.9-.3-1.7-.7-2.5-2.1 1.4.5 2.2 1 3 1.6-.1.3-.3.4-.5.5zM183.8 156.2c-1.2.5-1.9-.6-3-.8 1.5-.7 2.1.7 3 .8zM179.3 150.2c-.7-.3-1.4-.6-2.3-1 1.1-.5 1.8-.2 2.3.5.2.1.2.3 0 .5zM177.6 160.2c.6.3 1.8 0 1.6 1.4v-.1c-.7-.2-1.4-.5-2-1 0-.3 0-.5.4-.3zM176.8 171.8c.5.1 1 .1 1.6.2 0 0 .1.5 0 .6-.8.5-1.2-.1-1.6-.8zM181.2 163c.9-.1 1.4-.2 1.8.2.1.1 0 .7-.2.7-.6.2-.9-.3-1.6-.9zM176.1 167.5c.6.3 1.4.4 1.7 1.6-.9-.5-1.4-.8-2-1.2.1-.1.2-.2.3-.4zM181 174h1.1c0 .2 0 .6-.1.7-.6.4-1-.2-1.4-.4-.1-.3 0-.5.4-.3zM179.3 150.2v-.5c.4.4 1.1-.2 1.4.4.1.1 0 .5-.1.6-.5.3-1 0-1.3-.5zM180.2 146.8l.5-.4c.3 0 .6-.4.8 0 .1.2 0 .6-.1.7-.5.3-.9-.1-1.2-.3zM176.1 155.6c.9.2 1.5.3 1.5 1.2-.8.1-1.2-.3-1.5-1.2zM179.2 161.6c1-.5 1.2.4 1.6.8-.8.2-1.3-.2-1.6-.8zM183.5 159.9c0 .3-.2.5-.5.4-.3-.1-.7-.2-.7-.6 0-.5.5-.3.8-.4.4 0 .4.3.4.6zM180.9 170.8c-.5-.2-1-.4-1.6-.7.9-.7 1.2-.1 1.7.3.1.1.1.3-.1.4zM180.9 170.8c0-.1 0-.3.1-.4.4.4 1.1-.3 1.3.5 0 .2-.1.5-.2.5-.5 0-.9-.2-1.2-.6zM179.4 165.7c1.2-.1 1.7.2 2.2 1.1-.8-.4-1.3-.6-2.2-1.1zM177.3 175.9c.4-.2.7-.6 1.1-.4.1.1.2.6.1.7-.4.4-.8.1-1.2-.3zM177.6 160.2c-.1.1-.2.2-.4.3-.6-.1-1-.3-1.3-1 .9-.2 1.3.2 1.7.7zM181.6 159.3c-.8-.1-1.3-.2-1.4-.9.8-.3 1.2 0 1.4.9zM179.5 157.4c-.1.3-.3.5-.7.3-.2-.1-.6-.2-.4-.5.1-.2.4-.2.7-.3.3 0 .5.1.4.5zM181 190.3l.7-.8.7.1c-.2.4-.7.6-.5 1.1-.4.1-.8 0-.9-.4zM182.3 151.8c-.9.3-1.2-.2-1.6-1.2.9.3 1.5.3 1.6 1.2zM182.3 151.8c.7.1 1.5-.1 1.7 1.3-.8-.5-1.5-.5-1.7-1.3zM178.1 153.4c-.5-.1-1-.3-1.3-1 .8-.2 1.2.2 1.6.7 0 .2-.2.3-.3.3zM178.1 153.4c.1-.1.2-.2.4-.3l1.3.3c.2.3.3.6 0 .8-.8.1-1.3-.4-1.7-.8zM185.2 145.5l.5-.4.7.2s0 .5-.1.5c-.5.3-.8 0-1.1-.3zM179.7 154.3v-.8c.9 0 .5.8.7 1.2-.2-.2-.4-.3-.7-.4zM176.8 164c-.6-.1-1-.4-1.3-1.1.6-.2 1 .1 1.3.6.2.1.2.3 0 .5zM176.8 164v-.5c.4.3.8.5 1.5 1-.8.1-1.1-.3-1.5-.5zM181 174c-.2.1-.3.2-.5.4-.3-.3-1.2-.3-.9-.8.5-.5 1 .1 1.4.4zM55.8 55.9c-1.8.9-3.7.3-5.5.4-1.5.1-2.9 0-4.4 0 3.3-.5 6.6 0 9.9-.4zM69.2 73.6h1.7l1.2.4c0 .2 0 .3.1.5-.9.9-2 .2-2.9.4v-.8c-.2-.2-.2-.4-.1-.5z"/></svg>