<svg xmlns="http://www.w3.org/2000/svg" viewBox="224 278 146 146.2" enable-background="new 224 278 146 146.2"><path fill="#FFAB4C" d="M224 356v-.5c.2-.4.1-.9.1-1.3v-1c-.1-.5.1-1.1-.1-1.6v-.7c.2-.5.1-1.1.1-1.6v-1c-.1-.4.1-.8-.1-1.2v-.5c.2-1.7.2-3.5.3-5.2.2-2.7.8-5.3 1.4-8 1.2-5.1 3-10 5.4-14.6 2.4-4.8 5.2-9.3 8.6-13.5 6.3-7.8 13.9-14.1 22.8-18.9 7-3.9 14.5-6.4 22.4-7.7 2.1-.3 4.2-.3 6.4-.4.3 0 .6.1.9-.1h.5c.4.2.8.2 1.3 0h.4c.7.2 1.4.2 2 0h1.1c.6.2 1.2.1 1.8.1.5-.1 1 .1 1.5-.1h.9c1.7.3 3.5.3 5.2.4 2.8.2 5.6.8 8.3 1.5 4.8 1.2 9.5 2.9 13.9 5.1 5.3 2.6 10.3 5.8 14.9 9.6 6.9 5.8 12.7 12.7 17.1 20.6 4.4 7.9 7.2 16.2 8.5 25.1.3 1.7.2 3.4.3 5 .2 2.8.1 5.7.1 8.5.1 9.9-2.3 19.1-6.4 28-2.8 6.2-6.5 11.9-11 17.1-5.5 6.3-11.8 11.7-19.2 15.9-5.7 3.2-11.7 5.8-18.1 7.4-3.9 1-7.8 1.7-11.8 1.8-3.1.1-6.2.2-9.4.2-9.2.1-17.9-1.9-26.3-5.6-6.8-3-13.1-6.9-18.8-11.9-6.9-6-12.6-12.9-16.9-21-3.8-7.1-6.4-14.6-7.7-22.5-.4-2.2-.3-4.4-.5-6.6.2-.4.3-.6.1-.8z"/><path fill="#7E9C7E" d="M296.5 278c-.7.3-1.4.3-2 0h2zM299.4 278.2c-.6 0-1.3.1-1.8-.2h1.8c.2.1.2.1 0 .2z"/><path fill="#7A997A" d="M224 351.4c.3.5.2 1.1.2 1.7-.1.1-.1.1-.2-.1v-1.6zM224.2 349c0 .6.1 1.2-.2 1.7v-1.6c.1-.2.1-.2.2-.1z"/><path fill="#A2B8A2" d="M299.4 278.2c0-.1 0-.1-.1-.2h1.5c-.4.4-.9.1-1.4.2z"/><path fill="#B7C8B7" d="M224.2 354.2c-.1.4.2.9-.2 1.3v-1.3c.1-.2.1-.2.2 0z"/><path fill="#B3C5B3" d="M294.1 278c-.4.2-.8.3-1.3 0h1.3z"/><path fill="#B4C5B4" d="M224 346.8c.3.3.1.7.2 1.1-.1.2-.1.2-.2 0v-1.1z"/><path fill="#94AD94" d="M224 347.9h.2v1.1c-.1 0-.1 0-.2.1v-1.2zM224.2 354.2h-.2v-1.1c.1 0 .1 0 .2.1v1z"/><path fill="#FEFEFE" d="M297.1 325.4c15.4.1 27.6 12.5 27.6 27.8-.1 15.2-12.6 27.5-27.7 27.4-15.4-.2-27.6-12.4-27.5-27.7 0-15.3 12.4-27.6 27.6-27.5zM321.7 333.4c.3-.2.6-.2.9-.2h22c.9 0 1.1.3 1.1 1.1-.1 15.5 0 31 0 46.5 0 .6.1 1.1-.8 1.1-11.6-.1-23.1 0-34.7 0-.1 0-.3 0-.6-.1 9.3-4.5 15.5-11.5 17.9-21.4 2.5-9.8.3-18.9-5.8-27zM284.2 381.9h-34.9c-.9 0-1.1-.3-1.1-1.1.1-15.5.1-31 0-46.5 0-.9.2-1.2 1.2-1.2 7.3.1 14.6 0 21.9 0h1.1c-6.2 8.2-8.3 17.3-6 27.2 2.5 10 8.7 17 17.8 21.6zM275.4 329.8c2.7-3.5 5.5-6.9 8.1-10.5 1-1.3 2-1.8 3.6-1.7 7.1.1 14.2.1 21.3.1.6 0 1 .2 1.4.7 2.9 3.7 5.8 7.4 8.6 11.1.1.2.3.4.3.4-14.4-11.3-28.9-11.3-43.3-.1z"/><path fill="#94AD94" d="M319.4 330.7c.1.1.1.1.1.2l-.1.1-.1-.1c.1-.1.1-.2.1-.2zM274.6 330.9l-.1-.2c0-.1.1-.1.1-.1l.1.2c0 .1 0 .1-.1.1z"/><path fill="#FFAB4C" d="M317.4 352.9c.1 11.2-9.1 20.4-20.2 20.4-11.3.1-20.5-9.1-20.5-20.4 0-11.2 9.1-20.3 20.3-20.4 11.2 0 20.4 9.1 20.4 20.4z"/></svg>