<?xml version="1.0" encoding="utf-8"?>
<!-- Generator: Adobe Illustrator 18.1.1, SVG Export Plug-In . SVG Version: 6.00 Build 0)  -->
<svg version="1.1" id="Camera" xmlns="http://www.w3.org/2000/svg" xmlns:xlink="http://www.w3.org/1999/xlink" x="0px" y="0px"
	 viewBox="-368 321 720 432" style="enable-background:new -368 321 720 432;" xml:space="preserve">
<style type="text/css">
	.st0{fill:#FFAB4C;}
	.st1{fill:url(#flash_1_);}
	.st2{fill:#231F20;}
</style>
<polygon id="cam-top" class="st0" points="-368,432.6 -341.7,447.5 -315.1,447.5 -186.4,416.2 -189.5,440.9 -317.4,476.6 
	-342.3,473.9 -367.5,456.6 "/>
<polygon id="cam-bot" class="st0" points="-364.3,600.7 -336.1,618.9 -308.7,619.4 -174.8,567.5 -152.7,577.6 -311.3,641.4 
	-338.2,640.6 -364.3,619.8 "/>
<path id="cam-base" class="st0" d="M-366.7,467.6l23.8,16.1l24.5,2.2l11.7-5.3l114.1-34.3c0,0-8.5,9.6-0.4,16.9
	c0,0-11.3,86.1,16.1,101.9l-132,50.8l-26.8-0.7l-30.8-20.9l0.4-124.8"/>
<path id="cam-roof" class="st0" d="M-156.5,426.2l-28-11.5l-33.1-31.4l-0.4-10.4l14.6-18.6l2.2-10.1l9.8-2.9l7.1,1.2l22.6-3.3
	l-5.3-2.2c0,0,2.8-2.3,9.7,0.6l15.6,5.5l-6.2,0.8l-1.1,1.6l1.4,1.1l4.2-0.3c0,0,2.2,1.9-3.6,2.8l-24.3,5.3l-29.9,1.8l-12.2,16.1
	l28.4,18.7l21.9,6.7l5.3-3.1l15.6-39.4l43-7.3l6.9,0.8l-47.7,8.8l-16.2,39.4c0,0-0.4,2.7,5.1,1.5l99.9-22.1l0.4,2.9l36.9-9.3
	l-1.2,22.1l-33.3,8.9c0,0,3.7-24.3-7.8-20.4l-98.6,24.9l-0.2,18.7C-154.7,424.3-154.3,427.7-156.5,426.2z"/>
<path id="but_4" class="st0" d="M-72.8,353.4l-0.1,7.6c0,0,1,8.5,30,5.8c0,0,14.4-2.3,11.2-12v-2.1C-31.7,352.7-54,362.8-72.8,353.4
	z"/>
<ellipse id="but_3" class="st0" cx="-52.4" cy="348.4" rx="20.5" ry="5.3"/>
<path id="but_2" class="st0" d="M-344.5,412.3l-0.1,6.9c0,0,0.9,7.7,27.3,5.3c0,0,13.1-2.1,10.3-11v-1.8
	C-307.1,411.7-327.3,420.8-344.5,412.3z"/>
<ellipse id="but_1" class="st0" cx="-325.6" cy="408" rx="18.6" ry="4.9"/>
<path id="lens" class="st0" d="M36.7,527c0,0-0.4,51.1-46.2,89.2c0,0-40.5,33.4-80.1,3.4c0.4,0.1,0.8,0.2,1.3,0.3
	c-0.2-0.1-0.7-0.2-1.4-0.4c-0.1-0.1-0.2-0.1-0.2-0.2c0,0-0.1-0.1-0.4-0.4c-71.9-18.1-60.3-86.1-60.3-86.1
	c17.6-99,105.6-92.6,105.6-92.6C-58,423-80.3,419.9-80.3,419.9l65.2-18.7l0.9,1.1l-1,50.6l-3.7-0.4c-38.8,1.3-57.6,22.2-57.6,22.2
	c-50.4,46.7-42,97-42,97c2.8,31.2,19.1,42.6,27.4,46.5c-4.7-5.4-22.4-30.8-2.9-89c0,0,33.1-77.6,93-66C-1,463.2,34.2,470.4,36.7,527
	z"/>
<path id="c-form" class="st0" d="M-172.4,511.6c0.7-9.2,1.4-18.3,2.2-27.5c0.1-1,0.3-2,0.3-2.9c0.1-2,0.4-3.7-1.5-5.5
	c-3.7-3.7-2.1-12.6,2.1-15.4c1.2-0.7,1.4-1.5,1.5-2.7c0.6-7.6,1.2-15.3,1.9-23c0.3-2,0.6-4.1,2.9-4.9c1.1,0.6,0.7,1.5,0.7,2.3
	c0.3,2.1-0.4,4.2,0.4,6.3c5.9,1.5,11.5,4.4,17.7,2c0.6-0.3,1.4-0.6,1.9-0.4c3.5,2.2,6.6-0.3,9.8-0.8c1.2-0.3,2.2-0.4,3.3-0.8
	c0.4-0.1,1.2-0.4,1.2,0.4l-1.2,1.4c-23.2,19.8-36.6,45-41.5,75c0,0.4-0.3,0.6-0.4,1C-172.8,514.9-171.8,513.1-172.4,511.6
	L-172.4,511.6z"/>
<linearGradient id="flash_1_" gradientUnits="userSpaceOnUse" x1="-103.2527" y1="12.0667" x2="326.2818" y2="12.0667" gradientTransform="matrix(1 0 0 -1 0 617.4)">
	<stop  offset="0" style="stop-color:#FFFFFF;stop-opacity:0.4"/>
	<stop  offset="0" style="stop-color:#F26322;stop-opacity:0.7"/>
	<stop  offset="0.2796" style="stop-color:#FEA90A;stop-opacity:0.3"/>
	<stop  offset="0.4172" style="stop-color:#FAB225;stop-opacity:0.2"/>
	<stop  offset="0.595" style="stop-color:#F4C051;stop-opacity:0.1"/>
	<stop  offset="0.9496" style="stop-color:#ECD38D;stop-opacity:2.000000e-02"/>
</linearGradient>
<path id="flash" class="st1" d="M2,458.7c-16.6,1.2-30.6,5.7-42.4,12.2c2.2-0.3,4.5-0.4,6.9-0.5c20.2-0.4,35.2,16.8,36,36
	c0.4,9-4.3,19.3-10.5,25.5c-5.1,5.1-11.9,8.5-19,9.9c-0.2,0.2-0.4,0.4-0.6,0.6c-0.4,0.6-0.7,1.2-1.1,1.8c3.9,2.8,7.2,6.2,10.1,10.7
	c2.8,4.4,4.2,9.3,4.6,14.4c3.5,4.2,6.1,9.2,7.8,14.4c2.8,8.6,0.9,20.1-3.7,27.7c-4.9,8.3-12.7,13.5-21.6,16.6
	c-5.2,1.8-11.2,2.4-16.8,2.2c-4.7-0.2-8.7-1-12.6-2.1c-8.1-0.4-15.3-3.7-21-8.6c-1.2-1-2.4-2.1-3.5-3.2c-2-1.9-3.7-3.9-6-5.9
	L-27.9,752h354.1V481.4L2,458.7z"/>
<path id="reflect_2" class="st2" d="M-40.2,587.3c5.6-0.3,10.5-2.6,15.2-5.7c11.6-8.1,18.7-19.3,22.6-32.8
	c1.6-5.7,2.3-11.7,1.6-17.7c-1.8-14.6-10.2-21.7-24.6-20.5c0.4-1.2,1.2-1.5,2.5-1.8c9.3-1.8,17.8,2.3,22.1,10.8
	c3.4,6.6,4.1,13.6,3.1,20.8c-2,16.1-9.2,29.7-21.5,40.4c-5.7,5.1-12.3,8.6-20.1,9.4c-7.8,0.8-15.4-3-19.3-10c-0.3-0.6,0-0.6,0.4-0.6
	c3.5,4.5,7.8,7.6,13.8,7.8C-42.8,587-41.5,587-40.2,587.3L-40.2,587.3z"/>
<path id="reflect_1" class="st2" d="M14.1,478.5c-14.4-4.8-27.9-1.9-40.9,4.7c-5.5,2.7-10.7,6-15.3,10.1
	c-27.1,23.4-42.2,52.7-42.6,88.8c-0.1,10.5,2,20.8,6.7,30.3c2.5,5.1,5.9,9.5,10,13.3c0.1,0.4,0,0.7-0.6,0.6
	c-8.5-4.2-13.8-11.2-17.7-19.7c-5.1-11.1-6.7-22.7-5.7-34.7c2.9-35.4,18.5-63.8,46.7-85.4c10.1-7.8,21.5-12.7,34.3-14.1
	c9.2-1,17.9,0.4,25.8,5.7C14.7,478.5,14.6,478.7,14.1,478.5L14.1,478.5z"/>
<path id="sharp" class="st0" d="M-318.2,401.6l48.2-6.8l25,5.3l-56.1,20l3.7-10.7C-297.4,409.6-298.2,399.8-318.2,401.6z"/>
</svg>
