<svg xmlns="http://www.w3.org/2000/svg" viewBox="-368 321 720 432" enable-background="new -368 321 720 432"><style type="text/css">.st0{fill:#FFAB4C;} .st1{fill:url(#flash_1_);} .st2{fill:#231F20;}</style><path id="cam-top" class="st0" d="M-368 432.6l26.3 14.9h26.6l128.7-31.3-3.1 24.7-127.9 35.7-24.9-2.7-25.2-17.3z"/><path id="cam-bot" class="st0" d="M-364.3 600.7l28.2 18.2 27.4.5 133.9-51.9 22.1 10.1-158.6 63.8-26.9-.8-26.1-20.8z"/><path id="cam-base" class="st0" d="M-366.7 467.6l23.8 16.1 24.5 2.2 11.7-5.3 114.1-34.3s-8.5 9.6-.4 16.9c0 0-11.3 86.1 16.1 101.9l-132 50.8-26.8-.7-30.8-20.9.4-124.8"/><path id="cam-roof" class="st0" d="M-156.5 426.2l-28-11.5-33.1-31.4-.4-10.4 14.6-18.6 2.2-10.1 9.8-2.9 7.1 1.2 22.6-3.3-5.3-2.2s2.8-2.3 9.7.6l15.6 5.5-6.2.8-1.1 1.6 1.4 1.1 4.2-.3s2.2 1.9-3.6 2.8l-24.3 5.3-29.9 1.8-12.2 16.1 28.4 18.7 21.9 6.7 5.3-3.1 15.6-39.4 43-7.3 6.9.8-47.7 8.8-16.2 39.4s-.4 2.7 5.1 1.5l99.9-22.1.4 2.9 36.9-9.3-1.2 22.1-33.3 8.9s3.7-24.3-7.8-20.4l-98.6 24.9-.2 18.7c.3.2.7 3.6-1.5 2.1z"/><path id="but_4" class="st0" d="M-72.8 353.4l-.1 7.6s1 8.5 30 5.8c0 0 14.4-2.3 11.2-12v-2.1s-22.3 10.1-41.1.7z"/><ellipse id="but_3" class="st0" cx="-52.4" cy="348.4" rx="20.5" ry="5.3"/><path id="but_2" class="st0" d="M-344.5 412.3l-.1 6.9s.9 7.7 27.3 5.3c0 0 13.1-2.1 10.3-11v-1.8c-.1 0-20.3 9.1-37.5.6z"/><ellipse id="but_1" class="st0" cx="-325.6" cy="408" rx="18.6" ry="4.9"/><path id="lens" class="st0" d="M36.7 527s-.4 51.1-46.2 89.2c0 0-40.5 33.4-80.1 3.4.4.1.8.2 1.3.3-.2-.1-.7-.2-1.4-.4-.1-.1-.2-.1-.2-.2l-.4-.4c-71.9-18.1-60.3-86.1-60.3-86.1 17.6-99 105.6-92.6 105.6-92.6-13-17.2-35.3-20.3-35.3-20.3l65.2-18.7.9 1.1-1 50.6-3.7-.4c-38.8 1.3-57.6 22.2-57.6 22.2-50.4 46.7-42 97-42 97 2.8 31.2 19.1 42.6 27.4 46.5-4.7-5.4-22.4-30.8-2.9-89 0 0 33.1-77.6 93-66 0 0 35.2 7.2 37.7 63.8z"/><path id="c-form" class="st0" d="M-172.4 511.6c.7-9.2 1.4-18.3 2.2-27.5.1-1 .3-2 .3-2.9.1-2 .4-3.7-1.5-5.5-3.7-3.7-2.1-12.6 2.1-15.4 1.2-.7 1.4-1.5 1.5-2.7.6-7.6 1.2-15.3 1.9-23 .3-2 .6-4.1 2.9-4.9 1.1.6.7 1.5.7 2.3.3 2.1-.4 4.2.4 6.3 5.9 1.5 11.5 4.4 17.7 2 .6-.3 1.4-.6 1.9-.4 3.5 2.2 6.6-.3 9.8-.8 1.2-.3 2.2-.4 3.3-.8.4-.1 1.2-.4 1.2.4l-1.2 1.4c-23.2 19.8-36.6 45-41.5 75 0 .4-.3.6-.4 1-1.7-1.2-.7-3-1.3-4.5z"/><linearGradient id="flash_1_" gradientUnits="userSpaceOnUse" x1="-103.253" y1="12.067" x2="326.282" y2="12.067" gradientTransform="matrix(1 0 0 -1 0 617.4)"><stop offset="0" stop-color="#fff" stop-opacity=".4"/><stop offset="0" stop-color="#F26322" stop-opacity=".7"/><stop offset=".28" stop-color="#FEA90A" stop-opacity=".3"/><stop offset=".417" stop-color="#FAB225" stop-opacity=".2"/><stop offset=".595" stop-color="#F4C051" stop-opacity=".1"/><stop offset=".95" stop-color="#ECD38D" stop-opacity=".02"/></linearGradient><path id="flash" class="st1" d="M2 458.7c-16.6 1.2-30.6 5.7-42.4 12.2 2.2-.3 4.5-.4 6.9-.5 20.2-.4 35.2 16.8 36 36 .4 9-4.3 19.3-10.5 25.5-5.1 5.1-11.9 8.5-19 9.9l-.6.6-1.1 1.8c3.9 2.8 7.2 6.2 10.1 10.7 2.8 4.4 4.2 9.3 4.6 14.4 3.5 4.2 6.1 9.2 7.8 14.4 2.8 8.6.9 20.1-3.7 27.7-4.9 8.3-12.7 13.5-21.6 16.6-5.2 1.8-11.2 2.4-16.8 2.2-4.7-.2-8.7-1-12.6-2.1-8.1-.4-15.3-3.7-21-8.6-1.2-1-2.4-2.1-3.5-3.2-2-1.9-3.7-3.9-6-5.9l63.5 141.6h354.1v-270.6l-324.2-22.7z"/><path id="reflect_2" class="st2" d="M-40.2 587.3c5.6-.3 10.5-2.6 15.2-5.7 11.6-8.1 18.7-19.3 22.6-32.8 1.6-5.7 2.3-11.7 1.6-17.7-1.8-14.6-10.2-21.7-24.6-20.5.4-1.2 1.2-1.5 2.5-1.8 9.3-1.8 17.8 2.3 22.1 10.8 3.4 6.6 4.1 13.6 3.1 20.8-2 16.1-9.2 29.7-21.5 40.4-5.7 5.1-12.3 8.6-20.1 9.4-7.8.8-15.4-3-19.3-10-.3-.6 0-.6.4-.6 3.5 4.5 7.8 7.6 13.8 7.8 1.6-.4 2.9-.4 4.2-.1z"/><path id="reflect_1" class="st2" d="M14.1 478.5c-14.4-4.8-27.9-1.9-40.9 4.7-5.5 2.7-10.7 6-15.3 10.1-27.1 23.4-42.2 52.7-42.6 88.8-.1 10.5 2 20.8 6.7 30.3 2.5 5.1 5.9 9.5 10 13.3.1.4 0 .7-.6.6-8.5-4.2-13.8-11.2-17.7-19.7-5.1-11.1-6.7-22.7-5.7-34.7 2.9-35.4 18.5-63.8 46.7-85.4 10.1-7.8 21.5-12.7 34.3-14.1 9.2-1 17.9.4 25.8 5.7-.1.4-.2.6-.7.4z"/><path id="sharp" class="st0" d="M-318.2 401.6l48.2-6.8 25 5.3-56.1 20 3.7-10.7c0 .2-.8-9.6-20.8-7.8z"/></svg>