<?xml version="1.0" encoding="utf-8"?>
<!-- Generator: Adobe Illustrator 18.1.1, SVG Export Plug-In . SVG Version: 6.00 Build 0)  -->
<svg version="1.1" id="Layer_1" xmlns="http://www.w3.org/2000/svg" xmlns:xlink="http://www.w3.org/1999/xlink" x="0px" y="0px"
	 viewBox="-495.9 198 991.8 1188" enable-background="new -495.9 198 991.8 1188" xml:space="preserve">
<path fill="#FFAB4C" d="M-495.4,1015.9v-2.7c1.1-2.2,0.5-4.9,0.5-7v-5.4c-0.5-2.7,0.5-6-0.5-8.7v-3.8c1.1-2.7,0.5-6,0.5-8.7v-5.4
	c-0.5-2.2,0.5-4.3-0.5-6.5v-2.7c1.1-9.2,1.1-19,1.6-28.2c1.1-14.6,4.3-28.7,7.6-43.2c6.5-27.6,16.3-54.1,29.3-79
	c13-26,28.2-50.3,46.5-73c34.1-42.2,75.2-76.3,123.3-102.3c37.8-21.1,78.5-34.7,121.2-41.6c11.4-1.6,22.8-1.6,34.7-2.2
	c1.6,0,3.3,0.5,4.9-0.5h2.7c2.2,1.1,4.3,1.1,7,0h2.2c3.8,1.1,7.6,1.1,10.8,0h6c3.3,1.1,6.5,0.5,9.8,0.5c2.7-0.5,5.4,0.5,8.1-0.5h4.9
	c9.2,1.6,19,1.6,28.2,2.2c15.2,1.1,30.3,4.3,44.9,8.1c26,6.5,51.4,15.7,75.2,27.6c28.7,14.1,55.7,31.4,80.6,51.9
	c37.3,31.4,68.7,68.7,92.5,111.4c23.8,42.7,38.9,87.7,45.9,135.8c1.6,9.2,1.1,18.4,1.6,27.1c1.1,15.2,0.5,30.9,0.5,45.9
	c0.5,53.5-12.5,103.4-34.7,151.5c-15.2,33.6-35.2,64.4-59.5,92.5c-29.8,34.1-63.8,63.3-103.9,86c-30.9,17.3-63.3,31.4-98,40
	c-21.1,5.4-42.2,9.2-63.8,9.8c-16.8,0.5-33.6,1.1-50.8,1.1c-49.7,0.5-96.9-10.3-142.3-30.3c-36.7-16.3-70.9-37.3-101.7-64.4
	c-37.3-32.5-68.2-69.8-91.5-113.6c-20.6-38.4-34.7-79-41.6-121.7c-2.2-11.9-1.6-23.8-2.7-35.8
	C-494.8,1018.1-494.3,1017-495.4,1015.9L-495.4,1015.9z"/>
<path fill="#7E9C7E" d="M-103.1,594c-3.8,1.6-7.6,1.6-10.8,0H-103.1z M-87.5,595.1c-3.3,0-7,0.5-9.8-1.1h9.8
	C-86.4,594.5-86.4,594.5-87.5,595.1z"/>
<path fill="#7A997A" d="M-495.4,991c1.6,2.7,1.1,6,1.1,9.2c-0.5,0.5-0.5,0.5-1.1-0.5V991z M-494.3,978.1c0,3.3,0.5,6.5-1.1,9.2v-8.7
	C-494.8,977.6-494.8,977.6-494.3,978.1z"/>
<path fill="#A2B8A2" d="M171.2,873.8c0-0.5,0-0.5-0.5-1.1h8.1C176.6,874.9,173.9,873.2,171.2,873.8z"/>
<path fill="#B7C8B7" d="M-494.3,1006.2c-0.5,2.2,1.1,4.9-1.1,7v-7C-494.8,1005.1-494.8,1005.1-494.3,1006.2z"/>
<path fill="#B3C5B3" d="M495.9,198c-2.2,1.1-4.3,1.6-7,0H495.9z"/>
<path fill="#B4C5B4" d="M-495.4,966.2c1.6,1.6,0.5,3.8,1.1,6c-0.5,1.1-0.5,1.1-1.1,0V966.2z"/>
<path fill="#94AD94" d="M-495.4,972.2h1.1v6c-0.5,0-0.5,0-1.1,0.5V972.2z M-494.3,1006.2h-1.1v-6c0.5,0,0.5,0,1.1,0.5V1006.2z"/>
<path fill="#FEFEFE" d="M-99.9,850.4c83.3,0.5,149.3,67.6,149.3,150.4c-0.5,82.2-68.2,148.8-149.9,148.2
	c-83.3-1.1-149.3-67.1-148.8-149.9C-249.2,916.4-182.1,849.8-99.9,850.4L-99.9,850.4z M33.2,893.7c1.6-1.1,3.3-1.1,4.9-1.1h119
	c4.9,0,6,1.6,6,6c-0.5,83.9,0,167.7,0,251.6c0,3.3,0.5,6-4.3,6c-62.7-0.5-124.9,0-187.7,0c-0.5,0-1.6,0-3.3-0.5
	c50.3-24.4,83.9-62.2,96.9-115.7C78.1,986.7,66.2,937.5,33.2,893.7z M-169.6,1156h-188.8c-4.9,0-6-1.6-6-6
	c0.5-83.9,0.5-167.7,0-251.6c0-4.9,1.1-6.5,6.5-6.5c39.4,0.5,79,0,118.4,0h6c-33.6,44.3-44.9,93.6-32.5,147.1
	C-252.4,1093.3-218.9,1131.1-169.6,1156z M-217.3,874.2c14.6-19,29.8-37.3,43.8-56.8c5.4-7,10.8-9.8,19.5-9.2
	c38.4,0.5,76.8,0.5,115.2,0.5c3.3,0,5.4,1.1,7.6,3.8c15.7,20,31.4,40,46.5,60c0.5,1.1,1.6,2.2,1.6,2.2
	C-61,813.6-139.4,813.6-217.3,874.2z"/>
<path fill="#94AD94" d="M20.7,879.1c0.5,0.5,0.5,0.5,0.5,1.1l-0.5,0.5l-0.5-0.5C20.7,879.6,20.7,879.1,20.7,879.1z M-221.6,880.2
	l-0.5-1.1c0-0.5,0.5-0.5,0.5-0.5l0.5,1.1C-221.1,880.2-221.1,880.2-221.6,880.2z"/>
<path fill="#FFAB4C" d="M9.9,999.1c0.5,60.6-49.2,110.3-109.2,110.3c-61.1,0.6-110.9-49.1-110.9-110.3
	c0-60.6,49.2-109.8,109.8-110.3C-39.8,888.8,9.9,938,9.9,999.1L9.9,999.1z"/>
<polygon id="flash" fill="#FFFFFF" points="-32.1,999 -98.8,1004.9 -105.5,1071.6 -111.4,1005.3 -178.1,999.7 -111.8,992.2 
	-106.3,925.6 -98.7,992.3 "/>
</svg>
