<svg xmlns:sketch="http://www.bohemiancoding.com/sketch/ns" xmlns="http://www.w3.org/2000/svg" viewBox="0.9 125.1 609.1 605.7" enable-background="new 0.9 125.1 609.1 605.7"><title>stars</title><desc>Created with Sketch.</desc><g sketch:type="MSArtboardGroup" opacity=".4" fill="#666"><ellipse sketch:type="MSShapeGroup" cx="47.4" cy="152.6" rx="4.3" ry="4.4"/><ellipse sketch:type="MSShapeGroup" cx="108.8" cy="170.8" rx="3.7" ry="3.8"/><ellipse sketch:type="MSShapeGroup" cx="100.1" cy="271.6" rx="3.7" ry="3.8"/><ellipse sketch:type="MSShapeGroup" cx="56.1" cy="280.9" rx="4.3" ry="4.4"/><ellipse sketch:type="MSShapeGroup" cx="97" cy="297.1" rx="4.3" ry="4.4"/><ellipse sketch:type="MSShapeGroup" cx="87.1" cy="371.8" rx="3.1" ry="3.1"/><ellipse sketch:type="MSShapeGroup" cx="141.8" cy="345.7" rx="1.8" ry="1.8"/><ellipse sketch:type="MSShapeGroup" cx="159" cy="272.2" rx="4.3" ry="4.4"/><ellipse sketch:type="MSShapeGroup" cx="197.5" cy="185" rx="4.3" ry="4.4"/><ellipse sketch:type="MSShapeGroup" cx="157.8" cy="203.7" rx="3.1" ry="3.1"/><ellipse sketch:type="MSShapeGroup" cx="159" cy="137.7" rx="4.3" ry="4.4"/><ellipse sketch:type="MSShapeGroup" cx="206.2" cy="142.6" rx="4.3" ry="4.4"/><ellipse sketch:type="MSShapeGroup" cx="254.5" cy="197.5" rx="5.6" ry="5.6"/><ellipse sketch:type="MSShapeGroup" cx="253.3" cy="272.2" rx="4.3" ry="4.4"/><ellipse sketch:type="MSShapeGroup" cx="244" cy="277.8" rx="5" ry="5"/><ellipse sketch:type="MSShapeGroup" cx="228.4" cy="317.1" rx="4.3" ry="4.4"/><ellipse sketch:type="MSShapeGroup" cx="262" cy="325.8" rx="4.3" ry="4.4"/><ellipse sketch:type="MSShapeGroup" cx="233.5" cy="364.3" rx="4.3" ry="4.4"/><ellipse sketch:type="MSShapeGroup" cx="270.7" cy="381.6" rx="4.3" ry="4.4"/><ellipse sketch:type="MSShapeGroup" cx="294.3" cy="415.3" rx="4.3" ry="4.4"/><ellipse sketch:type="MSShapeGroup" cx="309.2" cy="343.1" rx="4.3" ry="4.4"/><ellipse sketch:type="MSShapeGroup" cx="197.5" cy="406.7" rx="4.3" ry="4.4"/><ellipse sketch:type="MSShapeGroup" cx="150.3" cy="360.5" rx="4.3" ry="4.4"/><ellipse sketch:type="MSShapeGroup" cx="100.7" cy="410.5" rx="4.3" ry="4.4"/><ellipse sketch:type="MSShapeGroup" cx="38.8" cy="410.5" rx="4.3" ry="4.4"/><ellipse sketch:type="MSShapeGroup" cx="13.9" cy="424.1" rx="4.3" ry="4.4"/><ellipse sketch:type="MSShapeGroup" cx="5.3" cy="381.6" rx="4.3" ry="4.4"/><ellipse sketch:type="MSShapeGroup" cx="31.9" cy="327.6" rx="6.2" ry="6.2"/><ellipse sketch:type="MSShapeGroup" cx="21.3" cy="305.7" rx="4.3" ry="4.4"/><ellipse sketch:type="MSShapeGroup" cx="35.1" cy="305.7" rx="4.3" ry="4.4"/><ellipse sketch:type="MSShapeGroup" cx="18.8" cy="252.3" rx="4.3" ry="4.4"/><ellipse sketch:type="MSShapeGroup" cx="45" cy="226" rx="5.6" ry="5.6"/><ellipse sketch:type="MSShapeGroup" cx="5.3" cy="147.6" rx="4.3" ry="4.4"/><ellipse sketch:type="MSShapeGroup" cx="26.3" cy="135.1" rx="3.1" ry="3.1"/><ellipse sketch:type="MSShapeGroup" cx="219.8" cy="227.3" rx="4.3" ry="4.4"/><ellipse sketch:type="MSShapeGroup" cx="275.6" cy="138.9" rx="4.3" ry="4.4"/><ellipse sketch:type="MSShapeGroup" cx="290.6" cy="181.3" rx="4.3" ry="4.4"/><path sketch:type="MSShapeGroup" d="M578.4 475.2c0 2.4 2 4.4 4.3 4.4 2.4 0 4.3-2 4.3-4.4s-2-4.4-4.3-4.4c-2.3-.1-4.3 1.9-4.3 4.4zm-17.5 62.5c0 2 1.7 3.8 3.7 3.8s3.7-1.7 3.7-3.8-1.7-3.8-3.7-3.8-3.7 1.7-3.7 3.8zm-102-8.8c0 2 1.7 3.8 3.7 3.8s3.7-1.7 3.7-3.8-1.7-3.8-3.7-3.8-3.7 1.6-3.7 3.8zm-10-44.8c0 2.4 2 4.4 4.3 4.4 2.4 0 4.3-2 4.3-4.4s-2-4.4-4.3-4.4c-2.3-.2-4.3 1.8-4.3 4.4zm-16.5 41.6c0 2.4 2 4.4 4.3 4.4 2.4 0 4.3-2 4.3-4.4s-2-4.4-4.3-4.4-4.3 1.9-4.3 4.4zm-74.1-10.2c0 1.7 1.4 3.1 3.1 3.1s3.1-1.4 3.1-3.1-1.4-3.1-3.1-3.1c-1.7.1-3.1 1.5-3.1 3.1zm27.6 55.7c0 1.1.8 1.8 1.8 1.8s1.8-.8 1.8-1.8-.8-1.8-1.8-1.8c-.9-.1-1.8.7-1.8 1.8zm71.8 17.6c0 2.4 2 4.4 4.3 4.4 2.4 0 4.3-2 4.3-4.4 0-2.3-2-4.4-4.3-4.4s-4.3 2-4.3 4.4zm88.1 39.2c0 2.4 2 4.4 4.3 4.4 2.4 0 4.3-2 4.3-4.4s-2-4.4-4.3-4.4-4.3 2-4.3 4.4zm-17.6-40.4c0 1.7 1.4 3.1 3.1 3.1 1.7 0 3.1-1.4 3.1-3.1s-1.4-3.1-3.1-3.1c-1.8.1-3.1 1.3-3.1 3.1zm65.4 1.2c0 2.4 2 4.4 4.3 4.4 2.4 0 4.3-2 4.3-4.4 0-2.3-2-4.4-4.3-4.4s-4.3 2-4.3 4.4zm-5 48.1c0 2.4 2 4.4 4.3 4.4 2.4 0 4.3-2 4.3-4.4s-2-4.4-4.3-4.4c-2.5-.1-4.3 1.9-4.3 4.4zm-56.8 49.2c0 3.1 2.4 5.8 5.8 5.8 3.1 0 5.8-2.4 5.8-5.8s-2.4-5.8-5.8-5.8c-3.1.1-5.8 2.8-5.8 5.8zm-74.1-1.2c0 2.4 2 4.4 4.3 4.4 2.4 0 4.3-2 4.3-4.4s-2-4.4-4.3-4.4c-2.3-.1-4.3 1.9-4.3 4.4zm-6.4-9.5c0 2.8 2.3 5.1 5.1 5.1s5.1-2.3 5.1-5.1-2.3-5.1-5.1-5.1-5.1 2.3-5.1 5.1zm-38.9-15.8c0 2.4 2 4.4 4.3 4.4 2.4 0 4.3-2 4.3-4.4s-2-4.4-4.3-4.4c-2.4 0-4.3 1.9-4.3 4.4zm-8.9 34.1c0 2.4 2 4.4 4.3 4.4 2.4 0 4.3-2 4.3-4.4s-2-4.4-4.3-4.4-4.3 2-4.3 4.4zm-38.9-29c0 2.4 2 4.4 4.3 4.4 2.4 0 4.3-2 4.3-4.4s-2-4.4-4.3-4.4c-2.5-.1-4.3 1.9-4.3 4.4zm-17.7 37.9c0 2.4 2 4.4 4.3 4.4 2.4 0 4.3-2 4.3-4.4s-2-4.4-4.3-4.4c-2.3-.1-4.3 1.9-4.3 4.4zm-33.9 23.9c0 2.4 2 4.4 4.3 4.4 2.4 0 4.3-2 4.3-4.4 0-2.3-2-4.4-4.3-4.4s-4.3 2-4.3 4.4zm8.8-98.5c0 2.4 2 4.4 4.3 4.4 2.4 0 4.3-2 4.3-4.4s-2-4.4-4.3-4.4-4.3 2-4.3 4.4zm46.6-48c0 2.4 2 4.4 4.3 4.4 2.4 0 4.3-2 4.3-4.4s-2-4.4-4.3-4.4c-2.4-.1-4.3 2-4.3 4.4zm-50.4-50.4c0 2.4 2 4.4 4.3 4.4 2.4 0 4.3-2 4.3-4.4s-2-4.4-4.3-4.4c-2.3-.1-4.3 1.9-4.3 4.4zm0-63.3c0 2.4 2 4.4 4.3 4.4 2.4 0 4.3-2 4.3-4.4 0-2.4-2-4.4-4.3-4.4s-4.3 2-4.3 4.4zm-13.8-25.3c0 2.4 2 4.4 4.3 4.4 2.4 0 4.3-2 4.3-4.4 0-2.3-2-4.4-4.3-4.4-2.4.1-4.3 2.1-4.3 4.4zm42.7-8.8c0 2.4 2 4.4 4.3 4.4 2.4 0 4.3-2 4.3-4.4 0-2.4-2-4.4-4.3-4.4s-4.3 2.1-4.3 4.4zm53 27.1c0 3.5 2.8 6.4 6.4 6.4 3.5 0 6.4-2.8 6.4-6.4 0-3.5-2.8-6.4-6.4-6.4-3.7.1-6.4 3-6.4 6.4zm35-30.9c0 2.4 2 4.4 4.3 4.4 2.4 0 4.3-2 4.3-4.4 0-2.4-2-4.4-4.3-4.4s-4.3 2-4.3 4.4zm-11.3 34.2c0 2.4 2 4.4 4.3 4.4 2.4 0 4.3-2 4.3-4.4 0-2.4-2-4.4-4.3-4.4-2.2-.1-4.3 1.9-4.3 4.4zm54.2-16.5c0 2.4 2 4.4 4.3 4.4 2.4 0 4.3-2 4.3-4.4 0-2.4-2-4.4-4.3-4.4-2.3-.1-4.3 2-4.3 4.4zm25.1 26.6c0 3.1 2.4 5.8 5.8 5.8 3.1 0 5.8-2.4 5.8-5.8s-2.4-5.8-5.8-5.8c-3.2 0-5.8 2.5-5.8 5.8zm80.6-40.5c0 2.4 2 4.4 4.3 4.4 2.4 0 4.3-2 4.3-4.4 0-2.4-2-4.4-4.3-4.4s-4.3 2.1-4.3 4.4zm13.9 21.5c0 1.7 1.4 3.1 3.1 3.1 1.7 0 3.1-1.4 3.1-3.1 0-1.7-1.4-3.1-3.1-3.1-1.7 0-3.1 1.3-3.1 3.1zm-94.5 197c0 2.4 2 4.4 4.3 4.4 2.4 0 4.3-2 4.3-4.4 0-2.3-2-4.4-4.3-4.4-2.2.1-4.3 2-4.3 4.4zm89.3 56.8c0 2.4 2 4.4 4.3 4.4 2.4 0 4.3-2 4.3-4.4 0-2.3-2-4.4-4.3-4.4-2.2.2-4.3 2.1-4.3 4.4zm-42.7 15.3c0 2.4 2 4.4 4.3 4.4 2.4 0 4.3-2 4.3-4.4s-2-4.4-4.3-4.4c-2.3-.1-4.3 1.9-4.3 4.4zm-22.6-562.5c1.1 1.7 3.2 2.3 5.1 1.4 1.8-.9 2.3-3.2 1.4-5.1-1.1-1.8-3.2-2.3-5.1-1.4-1.8.9-2.3 3.4-1.4 5.1zm-91.3 42.9c1.1 1.8 3.2 2.3 5.1 1.4 1.8-.9 2.3-3.2 1.4-5.1-1.1-1.7-3.2-2.3-5.1-1.4-2 .9-2.4 3.4-1.4 5.1zm-30.7-33.3c1.2 2 3.8 2.8 5.9 1.5 2-1.2 2.8-3.9 1.5-5.9-1.3-2-3.8-2.8-5.9-1.5-1.9 1.2-2.7 3.9-1.5 5.9zm6.5 43.7c1.2 2 3.8 2.8 5.9 1.5 2-1.2 2.8-3.9 1.5-5.9-1.2-2-3.8-2.8-5.9-1.5-1.9 1.2-2.5 3.9-1.5 5.9zm-68.3 28.1c.9 1.5 2.8 2 4.1 1.1 1.5-.9 2-2.8 1.1-4.2-.9-1.5-2.8-2-4.1-1.1-1.4.8-1.9 2.8-1.1 4.2zm51 33.7c.5.9 1.7 1.2 2.4.6.9-.5 1.2-1.7.6-2.4-.5-.9-1.7-1.2-2.4-.6-.9.4-1.2 1.6-.6 2.4zm69.9-20.3c1.2 2 3.8 2.8 5.9 1.5 2-1.3 2.8-3.9 1.5-5.9-1.3-2-3.8-2.8-5.9-1.5-2 1.3-2.8 3.9-1.5 5.9zm94.4-10.1c1.2 2 3.8 2.8 5.9 1.5 2-1.2 2.8-3.9 1.5-5.9-1.2-2-3.8-2.8-5.9-1.5-1.9 1.1-2.7 3.7-1.5 5.9zm-34.9-25.8c.9 1.5 2.8 2 4.1 1.1 1.5-.9 2-2.8 1.1-4.2-.9-1.5-2.8-2-4.1-1.1-1.4.7-1.9 2.7-1.1 4.2zm56.4-31.4c1.2 2 3.8 2.8 5.9 1.5 2-1.2 2.8-3.9 1.5-5.9-1.2-2-3.8-2.8-5.9-1.5-2 1.2-2.6 3.9-1.5 5.9zm21.8 43.5c1.2 2 3.8 2.8 6.1 1.5 2.1-1.2 2.8-3.9 1.5-5.9-1.3-2-3.8-2.8-6.1-1.5s-2.7 3.9-1.5 5.9zm-24.2 70c1.5 2.6 5 3.6 7.8 2 2.8-1.5 3.5-5 2-7.6-1.5-2.6-5-3.6-7.7-2-2.9 1.6-3.7 5-2.1 7.6zm-64.4 35.8c1.2 2 3.8 2.8 6.1 1.5 2.1-1.2 2.8-3.9 1.5-5.9s-3.8-2.8-6.1-1.5c-2.1 1.2-2.6 3.7-1.5 5.9zm-10-5c1.4 2.3 4.4 3.2 6.8 1.8 2.3-1.4 3.2-4.4 1.8-6.8s-4.4-3.2-6.8-1.8c-2.3 1.4-3.2 4.3-1.8 6.8zm-41.1 5.8c1.2 2 3.8 2.8 6.1 1.5 2-1.2 2.8-3.9 1.5-5.9s-3.8-2.8-6.1-1.5c-2.1 1.2-2.8 3.8-1.5 5.9zm9.1 33.5c1.2 2 3.8 2.8 6.1 1.5 2.1-1.2 2.8-3.9 1.5-5.9-1.2-2-3.8-2.8-6.1-1.5-2.1 1.3-2.6 3.7-1.5 5.9zm-47.6-5.6c1.2 2 3.8 2.8 6.1 1.5 2.1-1.2 2.8-3.9 1.5-5.9s-3.8-2.8-6.1-1.5c-2.1 1.3-2.8 4-1.5 5.9zm3.6 41.2c1.2 2 3.8 2.8 6.1 1.5 2-1.2 2.8-3.9 1.5-5.9-1.3-2-3.8-2.8-6.1-1.5-2 1-2.7 3.7-1.5 5.9zm-41.1-9.8c1.2 2 3.8 2.8 6.1 1.5 2-1.2 2.8-3.9 1.5-5.9-1.2-2-3.8-2.8-6.1-1.5-1.9 1.3-2.7 3.9-1.5 5.9zm93.8 23.9c1.2 2 3.8 2.8 6.1 1.5 2.1-1.2 2.8-3.9 1.5-5.9-1.3-2-3.8-2.8-6.1-1.5-2.1 1.2-2.8 3.8-1.5 5.9zm-111.1-65.4c1.2 2 3.8 2.8 6.1 1.5 2-1.2 2.8-3.9 1.5-5.9-1.2-2-3.8-2.8-6.1-1.5-2 1.3-2.6 3.9-1.5 5.9zm16.3-63.9c1.2 2 3.8 2.8 6.1 1.5 2.1-1.2 2.8-3.9 1.5-5.9-1.2-2-3.8-2.8-6.1-1.5-2.1 1.2-2.7 3.8-1.5 5.9zm-68.2-18.2c1.2 2 3.8 2.8 6.1 1.5 2.1-1.2 2.8-3.9 1.5-5.9-1.2-2-3.8-2.8-6.1-1.5-2 1-2.7 3.7-1.5 5.9zm-31.1-53.9c1.2 2 3.8 2.8 6.1 1.5 2.2-1.3 2.8-3.9 1.5-5.9-1.2-2-3.8-2.8-6.1-1.5-1.9 1-2.7 3.7-1.5 5.9zm-24.2-14.8c1.2 2 3.8 2.8 6.1 1.5 2.1-1.2 2.8-3.9 1.5-5.9-1.3-2-3.8-2.8-6.1-1.5-2.1 1.1-2.7 3.7-1.5 5.9zm32.3-28.8c1.2 2 3.8 2.8 6.1 1.5 2.1-1.2 2.8-3.9 1.5-5.9-1.2-2-3.8-2.8-6.1-1.5-2.1 1.2-2.7 3.9-1.5 5.9zm58.6-2.9c1.7 2.9 5.6 4.1 8.5 2.3 2.9-1.7 4-5.6 2.3-8.5s-5.6-4.1-8.5-2.3c-2.9 1.7-4 5.5-2.3 8.5zm15.3-20.9c1.2 2 3.8 2.8 6.1 1.5 2-1.2 2.8-3.9 1.5-5.9-1.2-2-3.8-2.8-6.1-1.5-2.1 1-2.8 3.6-1.5 5.9zm6.8 11.8c1.2 2 3.8 2.8 6.1 1.5 2-1.2 2.8-3.9 1.5-5.9-1.2-2-3.8-2.8-6.1-1.5-2 1.2-2.8 3.8-1.5 5.9zm73-30.6c1.5 2.6 5 3.6 7.7 2 2.8-1.5 3.5-5 2-7.6-1.5-2.6-5-3.6-7.7-2-2.6 1.5-3.5 5-2 7.6zm87.8 150.2c1.2 2 3.8 2.8 6.1 1.5 2-1.2 2.8-3.9 1.5-5.9-1.3-2-3.8-2.8-6.1-1.5-2 1.1-2.7 3.8-1.5 5.9zm-325.8 150.8c1.2 2 3.8 2.8 6.1 1.5 2.1-1.2 2.8-3.9 1.5-5.9-1.3-2-3.8-2.8-6.1-1.5-2.1 1-2.7 3.9-1.5 5.9zm15.7 62.3c1.1 1.8 3.2 2.4 5.1 1.4 1.8-1.1 2.4-3.2 1.4-5.1-1.1-1.8-3.2-2.4-5.1-1.4-1.9 1-2.3 3.3-1.4 5.1zm-91.7 43.2c1.1 1.8 3.2 2.4 5.1 1.4 1.8-1.1 2.4-3.2 1.4-5.1-1.1-1.8-3.2-2.4-5.1-1.4-1.8.8-2.4 3.2-1.4 5.1zm-30.7-33.6c1.2 2 3.8 2.8 6.1 1.5 2.1-1.2 2.8-3.9 1.5-5.9-1.2-2-3.8-2.8-6.1-1.5-2 1.2-2.7 3.9-1.5 5.9zm6.4 44c1.2 2 3.8 2.8 6.1 1.5 2-1.2 2.8-3.9 1.5-5.9-1.3-2-3.8-2.8-6.1-1.5-1.9 1.1-2.7 3.7-1.5 5.9zm-68.6 28.1c.9 1.5 2.8 2 4.3 1.1 1.5-.9 2-2.8 1.1-4.2-.9-1.5-2.8-2-4.3-1.1-1.4.7-1.9 2.8-1.1 4.2zm51.2 34c.5.9 1.7 1.2 2.6.6.9-.6 1.2-1.7.6-2.4-.5-.9-1.7-1.2-2.6-.6-.7.3-1.1 1.5-.6 2.4zm70.2-20.5c1.2 2 3.8 2.8 6.1 1.5 2-1.2 2.8-3.9 1.5-5.9-1.3-2-3.8-2.8-6.1-1.5-2 1.1-2.7 3.8-1.5 5.9zm94.8-10.3c1.2 2 3.8 2.8 6.1 1.5 2-1.2 2.8-3.9 1.5-5.9s-3.8-2.8-6.1-1.5c-2.1 1.2-2.7 3.9-1.5 5.9zm-35-25.9c.9 1.5 2.8 2 4.3 1.1 1.5-.9 2-2.8 1.1-4.2-.9-1.5-2.8-2-4.3-1.1-1.4.8-2 2.8-1.1 4.2zm56.8-31.3c1.2 2 3.8 2.8 6.1 1.5 2-1.2 2.8-3.9 1.5-5.9-1.2-2-3.8-2.8-6.1-1.5-2.1 1-2.9 3.8-1.5 5.9zm19.3 43.5c1.2 2 3.8 2.8 6.1 1.5 2-1.2 2.8-3.9 1.5-5.9s-3.8-2.8-6.1-1.5c-2.1 1.2-2.8 4-1.5 5.9zm-24.3 70.5c1.5 2.6 5 3.6 7.7 2 2.6-1.5 3.5-5 2-7.6-1.5-2.6-5-3.6-7.7-2-2.6 1.5-3.6 4.9-2 7.6zm-46.9 45.9c1.2 2 3.8 2.8 6.1 1.5s2.8-3.9 1.5-5.9c-1.2-2-3.8-2.8-6.1-1.5-2 1.1-2.7 3.7-1.5 5.9zm-27.5-15.1c1.4 2.3 4.4 3.2 6.8 1.8 2.3-1.4 3.2-4.5 1.8-6.8-1.4-2.3-4.4-3.2-6.8-1.8-2.3 1.3-3.2 4.4-1.8 6.8zm-41.1 5.8c1.2 2 3.8 2.8 6.1 1.5 2-1.2 2.8-3.9 1.5-5.9-1.2-2-3.8-2.8-6.1-1.5-2.1 1.1-2.8 3.7-1.5 5.9zm9.3 33.5c1.2 2 3.8 2.8 6.1 1.5 2-1.2 2.8-3.9 1.5-5.9-1.2-2-3.8-2.8-6.1-1.5s-2.8 3.9-1.5 5.9zm-47.8-5.3c1.2 2 3.8 2.8 6.1 1.5 2.1-1.2 2.8-3.9 1.5-5.9-1.2-2-3.8-2.8-6.1-1.5-2.1 1-2.7 3.6-1.5 5.9zm-54.8-10.3c1.2 2 3.8 2.8 6.1 1.5 2-1.2 2.8-3.9 1.5-5.9-1.2-2-3.8-2.8-6.1-1.5-2 1.2-2.6 3.9-1.5 5.9zm16.3-64.2c1.2 2 3.8 2.8 6.1 1.5 2-1.2 2.8-3.9 1.5-5.9-1.2-2-3.8-2.8-6.1-1.5-2.1 1.1-2.7 3.7-1.5 5.9zm-68.2-18.3c1.2 2 3.8 2.8 6.1 1.5 2-1.2 2.8-3.9 1.5-5.9-1.2-2-3.8-2.8-6.1-1.5-2 1.1-2.6 3.7-1.5 5.9zm20.8-100.5c1.7 2.9 5.6 4.1 8.5 2.3 2.9-1.7 4-5.6 2.3-8.5-1.7-2.9-5.6-4.1-8.5-2.3-2.9 1.7-4.1 5.5-2.3 8.5zm30.1-21.3c1.2 2 3.8 2.8 6.1 1.5 2-1.2 2.8-3.9 1.5-5.9-1.2-2-3.8-2.8-6.1-1.5-2.1 1.1-2.7 3.7-1.5 5.9zm17.3 30.3c1.2 2 3.8 2.8 6.1 1.5 2-1.2 2.8-3.9 1.5-5.9-1.3-2-3.8-2.8-6.1-1.5-2.1 1.2-2.7 3.9-1.5 5.9zm27.8-59.3c1.2 2 3.8 2.8 6.1 1.5 2.1-1.2 2.8-3.9 1.5-5.9-1.3-2-3.8-2.8-6.1-1.5-2.1 1-2.7 3.7-1.5 5.9zm34.7 10.3c1.5 2.6 5 3.6 7.8 2 2.8-1.5 3.5-5 2-7.6s-5-3.6-7.8-2c-2.8 1.5-3.5 4.7-2 7.6zm49-74.8c1.2 2 3.8 2.8 6.1 1.5 2-1.2 2.8-3.9 1.5-5.9-1.3-2-3.8-2.8-6.1-1.5-2.1 1.3-2.6 3.7-1.5 5.9zm22.5 11.5c.9 1.5 2.8 2 4.3 1.1 1.5-.9 2-2.8 1.1-4.2-.9-1.5-2.8-2-4.3-1.1-1.5.8-2 2.8-1.1 4.2zm16.3 215.7c1.2 2 3.8 2.8 6.1 1.5 2-1.2 2.8-3.9 1.5-5.9-1.2-2-3.8-2.8-6.1-1.5-2 1.3-2.7 3.9-1.5 5.9zm104.6 4.4c1.2 2 3.8 2.8 6.1 1.5 2-1.2 2.8-3.9 1.5-5.9-1.2-2-3.8-2.8-6.1-1.5-2.2 1.3-2.7 3.9-1.5 5.9zm-29.2 34.3c1.2 2 3.8 2.8 6.1 1.5 2-1.2 2.8-3.9 1.5-5.9-1.2-2-3.8-2.8-6.1-1.5-2.2 1.3-2.8 3.8-1.5 5.9z"/></g></svg>