<svg xmlns="http://www.w3.org/2000/svg" viewBox="0 0 400.1 792.5" enable-background="new 0 0 400.1 792.5"><path d="M0 0h400v792h-400z" fill="none"/><path fill="#231F20" d="M1 0h399v399h-399z"/><path fill="#FFAB4C" d="M1.1 398.6h399v393.9h-399z"/><path d="M105 163h180v69h-180z" fill="none"/><text transform="translate(105.004 221.575)"><tspan x="0" y="0" fill="#fff" font-family="'Futura-Medium'" font-size="71">Flash</tspan></text><path fill="#231F20" d="M114.9 426.7h185.9v42.3h-185.9zm143.1 130.8c0 .2-.1.5-.2.7-2.2 4.3-23.4 7.7-49.3 7.7-27.3 0-49.5-3.8-49.5-8.5 0-.2 0-.4.1-.5 1.6-4.4 23.1-7.9 49.4-7.9 27.3.1 49.5 3.9 49.5 8.5z"/><path stroke="#fff" stroke-width="4" stroke-miterlimit="10" d="M185.2 473.5"/><path fill="#231F20" d="M252.9 470.9l-1 83.5s-17.4 9.5-43.3 7.7c0 0-40.1-.2-43.4-8.5l-.9-85.5 89.5-.5"/><circle fill="#fff" cx="274.2" cy="446.5" r="11.7"/><path fill="#fff" d="M140.6 467.1l3.7-15.5 4.9 14.9 5.6 3.1-6.5 2.8-3.7 13.6-4.6-13.6-9.6-4.4zm18.5 89.9l-159.1 235 400.1.5-142.1-235s-2.5 8.6-49.5 8.5c0 0-50.1-.3-49.4-9z"/></svg>