<svg xmlns="http://www.w3.org/2000/svg" viewBox="0 0 462 106.3" enable-background="new 0 0 462 106.3"><style type="text/css">.st0{fill:#FF5F00;}</style><path class="st0" d="M16.2 105.7l-13.2-1v-2.2l7.9-10.8s-8.1-6.7-10.8-14.5c0 0 1.6-7.4 23.1-17.6 0 0 35.4-16.5 50.9-20.7 0 0 11.3-2.9 29.9-3.4 0 0 58.4-21.9 81.3-27.6v-1.3s42.7-11.3 103.8-4.3c0 0 75.7 7.8 108.9 13.3l50.4 8.8 9.5 1.5v2.1l-1.5.2s-3.3 9.3-6.3 13c0 0 2.8 1.2-.2 3.5l-.3 9.8.8 1.2s.6.4.5 1.8l9.6.1v2.3s5.4 1.4-3.1 9.8l.2 9.9-5.9.8-11.1 10-3.4.3-1.2 1.4-6.9.1s-4.7 3.7-15.8 3.1l1.9-12.6.2-14.6s-8-21.1-14.2-24.4c0 0-20-12.3-45.4-1 0 0-7.6 3.6-10.7 7.5 0 0-8.9 12.1-10.7 31.7l6.4 20.1-131.8 2-76.3 1.1s3.2-10.8 3.2-12.5c0-1.6-1.6-26.1-11.1-36.9 0 0-19-18.7-47.4-2.7 0 0-15.5 8.8-16 31.5l.4 9.9 3.5 12.1-49.1-.8z"/></svg>