<svg xmlns="http://www.w3.org/2000/svg" viewBox="0 0 179.8 179.7" enable-background="new 0 0 179.8 179.7"><style type="text/css">.st0{fill:#FFDA00;} .st1{fill:#FFFFFF;}</style><path class="st0" d="M99.9 83.7c.1.2.2.4.2.6 0-.2-.1-.4-.2-.6zm-1.4-1.8zM176.8 68.5c-1.7-7.6-4.9-14.6-8.3-21.6-3.3-7-8.7-12.5-13.4-18.3-2.9-3.6-7-6.2-10.7-9.2-8.9-7.3-19.2-12-29.9-15.8-4.2-1.5-8.8-2-13.3-2.7-14.7-2.2-29-.5-42.9 4.6-35.6 13.2-58.4 46.9-58.6 85.3.1 2.3.2 5.6.6 8.8 2.8 22.8 12.6 42.1 29.9 57.3 16.3 14.4 35.3 22 57 22.6 16.8.5 32.7-3.5 47.2-12.2 28.8-17.2 43.5-42.8 45-76.1.3-7.6-.9-15.2-2.6-22.7zm-71.6-7.8l1.8-35.7c0-.6.2-1.3.4-2.3 16.6 4.6 29.5 13.8 39.3 27.7-.7.5-1.3.9-2 1.2l-29.4 17.1c-4.4 2.6-6 2.4-9.8-.8-1.3-1.1-2.5-2.3-3.9-3.6 3.5-.3 3.5-.3 3.6-3.6zm-14.7 11.5c8.9 0 16 7.2 16 16 0 8.9-7.2 16-16 16s-16-7.2-16-16 7.2-16 16-16zm-20.8-49.1c1 4.7 2 9.3 3 13.9l4.8 22.7c.7 3.2 0 5.7-3 7.4-1.8 1-3.6 2.1-5.3 3.2-.1-.1-.2-.2-.4-.3.3-.9.7-1.7 1.1-2.8-12.9-5-25.7-9.9-38.9-15 9.6-14.5 22.4-24 38.7-29.1zm-7.8 78.3l-2.1 3.3-1.5 1.5c-2.2 2.7-4.5 5.3-6.8 8l-14 17.2c-.5.7-1.2 1.3-2 2.2-10.5-13.4-15.6-28.4-15.4-45.6 4.2.4 8.3.9 12.3 1.3 7.8.8 15.6 1.7 23.3 2.5 5.4.5 6.6 1.5 7.9 6.8l1.1 5c-1.1-.8-1.8-1.3-2.8-2.2zm4.7 53.6c.3-.7.5-1.4.8-2l13.8-31c1.9-4.3 3.4-5.2 8-4.8 1.8.1 3.5.3 5.7.6-1.2.8-1.9 1.3-2.9 2 7.5 11.5 15 22.9 22.4 34.3-10.7 6-34 7-47.8.9zm78.2-23.2c-.6-.4-1.1-.8-1.6-1.2l-25.5-22.8c-3.7-3.3-4.1-4.8-2.2-9.4.6-1.6 1.4-3.1 2.3-5.3.4 1.5.6 2.3.9 3.5 6.8-1.8 13.4-3.6 20-5.5 6.6-1.8 13.2-3.6 20.1-5.5.9 17.4-3.9 32.5-14 46.2z"/><path class="st1" d="M98.5 81.9zM98.5 82zM100.1 84.3c0-.2-.1-.4-.2-.6.1.2.2.4.2.6zM98.5 82zM100.1 84.3c0-.2-.1-.4-.2-.6.1.2.2.4.2.6z"/></svg>