<svg xmlns="http://www.w3.org/2000/svg" viewBox="105.6 0 400.7 792" enable-background="new 105.6 0 400.7 792"><path fill="#231F20" d="M105.6 0h400.7v399.2h-400.7z"/><path fill="#FFAB4C" d="M106.1 398.3h400.2v393.7h-400.2z"/><path fill="none" d="M179.1 137.4h255.3v157.4h-255.3z"/><text transform="translate(194.983 195.951)" fill="#fff" font-family="'Futura-Medium'" font-size="70.955">Shutter</text><text transform="translate(204.277 281.098)" fill="#fff" font-family="'Futura-Medium'" font-size="70.955">Speed</text><g><path fill="#fff" d="M309.2 670.1v1c.1 1 .8 1.6 1.7 1.2.5-.2 1-1.2 1-1.7-.1-1-1-1.2-1.9-.9-.3.1-.6.3-.8.4 2.3-3.9 4.7-7.8 6.9-11.4 1-.4 1.8-.7 2.7-1-.4-.8-.7-1.6-1.3-2.9 1.5-3.4 3.3-7.5 5.1-11.6.5 1.1 1.1 2.1 2.4 1.3.4-.2.8-1.2.6-1.6-.4-1.3-1.5-1.1-2.9-.4 1.2-2.5 2.2-4.5 3.3-6.6 1.9 2 3.7 3.8 5.1 5.4-.5.9-1 1.6-1.2 2.3-.1.3.7 1.1 1 1 .8-.2 1.5-.7 2-1 1.6 1.5 3.5 3.1 5.1 4.5-.5.8-1.1 1.4-1.2 2.1-.1.3.6 1.2.9 1.1.8-.1 1.5-.5 2.5-.9 1.4 1.5 3 3.2 4.4 4.6-.4.9-.8 1.5-.9 2.2 0 .3.6 1 .9 1 .7-.1 1.4-.6 1.9-.7 1.7.6 3.3 1.1 4.9 1.7l1.2.6c3.5 2.8 5.9 6.4 7.9 10.4-.2-.2-.5-.6-.7-.6-.7 0-1.4.2-2.1.4l.6 2c.6-.2 1.3-.3 1.9-.7.2-.1.2-.7.3-1.1.1.2.3.4.4.7 1.4 3.8 2.9 7.6 4.2 11.5.1.3-.2.8-.2 1.3 0 .6 0 1.8.2 1.8 2.3.5 2.1 2.5 2.6 4.1l4.1 13.4c.1.3.1.7 0 1-.1.7-.4 1.6-.1 2 .3.5 1.3.5 2 .7 4.2 5.6 8.6 11.4 13 17.3-1.2.6-2.2 1.2-1.5 2.4.8 1.5 1.9.6 3 0 1.4 2.5 2.7 4.9 4.1 7.3l6.1 10.4c.3.5.3 1.1.5 1.7.2.7.4 1.5.9 2 .5.7.8.9.2 1.9-.7 1.1-.8 2.5-1.1 3.8-.1.2.1.6.3.7 1.8 1 1.4 2.9 1.8 4.1-.8.5-1.6.9-2 1.4-.2.2.1 1.3.3 1.4.8.2 1.6.2 2.5.2.7 1.5 1.3 3.3 2.2 5 1.9 3.4 4.7 4.5 8.4 3.1 1.8-.7 3.6-1.8 5.4-2.4 5.8-2 11.7-3.8 17.6-5.8 1.4-.5 2.9-1.1 3.8-2.1 4.6-4.8 8.1-10.3 9.9-16.8.7-2.6 1-5.3-.3-7.9-1.1-2.2-2.1-2.7-4.5-2.5-.6 0-1.3-.3-1.9-.4-.5-.1-1.2-.3-1.5-.1-.4.3-.6.9-.8 1.5-.1.3.1.7-.1.9-1.3 1.4-2.4 3.4-4 4.1-1.6.7-2.5.8-3 2.9-.5 2.1-5.9 3.8-8.1 2.9-3.2-1.3-6.2-3-9.3-4.6-.8-.4-1.7-.8-2.6-1.1l-.3.4c-1.2-3-2.4-6-3.5-9.1-3.5-9.7-6.6-19.6-10.5-29.2-5.1-12.8-10.8-25.3-16.2-38-.5-1.1-.6-2.3-.9-3.5-.3-1.4-.4-2.9-1-4.1-1.7-3.7-3.3-7.4-4.5-11.3-1.4-4.4-3.5-8.5-5.5-12.7-6.3-13.2-14.3-25.3-23.2-36.9-1-1.3-2-2.5-2.8-3.9-.6-1.1-1-2.3.1-3.5.6-.6 1.2-1.3 1.5-2.1.6-1.7 1-3.5 1.4-5.3l2.4-11.8c.3-1.6 1-3 3-3.3.7-.1 1.3-.8 2.1-1 .8-.3 1.7-.7 2.5-.6 3.4.4 6.4-.2 9.5-2.3 8.1-5.5 15.9-11.3 23.2-17.8 3.4-3.1 7.3-5.7 11-8.5 1.1-.9 2.3-1.2 3.8-1.2 1.2 0 2.6-.3 3.6-1 3.1-2.1 6-4.4 9-6.7 1.3-1 1.2-2.1.2-3.3-.9-1.2-1.8-2.3-2.4-3.6-1.5-3.6-3.9-5.9-7.9-6.4-1.2-.2-1.7.4-1.8 1.5 0 .5-.1 1.1-.3 1.4-.7 1-1.4 2-2.4 2.8-.6.5-1.5.9-2.4 1-1.1.1-1.5.6-1.8 1.7-.4 1.3-1.2 2.5-2.1 3.5-1.4 1.7-3.8 1.9-5.5 3.5-2.8 2.6-6.5 4.3-9.8 6.4v-.5c-.8-.2-1.8-.8-2.3-.5-.5.3-.7 1.4-1 2.1l.4.3c-3.2 1.3-6.4 2.5-9.7 3.7-.9.3-1.9.3-2.8.5-.5.1-1.3.4-1.3.7-.3 1.6-1.6 1.9-2.5 2.5l-2-6.5c-.1-.4-.2-1 0-1.4.5-1 .1-1.6-.8-2.2-.4-.3-.8-.8-.9-1.3-.1-.9 0-1.9 0-2.8.8-.4 1.5-.9 1.6-1.5 0-.5-.8-1-1.3-1.5-2.3-10.1-6.8-19.6-10.8-29.7 1-.8 2.1-2.2 3.6-2.9 2-.9 3.5-2 4.4-3.9.6-1.3 1.5-1.6 2.9-1.5 2.5.2 5.1.2 7.4-1 1-.5 1.9-1.3 1.5-2.4-.5-1.6-.4-2.9.8-4 .2-.2.1-.7.1-1.1 0-.3.1-.7.2-1 .3-.8.8-1.7.8-2.5 0-1.1.3-1.5 1.4-1.5 1.6 0 2-.6 1.4-2.1-.5-1.2-1-2.4-1.6-3.6-.8-1.7-1.1-3.4-.5-5.3.2-.7.2-1.6.1-2.4-.2-2.2-.5-4.4-.9-6.5-.3-1.9-.9-3.7-1.4-5.5-.1-.4-.2-.8-.2-1.2.4-2.6-.6-4.7-2.5-6.5-5.8-5.7-16.5-7.6-24.6-4.3-.6.2-1.4.2-2.1 0-1.1-.3-2 0-1.9 1 .1 1.4-.8 1.9-1.6 2.6-.7.8-1.4 1.6-2.2 2.3-.5.4-1.1.8-1.7.8-1.4.1-2.2 1.1-1.3 2.2.7.8.3 1.4 0 2-1.9 4.3-2.4 8.9-2.2 13.3.5.4 1 .6 1.1.9l1.7 8.6c-2 2.2 0 3.2 1.4 4.3h.2c.2-1.1.4-2.2.5-3.3h.5c.1.6.2 1.3.2 1.9 0 .8-.4 1.8-.1 2.2 1.1 1.4 0 2.1-.3 2.5-1.2 0-2.3-.3-2.8.1s-.3 1.6-.4 2.4c.2.1.3.2.5.4-1.3.5-2.6 1.3-3.9 1.4-5.2.6-10.3 1.6-14.4 5.1-2.3 1.9-4.4 4-6.2 5.7-.9-.6-1.6-1.2-2.3-1.5-.2-.1-1.1.7-1.1.9.1.8.6 1.5 1 2.4-1.5 1.2-3.3 2.7-5 4.2l-.1-.5c-.8 0-1.9-.3-2.3.1-.5.5-.4 1.5-.5 2.4-1 1.3-2.4 2.6-3.9 3.8-.3.3-.9.4-1.3.4-1.3-.1-1.8.5-1.9 1.7 0 .4-.2.9-.5 1.2-1.2 1.4-2.5 2.8-3.8 4.2-1.7-.5-3 .1-2.5 1.3.5 1.3-.1 1.8-.8 2.4-1.2 1.1-2.3 2.2-3.4 3.3l-.1-.4c-.8.1-1.8 0-2.2.4-.9.8.1 1.5.4 2.3.5 1.2.4 2.8 0 4-.2.7-1.3 1.4-.6 2.2.5.5 1.5.5 2.6.9 1.7 5.5 3.5 11.5 5.4 17.5-.8.2-2 .8-1.2 2.2.7 1.4 1.8.6 2.9-.1 1.9 3.9 3.8 7.7 5.8 11.5-1.3.3-2.4.8-1.8 2.2.6 1.5 1.7.9 2.8.4 1.2 3.3 2.7 6.4 2.1 10-.7 4.2.2 8 2.1 11.6l1.4 3.1c-1.9 1.3-2 1.5-1.4 2.6-.8 2.7-1.9 5-2.2 7.3-.4 3.7-.2 7.5-.5 11.2-.2 2.5-.8 5-1.1 7.1-1.3 0-2.1-.1-2.8.1-.3.1-.6 1.2-.4 1.4.5.6 1.3 1 2.2 1.6-.4.9-1 2.3-1.5 3.6-.3.7-.5 1.4-.6 2.1-.1.5-.1 1-.2 1.4l-4.7 15.8c-.2.5-.7 1-1.2 1.2-1 .6-1.4 1.5-.5 2.3.8.8.7 1.4.5 2.3-.5 2.9-1 5.7-1.6 8.6-.3 1.4-.5 2.8.6 4.1.2.2.1.7 0 1.1-.3 1.4-.6 2.8-.8 4.2-.2 1.1-.1 2.8-.8 3.2-.8.5-2.3-.2-3.4-.4h-.3c-7.7-1.3-15.3-.2-22.8 1.5-1.6.4-3.1 1.4-4.8.6-.2-.1-.6.1-.9.3-1.5.8-2.9 1.6-4.1 2.3-.6-1.1-.9-1.9-1.5-2.4-.2-.2-1.5.3-1.6.6-.1.8.2 1.6.4 2.5-3.2 1.1-6.6 2.4-10.1 3.6-.8.3-1.7 0-2.5.2-.6.1-1.1.4-1.6.8-.3.2-.4.7-.7.8l-4.4 1.4.6-.6c.7-.9.6-1.8-.4-2.2-.5-.2-1.6.1-1.9.6-.6.9-.1 1.7.9 2 .3.1.5.1.8.1-3.5 1-7 2-10.7 3-.4-1.9-1.5-2.1-2.8-2.2-2.2-.2-4.3-.6-6.4-.9l.4-.5c-.4-.7-.6-2-1.1-2.1-.6-.2-1.6.5-2.3.8-1.6-.3-3.2-1.2-4.9-1.9-4.5-1.7-8.8.7-9.6 5.4-.5 3-1 6-1.4 9-.4 2.5-.8 5-1.2 7.1-1.2.2-2 .3-2.7.6-.2.1-.4 1.2-.1 1.4.6.5 1.4.7 2.3 1 0 .1 0 .5-.1.8-.4 1.2.2 3-1.9 3.4-.2 0-.4 1.7-.2 1.9 1.4.7.9 1.8.7 2.9-.3 1.8-.9 3.5-1.1 5.5-.2 3.4-1.1 6.9-1.9 10.2-.7 2.8.3 4.9 2.4 6.8-.7.9-1 2 .3 2.6 1.5.7 1.9-.5 2.2-1.6 1.9.2 2.9-.8 3.6-2.4 1-2.4 2.1-4.7 3.2-7.1 4.1-9.1 9.2-17.2 19.3-20.8.6-.2 1.4-1.2 1.4-1.8-.2-2.2 1.3-2.6 2.8-2.8 4.3-.7 8.7-1.4 13.1-1.9 7.8-.9 15.6-1.8 23.3-2.5 2.3-.2 4.6-1.5 7-.2.3.2 1 0 1.2-.3 1.1-1.6 2.8-1.1 4.2-1.2.6.7 1.5 1.6 1.8 1.5.8-.4 1.2-1.3 2.1-2.4 1-.1 2.6-.3 4.6-.6-1.2 1-1.7 1.9-.7 2.7.4.3 1.3 0 1.9 0 0-.9 0-1.8-.1-3 2.3-.1 5.1-.1 7.9-.3 2.4-.1 4.8-.4 7.2-.6.7-.1 1.5-.2 2.1 0 4 1 7.5-.2 10.4-2.8 2.5-2.2 4.7-4.9 6.9-7.4.2-.2.2-.5.2-.8.6-2.8 1.6-5.5 4-7.6zm-32.9-24.6c.7-1 1.4-1.6 1.3-2.1-.1-.5-.9-1.2-1.5-1.3-.4-.1-1.2.8-1.2 1.3 0 .6.7 1.1 1.4 2.1zm-61.7 30.3c-.7 1-1.5 1.5-1.5 2s.8 1.3 1.3 1.4c.4.1 1.3-.7 1.4-1.2.1-.6-.6-1.2-1.2-2.2zm118.7-238.4c-1-.7-1.5-1.5-2.1-1.5-.5 0-1.4.8-1.3 1.2 0 .6.7 1.4 1.2 1.5.5.2 1.1-.5 2.2-1.2zm-61.8 82.5c-1-.7-1.6-1.4-2.1-1.4s-1.4.8-1.3 1.2c.1.6.8 1.3 1.3 1.4.4.1 1-.6 2.1-1.2zm123.5-.1c-1-.7-1.6-1.4-2.1-1.3-.5 0-1.4.9-1.3 1.3.1.5.8 1.3 1.3 1.4.5 0 1.1-.7 2.1-1.4zm25.3 221.9c.7-1 1.5-1.6 1.5-2.1s-.8-1.2-1.4-1.3c-.3-.1-1.2.8-1.3 1.2 0 .6.6 1.2 1.2 2.2zm-61.7-66c-.6 1.1-1.2 1.7-1.2 2.2 0 .5 1 1.3 1.3 1.2.6-.2 1.3-.8 1.4-1.4 0-.4-.8-1-1.5-2zm27.4 55c-.6 1-1.3 1.6-1.3 2.2 0 .5.9 1.3 1.3 1.3.6-.1 1.4-.8 1.4-1.3.1-.7-.7-1.3-1.4-2.2zm-73.3-245.1c-1-.7-1.6-1.5-2.1-1.5s-1.2.8-1.3 1.4c-.1.4.7 1.2 1.2 1.3.5 0 1.1-.6 2.2-1.2zm18.5 162.7c-.7 1-1.3 1.6-1.3 2.1s.9 1.4 1.3 1.3c.6-.1 1.4-.8 1.4-1.3s-.7-1.1-1.4-2.1zm-6.9-181.4c.7-1 1.4-1.6 1.3-2.1-.1-.5-.9-1.2-1.4-1.3-.4-.1-1.2.8-1.2 1.3 0 .6.6 1.1 1.3 2.1zm0-20.6c.7-1 1.4-1.5 1.4-2.1 0-.4-.8-1.3-1.2-1.3-.6.1-1.4.7-1.5 1.2-.1.6.6 1.2 1.3 2.2zm-54.9 82.5c.6-1 1.3-1.6 1.3-2.1s-.9-1.4-1.3-1.3c-.6.1-1.4.8-1.4 1.4-.1.4.7 1 1.4 2zm6.7 126.4c-.7 1-1.3 1.6-1.3 2.2 0 .5.9 1.3 1.3 1.2.5-.1 1.3-.8 1.4-1.3.1-.6-.6-1.2-1.4-2.1zm108-128.6c1 .7 1.5 1.4 2.1 1.4.5 0 1.4-.8 1.4-1.2-.1-.6-.7-1.4-1.3-1.5-.7 0-1.2.7-2.2 1.3zm-105.8 123.6c-1-.6-1.7-1.2-2.2-1.2s-1.3.9-1.2 1.3c.1.6.8 1.3 1.4 1.4.5 0 1-.7 2-1.5zm-70.7 25.6c-.7 1-1.4 1.6-1.4 2.1.1.5.8 1.2 1.4 1.3.4.1 1.3-.8 1.3-1.3.1-.5-.6-1.1-1.3-2.1zm82.3-68.8c-.7 1-1.4 1.7-1.3 2.2.1.5.9 1.2 1.5 1.3.3.1 1.2-.8 1.2-1.3 0-.6-.7-1.2-1.4-2.2zm2.2-11.7c-1-.7-1.7-1.4-2.1-1.3-.5.1-1.2.9-1.3 1.4-.1.4.8 1.2 1.3 1.2.5.1 1-.6 2.1-1.3zm-.1-13.8c-1-.6-1.7-1.4-2.2-1.2-.5.1-1.2.9-1.3 1.5-.1.3.9 1.2 1.4 1.2.6-.1 1.1-.8 2.1-1.5zm66.7 101.1c-.7 1-1.4 1.5-1.4 2.1 0 .5.8 1.4 1.2 1.3.6-.1 1.4-.7 1.5-1.2.1-.5-.6-1.1-1.3-2.2zm-82.4 11.1c.6-1 1.3-1.6 1.2-2.2 0-.5-.9-1.3-1.3-1.2-.6.1-1.3.8-1.4 1.4 0 .4.8 1 1.5 2zm87.2 11.6c1 .7 1.6 1.4 2.1 1.4.5-.1 1.2-.9 1.3-1.5.1-.3-.8-1.2-1.3-1.2s-1.1.7-2.1 1.3zm72.7 27.5c-1-.7-1.6-1.5-2.1-1.4-.5.1-1.2.9-1.3 1.5-.1.3.8 1.2 1.3 1.2.6 0 1.1-.7 2.1-1.3zm-54.8-7c-1-.7-1.6-1.4-2-1.3-.6.2-1 .9-1.5 1.4.5.4.9 1.2 1.4 1.2.5.1 1.1-.6 2.1-1.3zm-55-267.9c-1-.6-1.6-1.3-2.2-1.2-.5 0-1.3 1-1.3 1.3.2.6.9 1.3 1.4 1.4.6 0 1.1-.8 2.1-1.5zm-89.3 213.1c-1-.7-1.5-1.4-2-1.3-.6.1-1 .8-1.5 1.3.4.5.9 1.3 1.3 1.3.6.1 1.1-.6 2.2-1.3zm151 68.6c-1-.6-1.6-1.3-2-1.2-.6.1-1 .9-1.4 1.4.5.4.9 1.2 1.4 1.2.5-.1 1.1-.8 2-1.4zm-111.9-197.1c.7-1 1.5-1.6 1.4-2.1-.1-.5-.9-1.2-1.4-1.3-.4-.1-1.2.8-1.3 1.3 0 .6.6 1.1 1.3 2.1zm15.4 32.5v-.7c-.6-.3-1.2-1-1.6-1-.5.1-1 .9-1.4 1.4.5.4.9 1.2 1.4 1.2.5.2 1-.5 1.6-.9zm101.3 166.7c.7-1 1.5-1.6 1.4-2.1-.1-.5-.8-1.2-1.4-1.3-.4-.1-1.3.8-1.3 1.2 0 .6.6 1.2 1.3 2.2zm-212.9-52.2c-.6 1-1.3 1.7-1.2 2.2.1.5.9 1.1 1.5 1.2.4 0 1.2-.9 1.2-1.3-.1-.6-.8-1.1-1.5-2.1zm91.4-25.3c-.9-.7-1.4-1.4-1.9-1.4-.6.1-1.1.8-1.6 1.2.5.5.9 1.3 1.4 1.4s1.1-.6 2.1-1.2zm96.3-130.6c-1-.7-1.6-1.3-2.1-1.3-.4 0-1.3.9-1.3 1.2.1.6.8 1.4 1.3 1.4.5.1 1.1-.7 2.1-1.3zm-75.7-34.4c-1-.7-1.6-1.3-2.1-1.3s-1.4.9-1.3 1.2c.1.6.8 1.4 1.3 1.5.5 0 1.1-.7 2.1-1.4zm73.6 190.3c-.7 1-1.3 1.5-1.4 2.1 0 .5.8 1.3 1.2 1.3.6-.1 1.4-.7 1.5-1.2.1-.5-.6-1.1-1.3-2.2zm-41.2-236.4c.6-1 1.3-1.7 1.2-2.2s-.9-1.1-1.5-1.2c-.4 0-1.2.9-1.2 1.3.1.7.8 1.2 1.5 2.1zm43.3 245.3c-1-.7-1.7-1.4-2.2-1.3-.5.1-1.2.9-1.2 1.4-.1.4.8 1.2 1.3 1.2.5.1 1.1-.6 2.1-1.3zm-89.4-164.9c-1-.6-1.6-1.4-2.2-1.3-.5.1-1.2.9-1.3 1.4 0 .4.9 1.2 1.3 1.2.7.1 1.2-.6 2.2-1.3zm101-8.8c-.7.9-1.4 1.5-1.3 1.9.1.6.8 1.1 1.3 1.6.5-.5 1.3-.9 1.4-1.4 0-.6-.7-1.2-1.4-2.1zm-55-51c.6-.9 1.3-1.5 1.3-2.1 0-.5-.9-1.3-1.3-1.3-.6.1-1.3.8-1.4 1.4 0 .5.8 1.1 1.4 2zm-27.4 20.7c.6-1 1.3-1.6 1.2-2.1s-.9-1.2-1.5-1.2c-.4 0-1.2.9-1.2 1.3.1.5.8 1 1.5 2zm-7 96.2c.7-1 1.4-1.5 1.4-2.1 0-.5-.8-1.4-1.1-1.4-.6.1-1.4.7-1.5 1.2-.2.6.5 1.2 1.2 2.3zm111.9-77.5c-.8-.7-1.4-1.5-1.8-1.4-.6.1-1.1.8-1.6 1.2.5.5.9 1.2 1.5 1.4.3.1 1-.6 1.9-1.2zm-118.8 104.9c.7-.9 1.4-1.4 1.3-1.9-.1-.6-.8-1-1.3-1.5-.5.5-1.2.9-1.3 1.5 0 .4.7 1 1.3 1.9zm-4.6 46.2c-1-.7-1.6-1.4-2.1-1.4s-1 .7-1.4 1.2c.4.5.8 1.4 1.3 1.4.4.1 1.1-.6 2.2-1.2zm75.5 0c-.9-.7-1.4-1.5-1.9-1.4-.6.1-1.1.8-1.6 1.2.4.5.8 1.3 1.3 1.4.5.1 1.1-.6 2.2-1.2zm-75.6-27.4c-1-.8-1.5-1.5-2.1-1.5-.5 0-1.3.7-1.3 1.2-.1.4.7 1.3 1.1 1.4.6.1 1.2-.5 2.3-1.1zm121.5 128.2c-.7 1-1.4 1.6-1.3 2.1.1.5.8 1.2 1.4 1.3.3.1 1.2-.8 1.2-1.3s-.6-1.1-1.3-2.1zm-114.7-128.3c-.9-.7-1.5-1.5-1.9-1.4-.6.1-1.3.8-1.4 1.4-.1.3.8 1.3 1.2 1.3.5 0 1.1-.7 2.1-1.3zm-109.8 89.2c-.9-.7-1.5-1.4-1.9-1.3-.6.1-1 .8-1.6 1.3.5.5.9 1.3 1.4 1.4.5 0 1.1-.8 2.1-1.4zm107.7-169.7c.7-1 1.4-1.6 1.4-2.1-.1-.5-.8-1-1.3-1.5-.5.4-1.3.9-1.3 1.3-.1.6.6 1.2 1.2 2.3zm-107.7 155.9c-1-.6-1.7-1.3-2.1-1.2-.5.1-1.2.9-1.3 1.4 0 .4.9 1.2 1.3 1.2.6 0 1.1-.7 2.1-1.4zm101-166.8c-.7 1-1.4 1.5-1.4 2.1 0 .5.8 1.3 1.3 1.3s1.4-.7 1.4-1.2c0-.6-.7-1.2-1.3-2.2zm15.3 146.7v-.7c-.6-.4-1.1-1-1.7-1-.5 0-1.2.8-1.2 1.3 0 .4.7 1.2 1.2 1.2.5.1 1.1-.5 1.7-.8zm-1.6-87.8c.6-1 1.3-1.6 1.2-2-.1-.6-.9-1.3-1.4-1.3-.4 0-1.3.8-1.3 1.3.1.6.8 1.1 1.5 2zm-116.7 116.8c.7-1 1.4-1.6 1.3-2-.1-.6-.8-1.2-1.4-1.3-.3-.1-1.2.8-1.2 1.3-.1.5.6 1.1 1.3 2zm153-283.7c-.9-.6-1.5-1.4-1.9-1.3-.6.1-1 .9-1.4 1.4.5.4.9 1.2 1.4 1.2.5.1 1-.6 1.9-1.3zm-41.2 192.4c-.9-.6-1.4-1.4-1.9-1.3-.6.1-1 .8-1.5 1.3.5.5.9 1.2 1.5 1.3.4.1 1-.6 1.9-1.3zm109.9 116.7c-.9-.6-1.5-1.3-1.9-1.2-.6.1-1 .8-1.5 1.3.5.5.9 1.3 1.4 1.4.5 0 1-.8 2-1.5zm32.4-4.7c.6-1 1.3-1.6 1.2-2.2 0-.5-.9-.9-1.4-1.3-.4.5-1.2 1-1.3 1.6 0 .4.8 1 1.5 1.9zm-101-263.1c-1-.7-1.6-1.4-2.1-1.4s-.9.8-1.4 1.2c.5.5.9 1.3 1.4 1.4.5.2 1.1-.5 2.1-1.2zm-20.6 7c-1-.7-1.6-1.5-2.1-1.4-.5.1-1.2.8-1.3 1.4-.1.3.8 1.2 1.3 1.2s1.1-.6 2.1-1.2zm-20.7 205.9c-.9-.6-1.5-1.3-2-1.2-.6.1-1 .9-1.4 1.4.5.4 1 1.2 1.6 1.2.4.1.9-.7 1.8-1.4zm-109.8 41.2c-1.1-.6-1.7-1.3-2.2-1.2-.4 0-1.1.9-1.1 1.3 0 .5.8 1.3 1.2 1.3.5 0 1.1-.7 2.1-1.4zm197-201.2c-.6 1-1.3 1.6-1.2 2 .1.6.9 1 1.4 1.4.4-.5 1.2-.9 1.2-1.4.1-.4-.6-1-1.4-2zm-80.3 36.4c-.9-.7-1.5-1.4-1.9-1.3-.6.1-1.1.9-1.6 1.4.5.5 1 1.2 1.6 1.3.4-.1 1-.8 1.9-1.4zm-8.9-9c-.7 1-1.4 1.5-1.4 2s.8.9 1.2 1.4c.5-.5 1.2-.9 1.3-1.4.3-.4-.4-1-1.1-2zm2 63.9c-1-.6-1.6-1.3-2.1-1.3-.4 0-1.3.9-1.2 1.3.2.6.8 1.3 1.4 1.4.4.1 1-.7 1.9-1.4zm-15.6-84.3c-.7.9-1.5 1.4-1.4 1.8.1.6.8 1 1.3 1.5.5-.4 1.2-.8 1.3-1.3 0-.5-.6-1.1-1.2-2zm13.3-30.7h.6c.3-.6 1-1.2.9-1.8 0-.5-.9-1.2-1.3-1.2-.5 0-1.3.8-1.3 1.3.1.5.7 1.1 1.1 1.7zm-4.6-1.8c-.9-.6-1.5-1.3-1.9-1.2-.5 0-.9.8-1.4 1.2.5.5.9 1.2 1.5 1.3.3.2.9-.6 1.8-1.3zm39.2-25.4c.7-1 1.4-1.5 1.4-2.1 0-.5-.8-.9-1.2-1.4-.5.5-1.2.9-1.4 1.4-.2.5.6 1.1 1.2 2.1zm-46.1 32.3c-1-.6-1.5-1.3-2-1.2s-.9.8-1.4 1.3c.5.4.9 1.2 1.4 1.2.6.1 1.1-.6 2-1.3zm4.8-2c-.6 1-1.3 1.6-1.2 2.1 0 .5.9 1.3 1.3 1.2.6-.1 1.3-.8 1.4-1.4 0-.4-.8-.9-1.5-1.9zm84.6 180.7c-1-.6-1.5-1.3-2-1.2s-.9.8-1.4 1.2c.5.4.9 1.2 1.4 1.2.5.1 1-.6 2-1.2zm-8.9-18.7c.7-.9 1.4-1.4 1.3-1.8-.1-.6-.8-1-1.2-1.5-.5.5-1.2.9-1.3 1.5-.1.4.6 1 1.2 1.8zm41-158c.7-.9 1.5-1.3 1.4-1.8 0-.5-.7-1.3-1.1-1.3-.5 0-1.3.6-1.4 1.1-.1.4.5 1 1.1 2zm-219.5 181.6c-.7.9-1.4 1.5-1.3 1.9.1.6.8 1.2 1.4 1.4.3.1 1.2-.8 1.2-1.2-.1-.6-.7-1.2-1.3-2.1zm212.7-174.7c.7-.9 1.4-1.5 1.3-1.9-.1-.5-.9-.9-1.4-1.4-.4.5-1.1.9-1.2 1.4.2.5.7 1 1.3 1.9zm-155.9 149.2c-.9-.7-1.4-1.5-1.8-1.4-.6.1-1 .8-1.5 1.3.5.5.9 1.2 1.4 1.4.4.1 1-.6 1.9-1.3zm34-6.6v-.6c-.6-.3-1.2-1-1.7-.9-.5 0-1.2.9-1.2 1.3 0 .5.8 1.3 1.3 1.3.5-.1 1-.7 1.6-1.1zm-8.5-2.3c-.6.9-1.4 1.4-1.3 1.8.1.6.8 1 1.2 1.5.5-.5 1.2-.9 1.4-1.5.1-.3-.6-.9-1.3-1.8zm82.4-2.8c.7-1 1.4-1.5 1.4-2s-.9-1.3-1.2-1.3c-.6.1-1.3.8-1.4 1.3-.2.4.6 1 1.2 2zm-162.7 46.1c-.9-.7-1.5-1.4-1.9-1.3-.6.1-1.3.8-1.4 1.3-.1.4.8 1.3 1.2 1.3.5 0 1.1-.7 2.1-1.3zm197 8.9c.7-1 1.5-1.6 1.4-2.1 0-.5-.8-1.2-1.4-1.3-.3-.1-1.2.8-1.2 1.2 0 .6.6 1.1 1.2 2.2zm9.1 4.7c-1-.7-1.6-1.3-2.1-1.3s-1.4.9-1.3 1.2c.1.6.8 1.3 1.3 1.4.5.1 1.1-.6 2.1-1.3zm11.5 32.3c-.7 1-1.4 1.7-1.3 2.1.1.5.9 1.2 1.5 1.2.4 0 1.2-.8 1.2-1.3s-.7-1-1.4-2zm-116.6-195.3c.6-.9 1.3-1.5 1.2-2s-.8-.9-1.3-1.4c-.5.5-1.2 1-1.3 1.5 0 .5.7 1.1 1.4 1.9zm152.9 176.9c-.8-.7-1.4-1.5-1.8-1.4-.6.1-1.2.8-1.4 1.4-.1.3.8 1.2 1.3 1.2s1-.7 1.9-1.2zm-247.3-55c-.9-.6-1.5-1.4-1.9-1.3-.5.1-1.2.8-1.3 1.4-.1.3.8 1.2 1.2 1.2.6 0 1.1-.7 2-1.3zm151.3-20.6c-.9-.7-1.4-1.4-1.9-1.3-.5 0-1 .8-1.4 1.2.4.5.8 1.2 1.3 1.3.4 0 1-.6 2-1.2zm-55-27.7c-1-.6-1.6-1.2-2-1.1-.5.1-.9.8-1.3 1.3.5.4.9 1.2 1.4 1.2s1-.7 1.9-1.4zm109.8 117c-.9-.7-1.4-1.4-1.9-1.3-.5 0-1 .8-1.4 1.2.4.5.9 1.2 1.4 1.3.4 0 1-.7 1.9-1.2zm-116.7-89.3c-.9-.7-1.5-1.4-1.9-1.3-.6.1-1 .9-1.5 1.3.5.4.9 1.1 1.5 1.2.5 0 1-.6 1.9-1.2zm13.7-158.2c-.9-.6-1.4-1.3-1.9-1.2-.5.1-.9.8-1.4 1.2.5.5.9 1.2 1.5 1.4.4.1.9-.7 1.8-1.4zm-15.5 36.4c.6-.9 1.3-1.5 1.2-2s-.9-1.2-1.4-1.2-1.2.8-1.3 1.3c0 .5.7 1 1.5 1.9zm123.3 229.6c-.6.9-1.3 1.6-1.2 2 .2.5.9.9 1.5 1.4.4-.5 1.1-1 1.1-1.5s-.7-1-1.4-1.9zm-142.1-101c-1-.6-1.5-1.3-2-1.2-.5.1-.9.8-1.4 1.3.5.4.9 1.2 1.4 1.2s1.1-.7 2-1.3zm108 32.4c-.6.9-1.3 1.5-1.3 2 .1.5.8.9 1.3 1.4.5-.5 1.2-.9 1.3-1.4 0-.5-.7-1.1-1.3-2zm-87.4-46.1c-.9-.7-1.4-1.4-1.9-1.3-.5 0-1 .8-1.4 1.2.4.5.8 1.2 1.3 1.3.5.1 1.1-.6 2-1.2zm39.2-169.8c.7-.9 1.4-1.5 1.3-1.9 0-.5-.8-1.3-1.2-1.3-.5 0-1.3.7-1.4 1.2 0 .4.7 1 1.3 2zm70.7 252.1c-.8-.6-1.4-1.3-1.9-1.3s-.9.8-1.4 1.3c.5.5.9 1.3 1.4 1.3.5.1 1.1-.6 1.9-1.3zm-96.1-123.6c-1-.7-1.5-1.3-2-1.3-.5.1-.9.8-1.4 1.2.5.5.9 1.2 1.4 1.3.4.1 1-.5 2-1.2zm-105 77.5c.6-.9 1.3-1.5 1.2-1.9-.1-.5-.9-1.3-1.3-1.2-.5 0-1.2.8-1.3 1.3 0 .3.7.9 1.4 1.8zm192.4 34.4c.6-.9 1.3-1.5 1.2-2-.1-.5-.8-.9-1.3-1.3-.5.5-1.2 1-1.3 1.5 0 .4.7.9 1.4 1.8zm-94.3-98.1c-1-.7-1.5-1.3-2-1.3-.5.1-.9.8-1.4 1.3.5.4.9 1.2 1.4 1.3.5-.1 1.1-.7 2-1.3zm-109.9 89.3c-.9-.6-1.5-1.3-2-1.2-.5.1-1.2.8-1.2 1.3 0 .4.8 1.2 1.3 1.2.4-.1 1-.7 1.9-1.3zm197.2-1.9c-.6 1-1.2 1.5-1.2 2 .1.5.9 1.2 1.3 1.2.5-.1 1.2-.8 1.2-1.3.1-.5-.7-1.1-1.3-1.9zm-96.2-78.6c.7-1 1.3-1.5 1.3-2 0-.4-.8-1.2-1.2-1.2s-1.2.7-1.2 1.1c-.1.5.5 1.1 1.1 2.1zm82.5 44.1c-.6 1-1.3 1.5-1.2 2 .1.5.8.9 1.3 1.4.4-.5 1.2-.9 1.3-1.4-.1-.5-.7-1-1.4-2zm-32.4-218c-1-.6-1.6-1.2-2-1.1-.5.1-1.2.9-1.2 1.3.1.5.8 1.2 1.3 1.2.5.1 1-.7 1.9-1.4zm27.5 206.4c-.9-.7-1.5-1.4-1.9-1.3-.5 0-1.3.8-1.3 1.2s.7 1.2 1.2 1.3c.5 0 1.1-.6 2-1.2zm-180.5 63.7c.6-1 1.3-1.6 1.2-2-.1-.5-.8-.9-1.3-1.3-.4.5-1.2.9-1.2 1.4-.1.4.6.9 1.3 1.9zm116.6-137.5c.6-.8 1.4-1.3 1.3-1.7-.1-.6-.7-1.1-1.1-1.6-.5.4-1.3.8-1.3 1.3-.1.5.5 1.1 1.1 2zm2.1-22.6c-1-.6-1.6-1.3-2-1.2-.5.1-.9.9-1.3 1.3.5.4.9 1.1 1.4 1.2.4 0 1-.7 1.9-1.3zm101.1 187.4c.6-.8 1.2-1.4 1.1-1.8-.1-.5-.9-.9-1.3-1.3-.4.5-1.1.9-1.2 1.5.1.3.7.8 1.4 1.6zm-68.7-312.9c-.7.9-1.3 1.4-1.3 1.9s.8 1.3 1.2 1.3c.5 0 1.3-.7 1.3-1.2.1-.5-.6-1.1-1.2-2zm70.5 318c-.9-.7-1.4-1.4-1.9-1.3-.5 0-1.2.8-1.3 1.3-.1.3.7 1.2 1.2 1.2s1-.6 2-1.2zm-68.6-309.3c-1-.6-1.6-1.2-2-1.1-.5.1-.9.8-1.3 1.3.5.4.9 1.2 1.4 1.2.5 0 1-.7 1.9-1.4zm-34.4 144.5c-.9-.7-1.4-1.4-1.9-1.4s-.9.8-1.4 1.2c.4.5.8 1.2 1.3 1.3.5.1 1.1-.6 2-1.1zm34.4-130.7c-.9-.6-1.5-1.3-2-1.2-.5 0-1.3.8-1.2 1.3 0 .5.8 1.2 1.3 1.3.4 0 1-.7 1.9-1.4zm-153.1 235.6c.6-.9 1.3-1.4 1.2-1.8-.1-.5-.7-1.2-1.2-1.3-.3-.1-1.2.7-1.2 1.1 0 .5.6 1 1.2 2zm118.8-98.1c-.9-.7-1.4-1.4-1.9-1.4s-1 .8-1.4 1.2c.4.5.8 1.2 1.3 1.3.4.2 1-.5 2-1.1zm68.7 89.4c-1-.7-1.5-1.3-2-1.3-.4 0-1.1.8-1.1 1.2s.7 1.2 1.1 1.3c.4 0 1-.6 2-1.2zm39.3 66.8l-1.6 1.6 1.5 1.5c.4-.5 1-1 1.2-1.6.1-.3-.6-.8-1.1-1.5zm-219.9-68.7c-.7.8-1.4 1.3-1.3 1.7.1.5.8 1.3 1.2 1.3.5 0 1.2-.7 1.4-1.2.1-.4-.6-.9-1.3-1.8zm199.3 38.1c.6-1 1.2-1.6 1.2-2.1 0-.4-.9-1.2-1.2-1.1-.5.1-1.2.8-1.3 1.3-.1.4.6.9 1.3 1.9zm-6.8-7c.5-1 1.1-1.6 1.1-2.1 0-.4-.9-1.1-1.3-1-.5.1-1.2.8-1.2 1.2 0 .5.7 1 1.4 1.9zm-75.7-230.5c-.6 1-1.3 1.5-1.2 2s.8 1.1 1.4 1.2c.3.1 1.1-.8 1.1-1.2-.1-.5-.7-1.1-1.3-2zm6.9-3c.6-1 1.2-1.5 1.2-2 0-.4-.8-.8-1.2-1.2-.4.5-1.1.9-1.2 1.4-.1.4.5.9 1.2 1.8zm-20.6 126.7c-.7.9-1.3 1.4-1.3 1.9 0 .4.8 1.2 1.2 1.2.5-.1 1.2-.7 1.3-1.3.1-.4-.6-.9-1.2-1.8zm75.4 68.6c-.6 1-1.2 1.5-1.1 2.1 0 .4.9 1.2 1.2 1.2.5-.1 1.3-.8 1.3-1.3l-1.4-2zm-25.4-32.3c-.9-.6-1.5-1.3-1.9-1.3-.5 0-.9.8-1.4 1.2.4.4.9 1.2 1.3 1.2.5.1 1.1-.5 2-1.1zm-159.9 66.7c-.6.9-1.3 1.4-1.3 1.9.1.5.8.9 1.3 1.3.4-.5 1.1-.9 1.2-1.5 0-.3-.6-.9-1.2-1.7zm96-195.4c.6-.9 1.3-1.4 1.3-1.8-.1-.5-.7-1.2-1.3-1.3-.3-.1-1.2.7-1.2 1.1 0 .6.6 1.1 1.2 2zm-94.2 183.6c-.9-.6-1.4-1.2-1.8-1.2-.5.1-.9.8-1.4 1.3.5.4.9 1.1 1.5 1.1.4.1.9-.6 1.7-1.2zm103-158c-.8-.6-1.3-1.3-1.7-1.2-.5.1-.9.8-1.4 1.2.5.4.9 1.1 1.4 1.2.3.1.9-.6 1.7-1.2zm-96.1 137.4c-1-.6-1.5-1.2-2-1.2-.4 0-.8.8-1.2 1.3.5.4.9 1.1 1.5 1.2.3.1.8-.6 1.7-1.3zm204.2 53c-.6.9-1.3 1.4-1.2 1.9 0 .4.9 1.2 1.2 1.2.5-.1 1.2-.7 1.3-1.3 0-.3-.6-.9-1.3-1.8zm-212.9-3c.6-1 1.1-1.6 1.1-2.1 0-.4-.8-1.1-1.3-1.1-.4 0-1.2.8-1.2 1.2.1.6.8 1.1 1.4 2zm144.3-285.4c-.7.8-1.4 1.3-1.3 1.7.1.5.8.9 1.2 1.4.4-.4 1.1-.8 1.2-1.2 0-.5-.6-1.1-1.1-1.9zm6.6 20.5c-.5.9-1.1 1.5-1.1 2 0 .4.8.8 1.3 1.2.4-.5 1.1-.9 1.1-1.5.1-.4-.6-.9-1.3-1.7zm-32.3 111.9c-.8-.7-1.3-1.4-1.7-1.3-.5.1-1 .8-1.4 1.2.4.4.8 1.1 1.3 1.2.4.1.9-.5 1.8-1.1zm-61.7 89.3c-.9-.6-1.5-1.3-2-1.2-.4 0-.9.8-1.3 1.2.5.4.9 1.1 1.4 1.2.4.1.9-.6 1.9-1.2zm54.8-110.1c-.9-.6-1.5-1.2-2-1.2-.4 0-.8.8-1.3 1.2.5.4.9 1.1 1.4 1.2.5.2 1-.5 1.9-1.2zm-111.8 128.8c-.6.9-1.3 1.5-1.2 1.8.1.5.8.9 1.3 1.3.4-.4 1-.9 1.1-1.3.1-.4-.6-.9-1.2-1.8zm111.8-80.5c-.9-.7-1.4-1.4-1.8-1.3-.5.1-1 .7-1.5 1.1.4.5.7 1.2 1.2 1.3.6.1 1.1-.5 2.1-1.1zm68.8 61.9c-1-.7-1.5-1.3-2-1.3-.4 0-1.2.7-1.2 1.2 0 .4.6 1.2 1.1 1.3.5-.1 1.1-.7 2.1-1.2zm25.4-142.5c.6-.9 1.3-1.4 1.3-1.9 0-.4-.8-1.2-1.1-1.2-.5.1-1.2.7-1.3 1.2-.1.4.6 1 1.1 1.9zm-103 110c.6-1 1.2-1.6 1.2-2.1 0-.4-.8-1.1-1.3-1.1-.4 0-1.1.7-1.1 1.2l1.2 2zm1.9 4.9c-.9-.6-1.4-1.3-1.8-1.2-.5.1-1 .7-1.4 1.2.4.4.8 1.2 1.2 1.2.6 0 1.1-.6 2-1.2zm-111.8 84.2c.6-.8 1.3-1.4 1.2-1.7-.1-.5-.7-.9-1.2-1.4-.4.4-1.1.8-1.2 1.2 0 .5.6 1 1.2 1.9zm178.7-61.7c.6-.9 1.2-1.4 1.2-2 0-.4-.9-1.2-1.2-1.1-.5.1-1.1.8-1.2 1.3-.1.4.5.9 1.2 1.8zm-75.7-10.6c-.6.9-1.2 1.5-1.1 1.8.1.5.8.9 1.3 1.3.4-.4 1-.9 1.1-1.3 0-.5-.7-1-1.3-1.8zm63.8 1.9c-.8-.6-1.3-1.2-1.8-1.2s-.9.7-1.3 1.1c.4.5.8 1.2 1.3 1.3.3 0 .9-.7 1.8-1.2zm54.9-137.4c-.8-.6-1.3-1.3-1.8-1.2-.5 0-.9.7-1.4 1 .4.5.8 1.2 1.3 1.3.5.1 1.1-.5 1.9-1.1zm-75.6-41.4c-.9-.6-1.4-1.1-1.9-1.1-.5.1-.8.8-1.2 1.2.5.4.9 1.1 1.4 1.2.4 0 .9-.7 1.7-1.3zm68.8 254.1c-1-.5-1.5-1.1-1.9-1-.5.1-.8.8-1.2 1.2.5.4.9 1.1 1.4 1.1.3.1.8-.6 1.7-1.3zm-96.3-137.2c-.8-.6-1.3-1.3-1.7-1.3-.5 0-.9.7-1.4 1.1.4.5.8 1.2 1.3 1.3.4.1 1-.5 1.8-1.1zm-15.5-53.1c.6-.9 1.2-1.4 1.2-1.8 0-.5-.7-.9-1.1-1.3-.4.4-1.1.8-1.3 1.3-.1.4.6.9 1.2 1.8zm22.3 32.4c-.9-.5-1.4-1.1-1.9-1.1-.5.1-.8.8-1.3 1.2.5.4.9 1.1 1.4 1.2.5.1 1-.7 1.8-1.3zm-15.5-70.5c-.6.9-1.3 1.4-1.2 1.8.1.5.8.9 1.3 1.3.4-.4 1-.9 1-1.3.1-.4-.5-.9-1.1-1.8zm109.9 240.4c-.6.9-1.2 1.5-1.1 1.8.1.5.9.9 1.3 1.3.4-.5 1.1-.9 1.1-1.4 0-.3-.6-.8-1.3-1.7zm-25.5-46.3c-.9-.5-1.5-1.1-1.9-1-.5.1-.8.9-1.2 1.3.5.4.9 1 1.4 1 .4.1.8-.6 1.7-1.3zm-77.5-94.2c.6-.8 1.2-1.3 1.2-1.8s-.7-.9-1-1.3c-.5.4-1.2.8-1.3 1.3-.2.3.5.9 1.1 1.8zm-20.6-86.1c-.6.9-1.2 1.5-1.1 1.9.1.5.8.8 1.2 1.2.4-.4 1.1-.8 1.1-1.3 0-.4-.6-.9-1.2-1.8zm29.4-25.5c-.8-.6-1.3-1.3-1.7-1.3-.5.1-.9.7-1.4 1.1.4.4.8 1.1 1.2 1.2.4.1.9-.5 1.9-1zm6.8-7c-.8-.6-1.3-1.3-1.8-1.2-.5 0-1.2.7-1.2 1.2 0 .4.7 1.2 1.1 1.2.5 0 1-.6 1.9-1.2zm-27.4 41.3c-.9-.6-1.4-1.3-1.8-1.2-.5.1-.9.7-1.4 1.1.4.4.8 1.2 1.2 1.2.5 0 1-.6 2-1.1zm-103.1 192.1c-.9-.6-1.4-1.2-1.9-1.1-.5.1-.9.8-1.3 1.2.5.4.9 1.1 1.4 1.2.5 0 1-.6 1.8-1.3zm13.8-40.9c-.8-.6-1.3-1.3-1.7-1.3-.4 0-1.3.7-1.2 1.1 0 .5.7 1.2 1.1 1.3s.9-.5 1.8-1.1zm204.2 77.2c.6-.9 1.2-1.4 1.1-1.9s-.8-.8-1.2-1.3c-.4.4-1.1.8-1.2 1.3.1.5.7 1 1.3 1.9zm-68.6-299.1c-.7.8-1.4 1.3-1.3 1.7.1.5.8.9 1.2 1.4.4-.4 1.1-.8 1.2-1.2 0-.5-.6-1-1.1-1.9zm34.2 230.5c.6-.9 1.3-1.4 1.2-1.8 0-.5-.7-1.2-1.2-1.2-.4 0-1.1.7-1.2 1.1 0 .4.6 1 1.2 1.9zm-66.8-187.4c-.9-.6-1.4-1.2-1.8-1.2-.5.1-.9.7-1.3 1.1.5.4.9 1.1 1.4 1.2.3.1.8-.5 1.7-1.1zm-34.4 164.9c-.9-.6-1.4-1.2-1.8-1.1-.4.1-1.1.8-1.1 1.1 0 .4.7 1.1 1.1 1.2.4 0 .9-.6 1.8-1.2zm18.6-128.7c.7-.8 1.3-1.3 1.3-1.7 0-.5-.7-.9-1-1.4-.5.4-1.2.8-1.3 1.3-.1.3.5.9 1 1.8zm94.5 169.9c.9.7 1.4 1.3 1.8 1.3.5-.1 1.2-.7 1.3-1.2.1-.3-.7-1.2-1.1-1.2-.5-.1-1.1.5-2 1.1zm-92.5-157.9c-.8-.6-1.3-1.3-1.7-1.3-.5 0-.9.7-1.3 1.1.4.4.7 1.2 1.2 1.2.3.2.9-.4 1.8-1zm-102.9 185.4c-.9-.6-1.4-1.3-1.8-1.2-.5.1-.9.7-1.3 1.1.4.4.8 1.1 1.2 1.2s.9-.5 1.9-1.1zm204.2-8.8c-.6.9-1.3 1.4-1.2 1.8.1.5.7.9 1.1 1.3.4-.4 1.1-.8 1.2-1.3.1-.3-.5-.9-1.1-1.8zm-101.2-73.7c-.9-.6-1.5-1.2-1.9-1.1-.5.1-.8.8-1.2 1.2.4.4.8 1.1 1.3 1.1.3.1.9-.6 1.8-1.2zm-2-5c.6-.9 1.3-1.5 1.2-1.9s-.8-1-1.3-1.1c-.3-.1-1 .7-1 1.1 0 .5.6 1 1.1 1.9zm82.7 30.7c-.6.8-1.3 1.3-1.3 1.7 0 .5.7.9 1 1.4.5-.4 1.2-.7 1.4-1.2.1-.4-.6-1-1.1-1.9zm-80.8-163c-.8-.6-1.3-1.3-1.7-1.2-.5 0-.9.7-1.3 1.1.4.5.8 1.2 1.3 1.3.3 0 .8-.6 1.7-1.2zm-102.9 192.5c-.9-.7-1.4-1.3-1.8-1.3-.5 0-.9.7-1.3 1.1.4.4.7 1.1 1.2 1.2.3.1.9-.5 1.9-1zm224.8-190.7c.5-.9 1.2-1.4 1.1-1.8-.1-.5-.9-.8-1.3-1.3-.4.5-1 .9-1 1.4 0 .4.5.9 1.2 1.7zm-73.7-50c-1-.6-1.5-1.2-1.9-1.1-.5.1-.8.8-1.3 1.2.4.4.9 1 1.3 1.1.5 0 1-.6 1.9-1.2zm34.3 226.7c-.9-.5-1.5-1.1-1.9-1s-1 .8-1 1.3c0 .3.8 1 1.2 1 .4-.1.8-.7 1.7-1.3zm-34.3-219.7c-.9-.6-1.4-1.3-1.8-1.2-.5 0-.9.7-1.3 1.1.4.4.7 1.1 1.2 1.2.3.1.9-.5 1.9-1.1zm41.1 233.6c-.8-.6-1.3-1.3-1.6-1.2-.5.1-.9.7-1.4 1.1.4.4.8 1.1 1.2 1.2.4 0 1-.6 1.8-1.1zm68.7 27.3c-1-.6-1.5-1.2-1.9-1.1-.5.1-1.2.8-1.1 1.1.1.5.7 1.1 1.2 1.2.4.1.9-.5 1.8-1.2zm-262.7-22.3c-.6.9-1.3 1.4-1.2 1.8 0 .4.7.8 1.2 1.2.4-.4 1-.8 1.1-1.2-.1-.4-.6-.9-1.1-1.8zm118.5-142.5c-.9-.6-1.5-1.3-1.9-1.2-.5.1-.9.8-1.3 1.2.4.4.8 1.1 1.2 1.1.5-.1 1-.6 2-1.1zm34.3-123.7c-.9-.6-1.4-1.2-1.8-1.2-.5.1-.9.7-1.3 1.1.4.4.8 1.1 1.3 1.2.4.1.9-.5 1.8-1.1zm53.2 84.3c.6-.9 1.2-1.4 1.1-1.8s-.8-1.1-1.2-1.1c-.4 0-1.1.7-1.2 1.2 0 .4.7.9 1.3 1.7zm-96.2 92.5c-.6.9-1.3 1.4-1.2 1.8 0 .5.7.9 1.1 1.3.4-.4 1.1-.8 1.2-1.2.1-.5-.5-1-1.1-1.9zm48-185.5c-.6.9-1.2 1.4-1.2 1.9.1.5.8 1.1 1.2 1.1s1.1-.7 1.1-1.2c.2-.4-.5-.9-1.1-1.8zm-53.1 194.2c-.9-.6-1.5-1.2-1.9-1.1-.4.1-1 .8-1.1 1.3 0 .3.7 1 1.1 1 .5 0 1-.6 1.9-1.2zm115-118.6c-.6.9-1.2 1.4-1.2 1.9 0 .4.7 1 1.1 1.1.4 0 1.1-.6 1.1-1 .1-.5-.4-1-1-2zm-121.9 29.5c-.9-.6-1.4-1.3-1.9-1.2-.4 0-1.1.7-1.1 1.1 0 .4.6 1.1 1 1.2.5-.1 1.1-.6 2-1.1zm13.8 13.6c-.9-.6-1.4-1.2-1.8-1.2-.5.1-1.2.8-1.2 1.2s.7 1.1 1.2 1.2c.4 0 .9-.7 1.8-1.2zm-13.7-20.7c-1-.5-1.5-1.1-2-1-.4 0-.8.7-1.1 1.1.4.4.8 1.1 1.3 1.1.4 0 .9-.6 1.8-1.2zm116.8 206.1c-.9-.6-1.4-1.2-1.9-1.2-.4 0-1.2.7-1.1 1 .1.5.7 1.2 1.1 1.2.4.2.9-.4 1.9-1zm-213-41.1c-.9-.6-1.4-1.3-1.9-1.2-.5.1-1 .7-1.1 1.2-.1.3.7 1 1.1 1.1.5 0 1-.5 1.9-1.1zm108.3-83.9h-.6c-.3.5-.9 1-.8 1.5s.8 1 1.3 1.1c.3 0 1-.7 1-1.1 0-.6-.6-1.1-.9-1.5zm90.9 97.5c-.9-.6-1.5-1.2-1.9-1.1-.5.1-1.1.8-1.1 1.3 0 .4.8 1.1 1.2 1.1.5-.1 1-.7 1.8-1.3zm-8.8 1.9c.6-.9 1.2-1.4 1.2-1.9 0-.4-.6-.8-1-1.3-.4.4-1.1.7-1.2 1.2-.1.5.5 1 1 2zm-82.3-216.5c-.6.8-1.2 1.3-1.1 1.6.1.5.7.8 1.1 1.2.4-.4 1-.8 1-1.2.1-.3-.5-.8-1-1.6zm104.8 249.1c-.8-.6-1.3-1.3-1.6-1.2-.5.1-.9.7-1.4 1.1.4.4.7 1.1 1.1 1.2.5 0 1-.6 1.9-1.1zm-159.8-77.4c-.5.9-1.1 1.4-1.1 1.9 0 .4.8 1.1 1.1 1 .5-.1 1-.7 1.1-1.2.1-.4-.5-.9-1.1-1.7zm-55.1 24.2c.6-.8 1.3-1.2 1.2-1.6-.1-.5-.7-.9-1-1.4-.4.4-1.1.7-1.2 1.1 0 .4.6 1 1 1.9zm98.2-166.6c-.9-.6-1.4-1.3-1.8-1.3-.5 0-.9.7-1.3 1.1.4.4.8 1.1 1.2 1.2.4.1.9-.4 1.9-1zm-20.7 137.3c-.9-.6-1.3-1.2-1.8-1.2-.4 0-1.1.7-1.1 1 .1.5.6 1.2 1.1 1.2.4.2.9-.4 1.8-1zm151 102.9c-.8-.5-1.3-1.2-1.7-1.1-.5.1-1.1.7-1.3 1.2-.1.2.7 1.2 1 1.1.7 0 1.2-.6 2-1.2zm-56.6-101.1c.6-.8 1.2-1.3 1.2-1.7-.1-.5-.7-.9-1.1-1.3-.4.4-1.1.8-1.1 1.2-.1.4.4.9 1 1.8zm-61.8-55c.5-.9 1.1-1.4 1.1-1.9 0-.4-.7-.8-1.1-1.1-.4.4-1 .8-1.1 1.3-.1.3.5.8 1.1 1.7zm145.5 122.2v-.6c-.5-.3-1-.8-1.4-.8-.4 0-1 .7-1 1.1 0 .4.6 1.1 1 1.1s.9-.6 1.4-.8zm-143.8-165.3c-.9-.6-1.4-1.2-1.7-1.1-.5.1-1 .7-1.1 1.2-.1.3.7 1.1 1.1 1.1s.9-.6 1.7-1.2zm101.4 183.8c-.6.9-1.2 1.4-1.2 1.9 0 .4.7 1 1.1 1s1.1-.6 1.1-1c.1-.5-.5-1-1-1.9zm-101.4-149.4c-.8-.6-1.4-1.2-1.7-1.1-.5.1-1 .7-1.1 1.2 0 .3.7 1.1 1.1 1.1s.8-.6 1.7-1.2zm-1.8-39.3c.6-.9 1.2-1.4 1.2-1.9 0-.4-.7-1.2-1-1.1-.5.1-1.2.6-1.3 1s.5 1 1.1 2zm-111.5 115c.8.5 1.3 1.1 1.7 1.1.5-.1.8-.8 1.2-1.2-.4-.3-.8-.9-1.3-1-.4-.1-.9.5-1.6 1.1zm202.7 41.2c-.8-.7-1.3-1.3-1.6-1.3-.5.1-1.1.6-1.3 1.1-.1.3.6 1.1 1 1.2s.9-.5 1.9-1zm-105-204.4c.6-.8 1.3-1.2 1.2-1.6-.1-.5-.7-1.1-1.1-1.2-.3-.1-1.1.6-1.2 1 0 .4.6.9 1.1 1.8zm55-75.5c.6-.9 1.2-1.3 1.2-1.8 0-.4-.7-1.2-1-1.1-.5.1-1.2.6-1.3 1s.5.9 1.1 1.9zm-33 142.9l.1-.6c-.5-.4-.9-.9-1.4-1-.3 0-1 .6-1.1 1-.1.3.5 1.1.8 1.1.4.1 1-.3 1.6-.5zm67.5 114.7c-.6.7-1.2 1.2-1.2 1.7 0 .4.7 1.1 1 1.1.5-.1 1.1-.6 1.3-1.1.1-.4-.5-.9-1.1-1.7zm36 63.5c-.8-.6-1.2-1.2-1.6-1.2-.5.1-.9.7-1.4 1.1.4.4.8 1 1.3 1.1.4.1.9-.5 1.7-1zm-34.3-54.8c-.8-.6-1.2-1.3-1.6-1.2-.5.1-1.1.6-1.3 1.1-.1.3.6 1.1 1 1.1.5 0 1-.5 1.9-1zm-82.6-199.3c-.7-.6-1.2-1.3-1.5-1.2-.5.1-.9.7-1.4 1.1.4.4.8 1.1 1.3 1.2.3 0 .9-.6 1.6-1.1zm-8.4 135.4c-.6.9-1.2 1.4-1.2 1.9 0 .4.7 1.1 1.1 1.1.4 0 1.1-.6 1.2-1 0-.5-.6-1-1.1-2zm6.8-85.8c.5-.9 1-1.4 1-1.8 0-.4-.8-1.1-1.1-1-.5.1-1 .7-1.1 1.2 0 .3.6.8 1.2 1.6zm-94.6 128.9c-.7-.5-1.2-1.1-1.5-1-.4.1-.8.7-1.2 1 .3.4.7 1 1 1 .5.1 1-.5 1.7-1zm110-110.1c-.8-.5-1.2-1.1-1.6-1.1s-1 .7-1 1c0 .4.6 1.1 1 1.1.3.1.8-.4 1.6-1zm6.9-89.1c-.7-.6-1.2-1.2-1.7-1.2-.4 0-1.2.8-1.1 1 .1.5.6 1.1 1.1 1.3.3.1.9-.5 1.7-1.1zm19.1-32.7c.5-.9 1.1-1.4 1-1.7-.2-.5-.8-.8-1.2-1.2-.3.4-1 .8-1 1.2-.1.5.5.9 1.2 1.7zm54.8 274.7c.5-.7 1.2-1.2 1.1-1.6-.1-.5-.7-.9-1.1-1.3-.4.4-1 .8-1.1 1.3-.1.4.5.9 1.1 1.6zm-20.7-58.3c-.5.8-1.1 1.4-1.1 1.7.1.5.7 1 1.2 1.1.3.1 1.1-.7 1.1-1.1s-.6-.9-1.2-1.7zm-176.7 15.6c-.8-.6-1.3-1.2-1.7-1.2-.5.1-.9.7-1.3 1.1.4.4.7 1.1 1.1 1.1.5.1 1-.5 1.9-1zm102.9-61.9c-.8-.6-1.3-1.2-1.7-1.1-.5.1-.9.7-1.3 1.1.4.4.8 1.1 1.2 1.1.5 0 1-.6 1.8-1.1zm-8.7 32.6c-.5.9-1 1.4-1 2 0 .3.9 1 1 .9.5-.2 1.1-.7 1.2-1.2s-.6-.9-1.2-1.7zm2-5.3c-1-.5-1.5-.9-2-.9-.4 0-1 .8-.9 1.1.1.4.7 1.1 1.1 1 .4 0 .8-.5 1.8-1.2zm-103.1 75.6c-.9-.6-1.4-1.2-1.7-1.1-.5.1-1 .7-1.1 1.2-.1.3.7 1 1.1 1 .3.1.8-.5 1.7-1.1zm121.7-231.8c.6-.7 1.2-1.2 1.2-1.6-.1-.5-.7-.9-1.1-1.3-.4.4-1 .8-1.1 1.2 0 .4.5.9 1 1.7zm29.4-49.7c-.8-.6-1.3-1.3-1.6-1.2-.5.1-1.1.6-1.2 1.1-.1.3.6 1.1 1 1.1.4.1.9-.5 1.8-1zm61.8 288.3c-.9-.5-1.4-1-1.9-.9-.4 0-.7.8-1 1.2.4.4.9 1 1.3 1s.8-.7 1.6-1.3zm-61.9-261c-.8-.5-1.3-1-1.7-1-.4.1-.7.7-1.1 1.1.4.4.8 1 1.2 1 .4.1.8-.5 1.6-1.1zm-36.2 122c-.5.8-1 1.3-1 1.7.1.4.7.8 1.1 1.2.4-.4 1-.8 1.1-1.3.1-.3-.6-.8-1.2-1.6zm7-3.5c.6-.9 1.1-1.4 1.1-1.7-.1-.5-.7-.8-1.1-1.2-.3.4-.9.8-.9 1.2-.1.4.4.9.9 1.7zm-121.8 129c-.9-.6-1.3-1.2-1.8-1.2-.4 0-.8.7-1.2 1 .4.4.7 1 1.2 1.2.4.1.9-.5 1.8-1zm142.5-242.3c-.6.9-1.2 1.3-1.1 1.8 0 .4.7.8 1.1 1.2.4-.4 1.1-.8 1.2-1.3 0-.3-.7-.8-1.2-1.7zm-142.5 235.3c-.9-.6-1.4-1.2-1.7-1.1-.5.1-.8.8-1.2 1.2.4.4.8 1 1.2 1 .4 0 .8-.5 1.7-1.1zm115-139c-.5.8-1 1.3-1.1 1.9 0 .3.6.6 1 1 .4-.4.9-.8 1.1-1.3.1-.4-.4-.9-1-1.6zm36-108.2c-.7-.6-1.2-1.2-1.6-1.1-.5.1-.9.7-1.3 1.1.4.4.8 1 1.3 1.1.4 0 .8-.6 1.6-1.1zm67 56.6c.6-.8 1.2-1.3 1.1-1.7-.1-.5-.7-1.1-1.2-1.2-.3-.1-1.1.7-1.1 1.1.1.6.7 1 1.2 1.8zm-32.6 163.3c-.8-.6-1.3-1.2-1.6-1.1-.5.1-1.1.6-1.2 1.1-.1.3.6 1.1 1 1.1.5 0 1-.6 1.8-1.1zm-89.7-164.6v-.6c-.5-.3-1-.9-1.4-.8-.4 0-1 .7-1.1 1.1 0 .4.6 1.1 1 1.1.5 0 1-.6 1.5-.8zm12.4 97.5c.5-.9 1-1.4 1-1.9 0-.3-.8-1-1-1-.5.2-1.1.7-1.2 1.2-.1.4.6.9 1.2 1.7zm75.5 61.8c.6-.8 1.2-1.2 1.2-1.6-.1-.5-.7-.8-1.1-1.3-.4.4-1 .7-1.1 1.2-.1.5.5.9 1 1.7zm-73.8-42.9c-.9-.6-1.4-1.2-1.7-1.1-.5.1-.8.8-1.3 1.2.4.4.8 1.1 1.2 1.1.5-.1 1-.6 1.8-1.2zm-8.6-87.7c.5-.7 1.2-1.2 1.1-1.5-.1-.4-.7-.8-1-1.2-.4.4-1.1.7-1.2 1.2-.1.3.5.8 1.1 1.5zm125.4 218.4c-.8-.6-1.2-1.2-1.6-1.2-.4 0-.9.6-1.3.9.4.4.7 1.1 1.1 1.2.4.1.9-.4 1.8-.9zm-77.4-331.6c-.5.8-1 1.3-1 1.7.1.4.7.7 1.1 1.1.4-.4 1-.8 1-1.2.1-.4-.5-.9-1.1-1.6zm-53.2 91.1c-.7-.6-1.2-1.2-1.6-1.1-.4 0-1.1.7-1.1 1 0 .4.6 1.1 1 1.1s.9-.5 1.7-1zm122 235.1c.6-.7 1.2-1.2 1.2-1.6 0-.4-.7-1.1-1.1-1.1s-1.1.6-1.2 1c-.1.4.5.9 1.1 1.7zm-41.3-89.2c.6-.8 1.2-1.3 1.1-1.6 0-.4-.6-.8-1-1.2-.4.4-1 .7-1.1 1.1 0 .3.5.8 1 1.7zm-178.5 61.7c.6-.7 1.2-1.2 1.1-1.6 0-.4-.7-1.1-1-1.1-.4 0-1.1.6-1.1 1-.1.4.4.9 1 1.7zm103-103c.6-.8 1.2-1.2 1.1-1.6 0-.4-.7-1-1.1-1s-1 .6-1.1 1c0 .3.5.8 1.1 1.6zm6.9-24c-.5.8-1.1 1.3-1 1.7 0 .4.7 1.1 1 1 .5-.1 1.1-.6 1.1-1s-.6-.9-1.1-1.7zm-109.9 82.6c-.5.8-1.1 1.2-1.1 1.6.1.4.7.8 1.1 1.2.4-.4 1-.7 1.1-1.2 0-.4-.6-.9-1.1-1.6zm109.8-127.4c.6-.8 1.1-1.2 1.1-1.6 0-.4-.7-1.1-1.1-1.1-.4 0-1.1.6-1.1 1 0 .5.6 1 1.1 1.7zm43.1-104.6c-.9-.6-1.5-1.2-1.8-1.1-.5.2-.9.8-1.1 1.3-.1.1.7.9 1 .9.5-.1 1-.6 1.9-1.1zm-7 .2c-.8-.7-1.2-1.3-1.6-1.3s-1 .6-1.2 1c-.1.2.5 1 .9 1 .5.2 1-.3 1.9-.7zm75.6 308.8c-.9-.5-1.4-1-1.8-.9s-.9.8-.9 1.2c0 .3.7.9 1.1.9.4-.1.8-.6 1.6-1.2zm-219.8-61.7c-.8-.5-1.3-1-1.7-1-.4.1-.8.7-1.1 1.1.4.4.8 1 1.2 1 .3 0 .8-.5 1.6-1.1zm192.3 6.9c-.8-.5-1.3-1.1-1.7-1l-1.1 1.1c.4.4.8 1 1.2 1 .4-.1.8-.6 1.6-1.1zm-192.3-27.6c-.9-.5-1.3-1-1.8-1-.4 0-1.1.7-1 1 .1.5.7 1.1 1.1 1.1.4.1.9-.5 1.7-1.1zm171.6-20.5c-.8-.6-1.2-1.2-1.6-1.1-.4 0-.8.7-1.2 1 .4.4.7 1 1.1 1.1.5.1 1-.5 1.7-1zm-68.6-109.7c-.7-.6-1.1-1.3-1.5-1.3-.4 0-.9.6-1.3.9.3.4.6 1.1 1 1.2.4 0 .9-.4 1.8-.8zm6.8-55.3c-.8-.5-1.3-1-1.7-1-.4.1-.7.7-1.1 1.1.4.4.8 1 1.2 1 .4.1.9-.5 1.6-1.1zm101.3 238.9c-.5.8-1 1.3-.9 1.7.1.4.7.7 1.1 1.1.4-.4 1-.8 1-1.2 0-.5-.6-.9-1.2-1.6zm-32.6-60c-.8-.6-1.2-1.2-1.6-1.2-.4 0-1.1.6-1.1 1s.6 1 1 1.1c.4.1.9-.5 1.7-.9zm-166.4-1.7c-.5.6-1.1 1.1-1.1 1.4.1.5.6 1.1 1 1.1s1.1-.6 1.1-1c.1-.3-.5-.8-1-1.5zm89.1-38c.6-.8 1.2-1.2 1.2-1.6 0-.4-.6-1.1-1-1.1s-1 .6-1.1 1c-.1.3.4.8.9 1.7zm104.8 94.5c-.8-.6-1.2-1.2-1.6-1.1-.4 0-.8.7-1.2 1 .4.4.7 1 1.1 1.1.5.1.9-.5 1.7-1zm-8.6-12.1c.6-.8 1.1-1.2 1.1-1.7 0-.3-.7-1-.9-1-.5.1-1.1.5-1.2 1 0 .3.5.8 1 1.7zm-53.3-276.4c-.7-.5-1.1-1.1-1.5-1.1-.5.1-.8.7-1.2 1 .3.4.7 1 1 1 .5.1.9-.5 1.7-.9zm-34.4 137.4c-.8-.6-1.3-1.2-1.6-1.2-.4.1-.9.7-1 1.2-.1.2.6.9 1 .9.4.1.8-.4 1.6-.9zm6.8-.1c-.7-.5-1.2-1.1-1.6-1.1s-1 .7-1 1.1c0 .4.6 1 1 1.1.5 0 .9-.6 1.6-1.1zm68.9 117.1c-.7-.7-1.1-1.3-1.5-1.3-.4 0-1 .6-1.1 1-.1.3.5 1.1.8 1.1.4.1.9-.4 1.8-.8zm-82.4-192.6c-.9-.5-1.3-1-1.8-1-.4 0-.7.6-1.1.9.4.4.7 1.1 1.1 1.1.5.1 1-.5 1.8-1zm-103 192.3c-.8-.5-1.3-1.1-1.7-1l-1.1 1.1c.4.4.8 1 1.2 1 .4.1.8-.5 1.6-1.1zm94.5-163.2c.5-.8 1.1-1.2 1-1.6 0-.4-.7-.7-1.1-1.1-.4.4-1 .8-1 1.2 0 .3.5.8 1.1 1.5zm48-85.7c-.5.8-1 1.2-1.1 1.7 0 .3.7 1 1 1 .5-.1 1.1-.6 1.2-1 0-.5-.6-1-1.1-1.7zm42.9 242c-.8-.5-1.3-1-1.7-1-.4.1-1 .7-1 1.1 0 .4.7 1 1.1 1 .4.1.9-.5 1.6-1.1zm-82.4-68.7c-.9-.5-1.4-1-1.8-1-.4.1-.9.7-.9 1.2 0 .3.7.9 1 .9.5 0 .9-.6 1.7-1.1zm109.9-102.9c-.8-.6-1.3-1.2-1.6-1.2-.4 0-.9.7-1.1 1.1-.1.2.6.9.9 1 .5.1 1-.4 1.8-.9zm-68.8-55.1c-.8-.5-1.3-1.1-1.6-1-.4.1-.8.7-1.1 1.1.4.3.7.9 1.1.9.5 0 .9-.5 1.6-1zm-56.5 53.6c-.5.6-1.1 1-1.1 1.4s.5.8.9 1.2c.4-.3 1-.6 1.2-1 0-.5-.5-1-1-1.6zm-32.6 152.5c-.9-.5-1.3-1-1.8-1-.4 0-1.1.8-1 1 .1.5.7 1 1.1 1.1.4.1.9-.5 1.7-1.1zm80.6-194c-.5.8-1.1 1.3-1 1.7s.7.8 1.1 1.1c.4-.4 1-.8 1-1.2 0-.4-.6-.8-1.1-1.6zm-135.6 200.9c-.9-.5-1.3-1-1.8-1-.4 0-1 .7-.9 1 0 .4.6 1 1 1 .4.1.8-.4 1.7-1zm109.8-103.2c-.8-.5-1.4-1-1.7-1-.4.1-.9.8-1 1.2 0 .2.7.9 1.1.9.4 0 .8-.5 1.6-1.1zm5.2 12.4c-.5.7-1 1.1-1 1.5.1.4.6.7 1 1.1.3-.4.9-.7 1-1.1.1-.4-.5-.8-1-1.5zm-6.7-.1c-.6.7-1.2 1.2-1.1 1.5.1.5.6.8 1 1.2.4-.3 1-.6 1-1 0-.5-.5-.9-.9-1.7zm-13.8 71.8c.5-.6 1-1.1 1-1.4 0-.4-.6-.7-1-1.1-.4.4-1 .7-1.1 1.1 0 .3.6.8 1.1 1.4zm-5.5-132c-.6-.5-1-1.1-1.3-1-.5.1-.8.7-1.2 1 .4.4.8.9 1.2 1 .2.1.7-.5 1.3-1zm110 199.2c-.6-.5-1-1.1-1.3-1-.5.1-.8.6-1.3 1 .4.4.7.9 1.2 1 .3 0 .7-.5 1.4-1zm-104.5-77.1c-.5.7-1.1 1.1-1.1 1.5.1.4.6 1 1.1 1.1.3.1 1-.6 1-1s-.5-.9-1-1.6zm15.3-81.1c-.8-.5-1.3-1-1.6-.9-.4.1-1 .8-1 1.1 0 .4.7 1 1.1 1 .3.1.7-.6 1.5-1.2zm-116.8 158.2c-.7-.5-1.2-1.1-1.6-1.1-.4 0-.7.6-1.1 1 .4.4.7.9 1.2 1 .3.1.8-.4 1.5-.9zm101.5-83.9c-.5.6-1.1 1-1.1 1.4s.5.8.9 1.2c.4-.4 1-.6 1.2-1.1 0-.3-.6-.9-1-1.5zm77 29c-.7-.5-1.1-1-1.5-.9-.4 0-.7.6-1.1.9.4.4.7 1 1.1 1.1.4 0 .8-.6 1.5-1.1zm46.7-159.7c-.6.9-1.2 1.3-1.1 1.7.1.4.7.9 1.2 1 .3.1.9-.6.9-1s-.5-.9-1-1.7zm-123.8 3.3c.6-.8 1.2-1.3 1.1-1.7-.1-.4-.7-.9-1.2-1-.3 0-1 .6-1 1 .1.5.6.9 1.1 1.7zm20.7-20.8c.5-.6 1.1-1.1 1-1.4-.1-.5-.7-.8-1.1-1.2-.4.4-.9.8-1 1.2 0 .4.6.8 1.1 1.4zm-123.5 219.9c.4-.7.9-1.2.9-1.7 0-.3-.8-1-1-.9-.4.2-.9.7-1 1.1-.1.5.5.8 1.1 1.5zm152.4-242c-.6-.5-1-1.1-1.4-1-.4 0-.8.6-1.2.9.4.4.7 1 1.1 1.1.3.1.8-.5 1.5-1zm-22 12.3c-.5.6-1.1 1-1.1 1.4 0 .4.5.8.8 1.2.4-.3 1-.6 1.2-1 .1-.5-.5-1-.9-1.6zm90.8 269.3c-.7-.5-1.1-.9-1.5-.9-.4 0-.7.6-1.1.9.4.4.7.9 1.2 1 .3.1.7-.5 1.4-1zm-34.4-68.7c-.7-.5-1.2-1-1.5-.9-.4.1-.7.7-1.1 1.1.4.3.8.8 1.2.8.4.1.7-.5 1.4-1zm-77.2-67.1c.5-.6 1.1-1.1 1.1-1.4-.1-.4-.6-.8-1-1.2-.3.4-.9.7-1 1.1 0 .3.5.8.9 1.5zm7.1-16.9c-.6.8-1.2 1.3-1.2 1.6 0 .4.6 1 1.1 1.1.3.1 1-.6 1-.9.1-.5-.4-1-.9-1.8zm0-3.7c.5-.8.9-1.3.9-1.7 0-.3-.7-.6-1-1-.3.4-.9.8-.9 1.2-.2.4.4.8 1 1.5zm-12.2-56.4c-.9-.6-1.3-1.1-1.7-1.1-.3 0-1 .6-1 1s.5 1 .9 1c.4.1.9-.4 1.8-.9zm5.2 22c.5-.7 1-1.1 1-1.5s-.6-.7-.9-1.1c-.4.4-.9.7-1.1 1.1-.1.3.5.8 1 1.5zm-5.4-15.1c-.6-.5-1-1.1-1.3-1.1-.4.1-.8.6-1.2 1 .3.3.7.9 1.1 1 .3.1.7-.4 1.4-.9zm-104.5 183.7c-.5.8-1 1.3-1 1.7 0 .3.7.9 1 .9.4 0 1-.6 1-1l-1-1.6zm.1-10.5c.5-.8 1-1.3 1-1.7 0-.3-.7-.9-1-.9-.4 0-1 .6-1.1.9 0 .5.5.9 1.1 1.7zm83.9-56.4c-.8-.6-1.3-1.2-1.6-1.2-.4.1-.9.7-1 1.2-.1.3.6.9 1 1 .4 0 .8-.5 1.6-1zm109.8 41.3c-.6-.5-1-1.2-1.3-1.1-.4.1-1 .6-1.1 1-.1.2.5.9.9 1 .4 0 .8-.5 1.5-.9zm-192.3-.2c-.6-.5-1-1-1.4-1s-.8.6-1.1.9c.4.4.7 1 1.2 1.1.2.1.7-.5 1.3-1zm53.4-35.8c-.4.7-.9 1.2-.8 1.5.1.4.6.7 1 1 .3-.4.9-.7.9-1.1 0-.3-.5-.7-1.1-1.4zm164.9 75.4c-.5.7-1.1 1.2-1 1.5.1.4.7.8 1.1 1.1.3-.4 1-.7 1-1.1 0-.3-.6-.7-1.1-1.5zm-8.3-5.3c.7.5 1.1 1 1.4 1 .4-.1.7-.7 1.1-1-.4-.4-.7-.9-1.1-1-.3 0-.7.5-1.4 1zm-101.7-131.9c-.4.7-.9 1.1-.9 1.5.1.4.7.7 1 1 .3-.4.8-.8.8-1.2.2-.4-.4-.7-.9-1.3zm42.7-170.4c-.6-.5-1-1-1.3-.9-.4.1-.7.6-1.1 1 .3.3.6.9 1 .9.3 0 .7-.5 1.4-1zm68.7 75.6c-.7-.4-1.1-.9-1.5-.8-.3 0-.9.7-.8.9.1.4.6.8 1.1.9.3 0 .6-.5 1.2-1zm-48 151.3c-.7-.5-1.1-1-1.5-1-.3 0-1 .6-.9.8.1.4.5 1 .9 1.1.3 0 .8-.5 1.5-.9zm48.1 96.1c-.6-.5-1-1.1-1.3-1.1-.4 0-1 .6-1 .9 0 .4.5 1 .9 1 .2.2.7-.3 1.4-.8zm-35.8-67.2c.4-.7.9-1.2.9-1.6 0-.3-.7-.9-.9-.9-.4.1-1 .6-1 .9 0 .4.5.9 1 1.6zm-81.2-138.9c-.5-.5-.9-1-1.2-1-.4.1-.7.6-1.1.9.3.3.7.8 1.1.9.3.1.7-.4 1.2-.8zm96.4 164.8c-.7-.5-1.1-1-1.5-.9-.4 0-.9.6-.9 1 0 .3.6.9 1 .9.3 0 .7-.5 1.4-1zm-55-267.8c-.6-.5-1-1.1-1.2-1-.4.1-.8.5-1.1.8.3.3.5.9.8 1 .3 0 .7-.4 1.5-.8zm-34.4 151.1c-.6-.5-1-1.1-1.3-1-.4.1-.9.5-1 .9-.1.2.5.9.8.9.4.1.8-.4 1.5-.8zm0-27.5c-.6-.5-.9-1-1.2-1-.4.1-.9.5-1 .9-.1.2.5.9.8.9.3.1.7-.4 1.4-.8zm0-6.9c-.6-.5-1.1-1-1.3-.9-.4.1-.8.6-1 1-.1.2.5.9.8.9.4-.1.8-.6 1.5-1zm26.1-87.9c.4-.7.9-1.1.9-1.4-.1-.4-.6-.7-1-1-.3.3-.9.7-.9 1 .1.3.5.7 1 1.4zm42.7 197.9c-.7-.5-1.1-1-1.5-1-.3 0-.8.5-.9.9 0 .3.5.9.8 1 .4-.1.8-.5 1.6-.9zm-83.9-163.6c.4-.6.9-1.1.8-1.3-.1-.4-.6-.9-1-1-.2-.1-.9.6-.9.9.1.4.6.8 1.1 1.4zm6.8 120.8c-.5.8-1 1.2-.9 1.5.1.4.6.8 1.1.9.2 0 .8-.6.8-.9-.1-.4-.5-.8-1-1.5zm0-6.9c-.5.8-.9 1.2-.9 1.6.1.4.7.8 1.1.9.2 0 .8-.6.8-1-.1-.4-.5-.8-1-1.5zm-5.5-94.6c-.6-.5-1-1.1-1.3-1-.4.1-.8.6-1.1.9.3.3.6.9.9.9.4.1.9-.3 1.5-.8zm6.9-27.6c-.7-.4-1.1-.9-1.4-.9-.3 0-.6.6-.9.9.4.3.7.8 1.1.9.2.1.6-.4 1.2-.9zm-109.9 220c-.6-.5-1-1.1-1.2-1-.4.1-.9.5-1.1.9-.1.2.5.9.8.9.4 0 .9-.4 1.5-.8zm6.9-34.4c-.6-.5-1-.9-1.4-1-.3 0-.9.6-.9.8.1.4.5.9.9 1 .4.2.8-.3 1.4-.8zm206.1 41.2c-.6-.5-1-1-1.3-.9-.4.1-.9.5-1 .9-.1.2.5.9.9.9.3 0 .7-.5 1.4-.9zm-207.4-35.7c-.5.6-1 1-1 1.4 0 .4.6.7.9 1 .3-.4.8-.7.9-1.1.2-.3-.4-.7-.8-1.3zm-6.8 20.5c-.5.6-1.1 1-1 1.2.1.4.6.7.9 1.1.3-.3.8-.6.9-1 0-.2-.4-.6-.8-1.3zm104.2-67.3c-.7-.4-1.1-.9-1.4-.9s-.9.7-.8.9c.1.4.6.8 1 .9.3.1.6-.5 1.2-.9zm20.7-158.1c-.7-.3-1.1-.7-1.5-.7-.3.1-.8.5-.8.9 0 .2.5.8.7.8.5-.1.8-.5 1.6-1zm-42.7 170.6c-.4.6-.9 1-.9 1.3.1.4.6.7 1 1.1.3-.4.8-.7.9-1.1.1-.4-.5-.8-1-1.3zm35.7-67.4c-.6-.5-1-1-1.3-1-.4.1-.7.6-1.1 1 .3.3.6.8 1 .9.4 0 .8-.5 1.4-.9zm-6.9 27.4c-.6-.4-1-.9-1.3-.9s-.9.6-.9.9c.1.4.6.9 1 1 .2 0 .7-.5 1.2-1zm-104.3 63.2c.5-.5 1-.9 1-1.2-.1-.4-.6-.8-.9-1.1-.3.3-.8.7-.9 1.1-.1.3.4.7.8 1.2zm111.2-97.5c-.6-.4-1-.9-1.3-.9-.3 0-.7.5-1 .8.3.4.6.9 1 1 .3.1.7-.5 1.3-.9zm75.6 110c-.6-.4-1-1-1.3-.9-.4.1-.7.6-1.1 1 .3.3.7.8 1 .8.4 0 .8-.5 1.4-.9zm-75.6-116.9c-.6-.4-1-.9-1.3-.9-.4 0-.7.5-1 .8.3.4.6.9 1 1 .3.1.7-.4 1.3-.9zm32.9-122.2c.5-.7 1-1 1.1-1.4 0-.3-.5-.8-.8-.9-.3 0-1 .4-1 .7-.1.4.3.8.7 1.6zm-150.9 251.5c-.4.6-1 1-.9 1.3.1.4.6.7 1 1 .3-.3.8-.6.8-1s-.5-.7-.9-1.3zm197.7 1.4c.8.4 1.2.9 1.6.8.3 0 .8-.6.8-.9 0-.3-.6-.9-.9-.9-.4 0-.8.5-1.5 1zm22-193.9c-.4.7-.8 1.1-.8 1.5 0 .3.6.6.9.9.3-.4.8-.7.9-1.1.1-.3-.5-.7-1-1.3zm-102.7-20.1c-.3-.2-.6-.3-.8-.5-.1.5-.4.9-.4 1.4.1.4.5.7.8 1.1.4-.4.8-.7 1.1-1.1 0-.2-.5-.6-.7-.9zm68.4 187.8c.5-.6 1-1 1-1.3-.1-.4-.6-.7-1-1.1-.3.3-.8.7-.8 1-.1.4.4.8.8 1.4zm-177.2-8.4c-.6-.4-1.1-.9-1.3-.8-.4.1-.6.7-.9 1.1.4.3.7.7 1.1.7.2 0 .5-.5 1.1-1zm144.3-233.6c-.7-.4-1.1-.9-1.4-.8-.4.1-.6.6-.9.9.3.3.6.8 1 .8.2 0 .6-.4 1.3-.9zm-49.4 97.7c.4-.6.8-1.1.8-1.4-.1-.4-.7-.6-1-.9-.3.4-.7.7-.7 1.1-.1.3.4.6.9 1.2zm-5.7-21.8c-.5-.5-.9-1-1.2-1-.3 0-.7.5-1 .8.4.3.7.8 1.1 1 .1 0 .5-.5 1.1-.8zm129.3 248.4c.4-.6.9-1.1.9-1.3-.1-.4-.7-.7-1-1-.3.4-.7.7-.8 1.1-.1.3.4.6.9 1.2zm-122.4-111.2c-.6-.4-1-1-1.2-.9-.4.1-.7.6-1 1 .3.3.6.8 1 .8.2 0 .6-.4 1.2-.9zm48.1-185.6c-.6-.4-1-.8-1.4-.8-.4.1-.6.6-.9.9.4.3.7.8 1.1.9.3 0 .6-.5 1.2-1zm-41.2 144.4c-.6-.5-1-.9-1.3-.9-.4 0-.7.5-1 .8.3.3.6.8.9.9.3.1.7-.4 1.4-.8zm96.2 109.9c-.6-.5-1-1-1.3-1-.4 0-.7.5-1 .8.3.3.6.9.9.9.3.2.7-.2 1.4-.7zm-96.3-164.9c-.6-.5-1-1-1.3-1s-.8.5-.9.9c0 .3.5.8.8.9.4.1.8-.4 1.4-.8zm89.4 157.9c-.6-.4-1-.8-1.4-.8-.3.1-.8.6-.8.9 0 .3.6.8.9.8.3.1.7-.4 1.3-.9zm-8.2-12.3c.4-.6.9-1 .9-1.3s-.6-.9-.9-.9-.9.5-.9.8c-.1.4.4.8.9 1.4zm28.8 46.7c-.6-.4-1-.9-1.3-.8-.3.1-.8.6-.8.9 0 .3.5.8.9.8.2.1.6-.4 1.2-.9zm-42.5-81c.4-.6.9-1 .8-1.3 0-.3-.6-.6-.9-.9-.3.3-.8.6-.8 1 0 .2.4.6.9 1.2zm-82.5-144.3c.4-.6.9-1 .8-1.3 0-.3-.6-.8-.9-.8-.3 0-.9.5-.9.9l1 1.2zm-94.8 170.6c-.7-.5-1-1-1.3-.9-.3 0-.8.5-.9.9-.1.2.5.8.8.8.3-.1.7-.4 1.4-.8zm102.9-151.2c-.6-.5-.9-.9-1.3-.9-.3 0-.8.5-.8.7 0 .4.4.9.7 1 .4.1.8-.4 1.4-.8zm-49.2 122.2c-.4.7-.8 1-.8 1.4 0 .3.5.6.8.9.3-.3.8-.6.9-.9 0-.3-.5-.7-.9-1.4zm164.8 75.5c-.5.6-1 1-.9 1.3.1.4.6.7.9 1.1.3-.3.8-.6.8-1 .1-.4-.3-.7-.8-1.4zm-33.2-53.4c-.5-.4-.8-.9-1.1-.9-.4.1-.7.5-1 .8.3.3.6.8.9.9.3 0 .7-.5 1.2-.8zm-56.2-205.1c.5-.6.9-.9 1-1.3 0-.2-.6-.8-.8-.7-.3 0-.7.5-.8.8-.2.3.2.6.6 1.2zm-26.1 156.8c-.7-.4-1.1-.9-1.4-.8-.3.1-.8.6-.8.9 0 .3.6.8.9.8.3.1.7-.4 1.3-.9zm-.1-13.6c-.6-.4-.9-.9-1.3-.9-.3 0-.8.6-.8.8.1.4.5.8.9.9.2 0 .6-.4 1.2-.8zm-104.2 104.3c.4-.7.9-1.1.8-1.4-.1-.3-.6-.7-1-.8-.2 0-.8.5-.7.8 0 .4.5.7.9 1.4zm1.4-28.8c-.7-.4-1.1-.8-1.4-.8s-.8.6-.8.8c.1.4.5.8.8.9.3 0 .7-.5 1.4-.9zm109.8-137.6c-.7-.4-1.1-.7-1.5-.7-.3 0-.7.6-.7.9 0 .3.5.8.8.8.4 0 .7-.5 1.4-1zm-111.1 125.2c.4-.7.8-1.1.8-1.4 0-.3-.6-.7-.9-.7s-.8.5-.8.8c0 .3.4.7.9 1.3zm138.5-214.2c-.6-.5-.9-1-1.1-.9-.4.1-.8.5-1 .8-.1.2.4.8.7.8.4 0 .8-.4 1.4-.7zm-41.2 54.9c-.6-.4-1-.9-1.3-.9-.3 0-.7.5-.8.9-.1.2.5.7.8.7.3.1.7-.3 1.3-.7z"/><path d="M221.8 679.4l4.4-1.4c.3-.1.4-.6.7-.8.5-.3 1.1-.7 1.6-.8.8-.1 1.7.1 2.5-.2 3.5-1.2 7-2.4 10.1-3.6-.2-.9-.5-1.7-.4-2.5 0-.3 1.4-.8 1.6-.6.6.5.9 1.4 1.5 2.4 1.1-.6 2.6-1.5 4.1-2.3.3-.2.7-.4.9-.3 1.7.8 3.2-.2 4.8-.6 7.5-1.7 15.1-2.8 22.8-1.5h.3c1.2.2 2.6.8 3.4.4.7-.4.6-2.1.8-3.2.3-1.4.6-2.8.8-4.2.1-.4.2-.9 0-1.1-1.1-1.2-.9-2.6-.6-4.1.5-2.9 1-5.7 1.6-8.6.2-.9.3-1.6-.5-2.3-.8-.7-.5-1.7.5-2.3.5-.3 1-.7 1.2-1.2 1.6-5.2 3.2-10.5 4.7-15.8.1-.5.1-1 .2-1.4l.6-2.1c.5-1.3 1.1-2.7 1.5-3.6-1-.7-1.7-1-2.2-1.6-.2-.2.1-1.3.4-1.4.7-.2 1.6-.1 2.8-.1.3-2 .9-4.5 1.1-7.1.3-3.7.1-7.5.5-11.2.3-2.3 1.3-4.6 2.2-7.3-.5-1.1-.5-1.3 1.4-2.6-.4-1-.8-2.1-1.4-3.1-1.9-3.7-2.9-7.5-2.1-11.6.6-3.6-.9-6.7-2.1-10-1 .5-2.2 1.1-2.8-.4-.5-1.4.5-1.8 1.8-2.2-1.9-3.9-3.8-7.6-5.8-11.5-1 .7-2.1 1.5-2.9.1-.8-1.4.4-2 1.2-2.2-1.8-6-3.7-12-5.4-17.5-1.2-.4-2.2-.4-2.6-.9-.7-.8.3-1.5.6-2.2.4-1.2.4-2.8 0-4-.4-.8-1.3-1.5-.4-2.3.5-.4 1.5-.3 2.2-.4l.1.4 3.4-3.3c.7-.7 1.3-1.2.8-2.4s.8-1.8 2.5-1.3c1.3-1.4 2.6-2.8 3.8-4.2.3-.3.5-.8.5-1.2.1-1.2.6-1.8 1.9-1.7.4 0 1-.1 1.3-.4 1.4-1.2 2.8-2.4 3.9-3.8.1-.8 0-1.9.5-2.4.4-.4 1.5-.1 2.3-.1l.1.5c1.8-1.5 3.5-2.9 5-4.2-.4-.9-.9-1.7-1-2.4 0-.3.9-1 1.1-.9.8.3 1.4.9 2.3 1.5 1.9-1.7 4-3.8 6.2-5.7 4.2-3.5 9.2-4.5 14.4-5.1 1.3-.2 2.6-.9 3.9-1.4-.2-.1-.3-.2-.5-.4.1-.8 0-2 .4-2.4.5-.4 1.6-.1 2.8-.1.3-.5 1.4-1.1.3-2.5-.4-.4.1-1.5.1-2.2 0-.6-.1-1.3-.2-1.9h-.5c-.2 1.1-.4 2.2-.5 3.3h-.2c-1.4-1.1-3.3-2.1-1.4-4.3l-1.7-8.6c-.1-.3-.6-.5-1.1-.9-.2-4.4.3-8.9 2.2-13.3.3-.7.7-1.2 0-2-.9-1-.1-2.1 1.3-2.2.6 0 1.2-.4 1.7-.8.8-.7 1.4-1.5 2.2-2.3.7-.8 1.7-1.2 1.6-2.6-.1-1 .8-1.3 1.9-1 .6.2 1.5.2 2.1 0 8.1-3.3 18.8-1.4 24.6 4.3 1.8 1.8 2.8 3.9 2.5 6.5-.1.4.1.8.2 1.2.5 1.8 1.1 3.7 1.4 5.5.4 2.2.6 4.3.9 6.5.1.8.1 1.7-.1 2.4-.6 1.9-.3 3.6.5 5.3.6 1.2 1.1 2.4 1.6 3.6.5 1.5.1 2.1-1.4 2.1-1.1 0-1.4.4-1.4 1.5 0 .8-.5 1.7-.8 2.5-.1.3-.1.6-.2 1 0 .4.1.9-.1 1.1-1.2 1.2-1.3 2.5-.8 4 .4 1.2-.4 1.9-1.5 2.4-2.4 1.2-4.9 1.2-7.4 1-1.4-.1-2.3.2-2.9 1.5-.9 1.9-2.5 3.1-4.4 3.9-1.5.7-2.6 2.1-3.6 2.9 4 10.1 8.5 19.6 10.8 29.7.5.5 1.3 1.1 1.3 1.5 0 .6-.8 1.1-1.6 1.5 0 .9-.1 1.9 0 2.8.1.5.5 1 .9 1.3.8.6 1.3 1.1.8 2.2-.2.4-.1.9 0 1.4.6 2.2 1.3 4.3 2 6.5.9-.6 2.3-.8 2.5-2.5 0-.3.8-.5 1.3-.7.9-.2 1.9-.2 2.8-.5l9.7-3.7-.4-.3c.3-.7.4-1.9 1-2.1.6-.3 1.5.3 2.3.5v.5c3.3-2.1 6.9-3.8 9.8-6.4 1.7-1.6 4.1-1.7 5.5-3.5.9-1.1 1.7-2.3 2.1-3.5.3-1.1.7-1.5 1.8-1.7.8-.1 1.7-.5 2.4-1 .9-.8 1.6-1.8 2.4-2.8.3-.4.3-.9.3-1.4.1-1.1.6-1.7 1.8-1.5 4 .5 6.4 2.9 7.9 6.4.6 1.3 1.5 2.5 2.4 3.6.9 1.2 1 2.3-.2 3.3-3 2.3-5.9 4.6-9 6.7-1 .7-2.4 1-3.6 1-1.5 0-2.7.3-3.8 1.2-3.7 2.8-7.6 5.4-11 8.5-7.3 6.5-15 12.4-23.2 17.8-3.1 2.1-6 2.6-9.5 2.3-.8-.1-1.7.3-2.5.6-.7.3-1.3.9-2.1 1-1.9.3-2.6 1.7-3 3.3l-2.4 11.8c-.4 1.8-.8 3.6-1.4 5.3-.3.8-.9 1.5-1.5 2.1-1.1 1.2-.7 2.4-.1 3.5.8 1.4 1.8 2.6 2.8 3.9 8.9 11.5 16.9 23.7 23.2 36.9 2 4.2 4.1 8.3 5.5 12.7 1.2 3.9 2.8 7.6 4.5 11.3.6 1.3.7 2.8 1 4.1.3 1.2.4 2.4.9 3.5 5.4 12.7 11.1 25.2 16.2 38 3.8 9.6 7 19.5 10.5 29.2 1.1 3 2.3 6.1 3.5 9.1l.3-.4c.9.4 1.8.7 2.6 1.1 3.1 1.5 6.1 3.3 9.3 4.6 2.2.9 7.6-.8 8.1-2.9.5-2.1 1.4-2.2 3-2.9 1.6-.7 2.7-2.6 4-4.1.2-.2 0-.6.1-.9.2-.5.4-1.2.8-1.5.3-.2 1 0 1.5.1.7.1 1.3.4 1.9.4 2.4-.2 3.4.3 4.5 2.5 1.3 2.6 1 5.3.3 7.9-1.8 6.4-5.4 11.9-9.9 16.8-1 1-2.5 1.7-3.8 2.1-5.8 2-11.7 3.8-17.6 5.8-1.9.6-3.6 1.7-5.4 2.4-3.6 1.4-6.5.3-8.4-3.1-.9-1.6-1.5-3.4-2.2-5-.9-.1-1.7 0-2.5-.2-.3-.1-.5-1.2-.3-1.4.5-.6 1.2-.9 2-1.4-.4-1.2 0-3.1-1.8-4.1-.2-.1-.3-.5-.3-.7.3-1.3.4-2.8 1.1-3.8.6-.9.3-1.2-.2-1.9-.4-.6-.6-1.3-.9-2-.2-.6-.2-1.2-.5-1.7l-6.1-10.4c-1.4-2.4-2.7-4.8-4.1-7.3-1.1.6-2.2 1.5-3 0-.6-1.2.3-1.8 1.5-2.4-4.4-5.9-8.8-11.7-13-17.3-.8-.2-1.7-.3-2-.7s.1-1.3.1-2c0-.3.1-.7 0-1-1.3-4.5-2.7-8.9-4.1-13.4-.5-1.6-.3-3.6-2.6-4.1-.2 0-.2-1.2-.2-1.8 0-.4.4-.9.2-1.3-1.4-3.8-2.8-7.6-4.2-11.5-.1-.2-.3-.4-.4-.7v.1c-1.9-4-4.4-7.6-7.9-10.4-.3-.3-.7-.5-1.2-.6-1.6-.6-3.2-1.1-4.9-1.7-.4.2-1.1.6-1.9.7-.2 0-.9-.7-.9-1 .1-.7.5-1.3.9-2.2-1.4-1.4-3-3.1-4.4-4.6-.9.4-1.7.8-2.5.9-.3 0-1-.8-.9-1.1.2-.7.7-1.3 1.2-2.1l-5.1-4.5c-.6.3-1.3.8-2 1-.3.1-1.1-.8-1-1 .2-.7.7-1.4 1.2-2.3-1.5-1.5-3.2-3.4-5.1-5.4-1 2.1-2 4.1-3.3 6.6 1.4-.7 2.5-.9 2.9.4.1.5-.2 1.4-.6 1.6-1.3.8-1.9-.2-2.4-1.3-1.8 4.1-3.6 8.1-5.1 11.6.6 1.2.9 2.1 1.3 2.9-.8.3-1.7.6-2.7 1-2.2 3.6-4.6 7.5-7 11.4l.1-.1c-2.3 2-3.4 4.7-4 7.7-.1.3-.1.6-.2.8-2.3 2.5-4.4 5.1-6.9 7.4-2.9 2.6-6.4 3.8-10.4 2.8-.7-.2-1.4 0-2.1 0-2.4.2-4.8.5-7.2.6-2.8.2-5.6.2-7.9.3 0 1.2.1 2.1.1 3-.7 0-1.5.3-1.9 0-1.1-.8-.5-1.7.7-2.7-2 .3-3.5.5-4.6.6-.9 1.1-1.3 2-2.1 2.4-.3.2-1.2-.8-1.8-1.5-1.4.1-3-.4-4.2 1.2-.2.3-.9.5-1.2.3-2.4-1.3-4.7 0-7 .2-7.8.7-15.6 1.6-23.3 2.5-4.4.5-8.7 1.2-13.1 1.9-1.5.2-3 .7-2.8 2.8 0 .6-.8 1.6-1.4 1.8-10.1 3.6-15.2 11.7-19.3 20.8-1.1 2.4-2.2 4.7-3.2 7.1-.7 1.6-1.7 2.6-3.6 2.4-.3 1.1-.7 2.3-2.2 1.6-1.3-.6-.9-1.7-.3-2.6-2.1-1.9-3-4-2.4-6.8.8-3.4 1.6-6.8 1.9-10.2.1-1.9.7-3.6 1.1-5.5.2-1 .6-2.1-.7-2.9-.2-.1 0-1.8.2-1.9 2-.4 1.5-2.2 1.9-3.4.1-.4.1-.8.1-.8-.9-.4-1.7-.6-2.3-1-.2-.2-.1-1.3.1-1.4.7-.3 1.5-.4 2.7-.6.3-2 .8-4.6 1.2-7.1l1.4-9c.9-4.7 5.1-7.1 9.6-5.4 1.7.6 3.4 1.6 4.9 1.9.8-.3 1.7-1 2.3-.8.5.2.7 1.4 1.1 2.1l-.4.5c2.1.3 4.3.7 6.4.9 1.3.1 2.4.4 2.8 2.2 3.7-1 7.2-2 10.7-3zM276.3 645.5c-.7-1-1.4-1.5-1.4-2.1 0-.5.8-1.4 1.2-1.3.6.1 1.4.7 1.5 1.3 0 .5-.7 1.1-1.3 2.1zM214.6 675.8c.6 1 1.3 1.7 1.2 2.2 0 .5-1 1.3-1.4 1.2-.5-.1-1.3-.9-1.3-1.4 0-.5.8-1.1 1.5-2zM333.3 437.4c-1 .6-1.7 1.3-2.2 1.2-.5-.1-1.2-.9-1.2-1.5 0-.4.9-1.2 1.3-1.2.6.1 1.1.8 2.1 1.5zM271.5 519.9c-1 .6-1.7 1.3-2.2 1.2s-1.2-.9-1.3-1.4c0-.4.9-1.2 1.3-1.2.6 0 1.1.7 2.2 1.4zM395 519.8c-1 .7-1.6 1.4-2.1 1.3-.5-.1-1.2-.9-1.3-1.4-.1-.4.8-1.2 1.3-1.3.6.1 1.1.7 2.1 1.4zM420.3 741.7c-.6-1-1.2-1.6-1.2-2.2 0-.5.9-1.3 1.3-1.2.6.1 1.4.8 1.4 1.3s-.7 1.1-1.5 2.1zM221.9 679.4c-.3 0-.6 0-.8-.1-1-.4-1.5-1.1-.9-2 .3-.4 1.4-.8 1.9-.6 1 .4 1.1 1.3.4 2.2-.3.1-.5.3-.6.5zM358.6 675.7c.7 1 1.5 1.6 1.5 2.1-.1.5-.8 1.2-1.4 1.4-.3.1-1.2-.8-1.3-1.2-.1-.6.6-1.2 1.2-2.3zM386 730.7c.7 1 1.5 1.6 1.4 2.1s-.8 1.2-1.4 1.3c-.4.1-1.3-.8-1.3-1.3.1-.5.7-1.1 1.3-2.1zM312.7 485.6c-1.1.6-1.7 1.2-2.2 1.2s-1.3-.9-1.2-1.3c.1-.6.8-1.3 1.3-1.4.5 0 1.1.7 2.1 1.5zM331.2 648.3c.7 1 1.5 1.6 1.4 2.1-.1.5-.9 1.2-1.4 1.3-.4.1-1.2-.8-1.3-1.3-.1-.6.6-1.1 1.3-2.1zM324.3 466.9c-.7-1-1.4-1.6-1.4-2.1s.9-1.4 1.2-1.3c.6.1 1.4.8 1.4 1.3.2.5-.5 1.1-1.2 2.1zM324.3 446.3c-.7-1-1.4-1.6-1.3-2.1.1-.5.9-1.2 1.5-1.2.4 0 1.2.8 1.2 1.3 0 .4-.7 1-1.4 2zM269.4 528.8c-.7-1-1.5-1.6-1.4-2.1.1-.5.8-1.3 1.4-1.4.4-.1 1.3.8 1.3 1.3 0 .6-.6 1.2-1.3 2.2zM276.1 655.2c.7 1 1.5 1.6 1.4 2.1-.1.5-.8 1.2-1.4 1.3-.4.1-1.2-.8-1.3-1.2 0-.6.7-1.2 1.3-2.2zM384.1 526.6c1-.7 1.7-1.4 2.2-1.3.5.1 1.2.9 1.3 1.5 0 .4-.9 1.2-1.4 1.2-.7.1-1.1-.7-2.1-1.4zM278.3 650.2c-1 .7-1.6 1.5-2.1 1.4-.5 0-1.2-.8-1.4-1.4-.1-.4.8-1.3 1.2-1.3.7.1 1.3.7 2.3 1.3zM207.6 675.8c.7 1 1.3 1.6 1.3 2.2 0 .5-.9 1.3-1.3 1.3-.5-.1-1.3-.8-1.4-1.3 0-.7.7-1.2 1.4-2.2zM289.9 607c.7 1 1.3 1.6 1.3 2.1s-.8 1.4-1.2 1.3c-.6-.1-1.4-.8-1.5-1.3.1-.5.8-1.1 1.4-2.1zM292.1 595.3c-1 .7-1.6 1.4-2.1 1.4s-1.4-.9-1.3-1.2c.1-.6.8-1.3 1.3-1.4.4-.2 1 .6 2.1 1.2zM292 581.5c-1 .7-1.5 1.4-2.1 1.4-.5 0-1.4-.8-1.4-1.2.1-.6.7-1.4 1.3-1.5.5 0 1.2.7 2.2 1.3zM358.7 682.6c.7 1 1.4 1.7 1.3 2.1-.1.5-.9 1.2-1.5 1.2-.4 0-1.2-.9-1.2-1.3.1-.4.7-1 1.4-2zM276.3 693.7c-.7-1-1.5-1.6-1.4-2 .1-.5.8-1.2 1.4-1.4.4-.1 1.2.8 1.3 1.2 0 .5-.7 1.1-1.3 2.2zM363.5 705.3c1-.7 1.6-1.4 2.1-1.3.5 0 1.4.9 1.3 1.2-.1.6-.8 1.4-1.3 1.5-.5.1-1.1-.7-2.1-1.4zM436.2 732.8c-1 .7-1.6 1.3-2.1 1.3s-1.3-.9-1.3-1.2c.1-.6.8-1.4 1.3-1.5s1.1.7 2.1 1.4zM381.4 725.8c-1 .7-1.5 1.4-2.1 1.4-.5 0-.9-.8-1.4-1.2.5-.5.9-1.3 1.5-1.4.4-.2 1 .6 2 1.2zM326.4 457.9c-1 .7-1.5 1.5-2 1.4-.5-.1-1.2-.8-1.4-1.4-.1-.3.8-1.2 1.3-1.3.5 0 1.1.7 2.1 1.3zM237.1 671c-1 .7-1.6 1.4-2.1 1.3-.5 0-.9-.9-1.3-1.3.5-.5.9-1.2 1.5-1.3.3-.1.9.6 1.9 1.3zM388.1 739.6c-.9.7-1.5 1.4-2 1.4s-.9-.8-1.4-1.2c.5-.5.9-1.3 1.4-1.4.4-.2 1 .5 2 1.2zM276.2 542.5c-.6-1-1.3-1.6-1.3-2.1s.9-1.3 1.3-1.3c.6.1 1.4.8 1.4 1.3 0 .6-.7 1.2-1.4 2.1zM291.6 575c-.5.4-1.1 1-1.6 1s-1-.8-1.4-1.2c.5-.5.9-1.3 1.4-1.4.5-.1 1.1.6 1.6 1v.6zM392.9 741.7c-.6-1-1.3-1.6-1.3-2.2 0-.5.9-1.3 1.3-1.2.6.1 1.4.8 1.4 1.3s-.7 1.1-1.4 2.1zM180 689.5c.7 1 1.4 1.5 1.4 2.1 0 .4-.8 1.3-1.2 1.3-.6-.1-1.4-.7-1.5-1.2 0-.5.7-1.2 1.3-2.2zM309.1 670.2c.3-.2.5-.4.8-.5.9-.4 1.8-.1 1.9.9.1.6-.5 1.5-1 1.7-.9.4-1.6-.2-1.7-1.2 0-.3.1-.6 0-.9zM271.4 664.2c-1 .6-1.6 1.3-2.1 1.2-.5-.1-.9-.9-1.4-1.4.5-.4 1-1.1 1.6-1.2.5 0 1 .7 1.9 1.4zM367.7 533.6c-1 .7-1.6 1.4-2.1 1.3-.5 0-1.2-.9-1.3-1.4-.1-.4.8-1.2 1.3-1.2s1.1.6 2.1 1.3zM292 499.2c-1 .7-1.6 1.5-2.1 1.4-.6-.1-1.2-.9-1.3-1.5-.1-.3.8-1.2 1.3-1.2.5-.1 1.1.6 2.1 1.3zM365.6 689.5c.7 1 1.4 1.7 1.3 2.2s-.9 1.1-1.5 1.2c-.4 0-1.2-.8-1.2-1.3.1-.6.7-1.1 1.4-2.1zM324.4 453.1c-.7-1-1.4-1.5-1.5-2 0-.4.8-1.3 1.2-1.3.6 0 1.4.7 1.5 1.2.1.5-.6 1.1-1.2 2.1zM367.7 698.4c-1 .7-1.6 1.4-2.1 1.4s-1.3-.8-1.3-1.2c.1-.6.7-1.4 1.2-1.4.5-.1 1.1.6 2.2 1.2zM278.3 533.5c-1 .7-1.5 1.4-2.1 1.4-.5 0-1.4-.8-1.3-1.2.1-.6.8-1.4 1.3-1.4.5-.1 1.1.6 2.1 1.2zM379.3 524.7c.6 1 1.4 1.6 1.3 2.1-.1.5-.9.9-1.4 1.4-.4-.5-1.2-1-1.3-1.6 0-.5.7-1 1.4-1.9zM324.3 473.7c-.7-.9-1.4-1.5-1.3-1.9.1-.6.8-1.3 1.4-1.4.3-.1 1.3.8 1.3 1.3s-.7 1.1-1.4 2zM296.9 494.4c-.7-1-1.4-1.5-1.4-2s.8-1.4 1.2-1.3c.5 0 1.4.7 1.5 1.2 0 .5-.7 1.1-1.3 2.1zM289.9 590.6c-.6-1-1.3-1.7-1.2-2.2.1-.5.9-1.1 1.5-1.2.3 0 1.1.9 1.1 1.4-.1.5-.7 1-1.4 2zM360.2 670.5c-.1.4-.1.9-.3 1.1-.6.3-1.3.5-1.9.7l-.6-2 2.1-.4c.3 0 .5.4.7.6zM401.8 513.1c-.9.6-1.5 1.3-1.9 1.2-.6-.1-1-.9-1.5-1.4.5-.4 1-1.2 1.6-1.2.4-.1.9.7 1.8 1.4zM283 618c-.6-.9-1.4-1.5-1.3-1.9.1-.6.9-1 1.3-1.5.5.5 1.2 1 1.3 1.5.1.4-.6 1-1.3 1.9zM278.4 664.2c-1.1.6-1.7 1.3-2.2 1.2-.5-.1-.9-.9-1.3-1.4.5-.4 1-1.2 1.4-1.2.5 0 1 .7 2.1 1.4zM353.9 664.2c-1 .6-1.7 1.2-2.2 1.2-.5-.1-.9-.9-1.3-1.4.5-.4 1-1.2 1.6-1.2.4-.1.9.7 1.9 1.4zM278.3 636.8c-1.1.6-1.7 1.2-2.3 1.1-.5-.1-1.2-.9-1.1-1.4.1-.5.9-1.3 1.3-1.2.6 0 1.1.7 2.1 1.5zM399.8 765c.7 1 1.3 1.6 1.3 2.2 0 .5-.9 1.4-1.2 1.3-.6-.1-1.3-.8-1.4-1.3-.1-.6.6-1.2 1.3-2.2zM285.1 636.7c-1 .6-1.6 1.3-2.1 1.3s-1.3-1-1.2-1.3c.2-.6.9-1.2 1.4-1.4.4-.1 1 .6 1.9 1.4zM175.3 725.9c-1 .7-1.6 1.4-2 1.3-.5-.1-1-.9-1.4-1.4.5-.4 1-1.1 1.6-1.3.3 0 .8.7 1.8 1.4zM283 556.2c-.6-1.1-1.3-1.7-1.2-2.2 0-.5.8-.9 1.3-1.3.5.5 1.3.9 1.3 1.5 0 .4-.7 1-1.4 2zM175.3 712.1c-1 .7-1.5 1.4-2.1 1.4-.5 0-1.4-.8-1.3-1.2.1-.6.7-1.3 1.3-1.4.4-.1 1.1.6 2.1 1.2zM276.3 545.3c.7 1 1.3 1.6 1.3 2.2 0 .4-.9 1.2-1.4 1.2s-1.3-.8-1.3-1.3c0-.6.7-1.1 1.4-2.1zM291.6 692c-.6.3-1.1.9-1.7.9-.5 0-1.3-.8-1.2-1.2 0-.5.8-1.3 1.2-1.3.5 0 1.1.6 1.7 1v.6zM290 604.2c-.7-.9-1.5-1.5-1.5-2s.9-1.4 1.3-1.3c.5 0 1.2.8 1.4 1.3.2.5-.5 1.1-1.2 2zM173.3 721c-.7-1-1.4-1.5-1.4-2.1 0-.5.9-1.4 1.2-1.3.6.1 1.3.8 1.4 1.3.1.6-.6 1.2-1.2 2.1zM326.3 437.3c-.9.6-1.4 1.3-1.9 1.3s-.9-.8-1.4-1.2c.5-.5.9-1.3 1.4-1.4.4-.1 1 .7 1.9 1.3zM285.1 629.7c-.9.7-1.5 1.4-1.9 1.3-.6-.1-1-.9-1.5-1.3.5-.5.9-1.2 1.5-1.3.4-.1 1 .7 1.9 1.3zM395 746.4c-.9.7-1.5 1.4-2 1.4s-1-.9-1.4-1.4c.5-.5 1-1.2 1.5-1.3.4 0 1 .7 1.9 1.3zM427.4 741.7c-.7-.9-1.5-1.5-1.4-1.9.1-.6.8-1.1 1.3-1.6.5.4 1.3.8 1.4 1.3 0 .6-.7 1.2-1.3 2.2zM326.4 478.6c-1 .7-1.7 1.3-2.2 1.3-.5-.1-.9-.9-1.4-1.4.5-.4.9-1.2 1.4-1.2.6-.1 1.2.6 2.2 1.3zM305.8 485.6c-1 .6-1.6 1.2-2.2 1.2-.5 0-1.3-.9-1.3-1.2.1-.6.8-1.4 1.3-1.4.6-.1 1.2.6 2.2 1.4zM285.1 691.5c-.9.7-1.4 1.5-1.8 1.4-.6-.1-1.1-.8-1.6-1.2.5-.5.9-1.3 1.4-1.4.4-.1 1 .6 2 1.2zM175.3 732.7c-1 .7-1.6 1.4-2.1 1.4-.4 0-1.2-.8-1.2-1.3s.7-1.3 1.1-1.3c.6-.1 1.2.5 2.2 1.2zM372.3 531.5c.7 1 1.4 1.5 1.4 2.1 0 .5-.8.9-1.2 1.4-.5-.5-1.2-.9-1.4-1.4 0-.4.6-1.1 1.2-2.1zM292 567.9c-.9.7-1.5 1.4-1.9 1.3-.6-.1-1.1-.8-1.6-1.3.5-.5 1-1.2 1.6-1.4.4-.1.9.7 1.9 1.4zM283.1 558.9c.6 1 1.3 1.6 1.2 2-.1.5-.9 1-1.3 1.4-.4-.5-1.2-.9-1.2-1.4s.7-1 1.3-2zM285.1 622.8c-1 .7-1.5 1.5-2 1.4-.6-.1-1.2-.8-1.4-1.4-.1-.3.8-1.2 1.2-1.3.6 0 1.2.7 2.2 1.3zM269.5 538.5c.6.9 1.3 1.5 1.2 2s-.8.9-1.3 1.3c-.5-.5-1.2-.9-1.3-1.5-.1-.4.7-.9 1.4-1.8zM282.8 507.8c-.4-.6-1-1.1-1-1.7 0-.5.8-1.3 1.3-1.3s1.3.7 1.3 1.2c0 .6-.6 1.2-.9 1.8-.3-.1-.5-.1-.7 0zM278.2 506c-.9.7-1.4 1.4-1.9 1.3-.6-.1-1-.9-1.5-1.3.5-.4.9-1.2 1.4-1.2.5 0 1.1.6 2 1.2zM317.4 480.6c-.7-1-1.4-1.6-1.3-2 .1-.6.9-1 1.4-1.4.4.5 1.2.9 1.2 1.4.1.5-.6 1.1-1.3 2zM271.3 512.9c-.9.7-1.5 1.3-1.9 1.3-.5 0-1-.8-1.4-1.2.4-.5.9-1.2 1.4-1.3.4-.1 1 .6 1.9 1.2zM276.1 510.9c.7.9 1.5 1.5 1.5 2s-.8 1.2-1.4 1.4c-.4.1-1.3-.7-1.3-1.2-.1-.6.6-1.2 1.2-2.2zM360.7 691.6c-1 .6-1.5 1.3-2 1.3-.5-.1-.9-.8-1.4-1.2.4-.4.9-1.2 1.4-1.2.5-.2 1 .5 2 1.1zM351.8 672.9c-.6-.9-1.3-1.5-1.2-1.9.1-.5.8-1 1.3-1.5.4.5 1.2 1 1.2 1.5.1.5-.7 1.1-1.3 1.9zM392.8 514.9c-.6-1-1.2-1.6-1.1-2.1s.9-1.1 1.4-1.1c.4 0 1.1.9 1.1 1.3 0 .6-.7 1-1.4 1.9zM173.3 696.5c.6 1 1.3 1.5 1.3 2.1 0 .5-.9 1.3-1.2 1.2-.6-.2-1.2-.8-1.4-1.4-.2-.4.6-1 1.3-1.9zM386 521.8c-.6-.9-1.3-1.4-1.2-1.9 0-.5.8-.9 1.2-1.4.5.5 1.3.9 1.4 1.4.1.4-.7 1-1.4 1.9zM230.1 671c-.9.6-1.5 1.3-1.9 1.2-.6-.1-1-.9-1.4-1.4.5-.5 1-1.2 1.5-1.3l1.8 1.5zM264.1 664.4c-.6.4-1.1 1.1-1.7 1-.5 0-1.2-.8-1.3-1.3 0-.5.7-1.3 1.2-1.3.5-.1 1.1.6 1.7.9.1.2.1.5.1.7zM255.6 662.1c.6.9 1.4 1.5 1.3 1.9-.1.6-.9 1-1.4 1.5-.4-.5-1.2-1-1.2-1.5s.7-1 1.3-1.9zM338 659.3c-.7-1-1.4-1.6-1.3-2 .1-.6.9-1.2 1.4-1.3.4-.1 1.2.8 1.2 1.3.1.4-.6 1-1.3 2zM175.3 705.4c-1 .6-1.6 1.3-2.1 1.3s-1.3-1-1.2-1.3c.1-.5.8-1.2 1.4-1.3.4-.1.9.6 1.9 1.3zM372.3 714.3c-.6-1.1-1.2-1.7-1.2-2.2s.9-1.3 1.2-1.2c.6.1 1.3.8 1.4 1.3.1.6-.6 1-1.4 2.1zM381.4 719c-1 .7-1.6 1.4-2.1 1.3-.5-.1-1.2-.9-1.3-1.4-.1-.3.8-1.2 1.3-1.2s1.1.6 2.1 1.3zM392.9 751.3c.7 1 1.4 1.5 1.4 2.1 0 .5-.8 1.3-1.2 1.3-.6-.1-1.4-.7-1.5-1.2-.1-.5.6-1.2 1.3-2.2zM276.3 556c-.7-.8-1.5-1.4-1.4-1.8.1-.6.8-1 1.3-1.5.5.5 1.2.9 1.3 1.4.1.4-.6 1-1.2 1.9zM429.2 732.9c-.9.6-1.4 1.2-1.9 1.2-.5-.1-1.3-.9-1.3-1.2.2-.6.8-1.3 1.4-1.4.4-.2 1 .6 1.8 1.4zM181.9 677.9c-.9.6-1.4 1.3-2 1.3-.4 0-1.3-.9-1.2-1.2.1-.5.8-1.3 1.3-1.4.5 0 1 .7 1.9 1.3zM333.2 657.3c-1 .6-1.6 1.2-2 1.1-.5-.1-.9-.8-1.3-1.3.5-.4.9-1.2 1.4-1.2.4 0 .9.7 1.9 1.4zM278.2 629.6c-.9.7-1.5 1.4-1.9 1.4-.5 0-1-.8-1.4-1.2.4-.5.8-1.2 1.3-1.3.4-.1 1 .5 2 1.1zM388 746.6c-.9.6-1.5 1.2-2 1.1-.5-.1-.9-.8-1.4-1.3.5-.4.9-1.2 1.4-1.2.6 0 1.1.7 2 1.4zM271.3 657.3c-.9.6-1.4 1.2-1.9 1.2-.5-.1-1-.7-1.5-1.2.5-.5.9-1.2 1.5-1.3.4-.1 1 .6 1.9 1.3zM285 499.1c-.9.7-1.4 1.5-1.8 1.4-.6-.1-1-.9-1.5-1.4.5-.4.9-1.2 1.4-1.2.5 0 1 .6 1.9 1.2zM269.5 535.5c-.7-.9-1.5-1.4-1.4-1.9 0-.5.8-1.3 1.3-1.3.4 0 1.3.7 1.4 1.2-.1.5-.7 1.1-1.3 2zM392.8 765.1c.7.9 1.4 1.4 1.4 1.9s-.7 1-1.1 1.5c-.5-.4-1.3-.8-1.5-1.4-.1-.4.6-1 1.2-2zM250.7 664.1c-.9.6-1.5 1.3-2 1.3-.5-.1-.9-.8-1.4-1.2.5-.5.9-1.2 1.4-1.3.5-.1 1 .6 2 1.2zM358.7 696.5c.7.9 1.3 1.5 1.3 2-.1.5-.8.9-1.3 1.4-.5-.5-1.2-.9-1.3-1.4-.1-.5.6-1 1.3-2zM271.3 650.4c-.9.6-1.5 1.2-2 1.2-.5-.1-.9-.8-1.3-1.3.5-.4.9-1.2 1.4-1.2.5 0 1 .7 1.9 1.3zM310.5 480.6c-.6-1-1.3-1.6-1.2-2 .1-.5.9-1.2 1.4-1.2.4 0 1.1.8 1.2 1.3 0 .4-.7.9-1.4 1.9zM381.2 732.7c-.8.6-1.4 1.4-1.8 1.3-.5-.1-1-.9-1.4-1.3.5-.4.9-1.2 1.4-1.3.4 0 1 .7 1.8 1.3zM285.1 609.1c-1 .6-1.5 1.3-2 1.2-.5-.1-.9-.8-1.4-1.3.5-.4.9-1.2 1.4-1.2.5 0 1 .7 2 1.3zM180.1 686.6c-.7-.9-1.4-1.4-1.3-1.8.1-.5.8-1.3 1.3-1.3.4 0 1.2.7 1.3 1.2 0 .3-.7.9-1.3 1.9zM372.5 721c-.7-.9-1.5-1.4-1.4-1.8.1-.6.8-1 1.3-1.5.5.4 1.2.9 1.3 1.3.1.4-.6 1-1.2 2zM278.2 622.9c-1 .6-1.5 1.3-2 1.2-.5-.1-.9-.8-1.4-1.3.5-.5.9-1.2 1.4-1.3.5 0 1.1.7 2 1.4zM168.3 712.2c-.9.7-1.5 1.3-1.9 1.3-.5-.1-1.3-.8-1.3-1.2s.7-1.2 1.2-1.3c.5-.1 1.1.6 2 1.2zM365.5 710.3c.7.9 1.4 1.4 1.4 1.9s-.7 1.3-1.2 1.3c-.4 0-1.2-.7-1.3-1.2-.2-.5.5-1.1 1.1-2zM269.3 631.7c-.6-1-1.2-1.6-1.2-2.1 0-.4.8-1.1 1.2-1.1s1.2.7 1.2 1.2c.1.5-.5 1-1.2 2zM351.8 675.8c.6.9 1.3 1.5 1.3 2s-.8.9-1.3 1.4c-.4-.5-1.2-.9-1.3-1.4 0-.5.7-1 1.3-2zM319.4 457.8c-.9.7-1.4 1.4-1.9 1.4s-1.3-.7-1.3-1.2c0-.4.7-1.2 1.2-1.3.5-.1 1.1.6 2 1.1zM346.9 664.2c-1 .6-1.5 1.2-2 1.2-.5-.1-1.2-.8-1.2-1.3s.8-1.2 1.3-1.2c.5-.1 1 .6 1.9 1.3zM166.4 727.9c-.7-1-1.3-1.5-1.3-2 .1-.5.8-.9 1.2-1.4.5.4 1.2.9 1.3 1.3.1.5-.6 1.1-1.2 2.1zM283 590.4c-.6-.9-1.2-1.5-1.2-2 .1-.5.9-.9 1.3-1.3.4.5 1.1 1 1.1 1.6.2.4-.6.9-1.2 1.7zM285.1 567.8c-.9.7-1.4 1.4-1.9 1.3-.5 0-1-.7-1.4-1.2.4-.5.8-1.3 1.3-1.3.4-.1 1 .6 2 1.2zM386.2 755.2c-.7-.8-1.4-1.3-1.4-1.7.1-.5.8-1 1.2-1.5.5.4 1.2.8 1.3 1.3.1.5-.6 1.1-1.1 1.9zM317.5 442.3c.6.9 1.3 1.5 1.2 2-.1.5-.9 1.2-1.3 1.2s-1.1-.8-1.2-1.3c0-.5.7-1 1.3-1.9zM388 760.3c-1 .6-1.5 1.2-2 1.2-.4 0-1.2-.9-1.2-1.2.1-.5.8-1.2 1.3-1.3.5 0 1 .7 1.9 1.3zM319.4 451c-.9.7-1.4 1.4-1.9 1.4s-.9-.8-1.4-1.2c.4-.5.8-1.2 1.3-1.3.5-.1 1.1.5 2 1.1zM285 595.5c-1 .6-1.5 1.2-2 1.1-.5-.1-.9-.8-1.3-1.3.5-.4.9-1.2 1.4-1.2.5-.1 1 .7 1.9 1.4zM319.4 464.8c-.9.7-1.5 1.3-1.9 1.3-.5 0-1.2-.8-1.3-1.3 0-.4.7-1.2 1.2-1.3.5 0 1.1.7 2 1.3zM166.3 700.4c-.6-.9-1.2-1.5-1.2-2 0-.4.9-1.2 1.2-1.1.5.1 1.1.8 1.2 1.3.1.4-.6.9-1.2 1.8zM285.1 602.3c-1 .6-1.6 1.2-2 1.2-.5-.1-.9-.9-1.3-1.3.5-.4.9-1.2 1.4-1.2.4-.1 1 .6 1.9 1.3zM353.8 691.7c-1 .6-1.5 1.2-2.1 1.2-.4 0-1.1-.8-1.1-1.3 0-.4.7-1.2 1.1-1.2.6 0 1.1.6 2.1 1.3zM393.1 758.5c.5.7 1.2 1.2 1.1 1.5-.2.6-.8 1-1.2 1.6l-1.5-1.5 1.6-1.6zM173.2 689.8c.6.8 1.3 1.4 1.3 1.8-.1.5-.9 1.2-1.4 1.2s-1.1-.8-1.2-1.3c0-.4.7-.9 1.3-1.7zM372.5 727.9c-.7-.9-1.4-1.5-1.4-1.9 0-.5.7-1.2 1.3-1.3.3-.1 1.2.7 1.2 1.1.1.5-.5 1-1.1 2.1zM365.7 720.9c-.7-.9-1.4-1.4-1.4-1.9 0-.4.7-1.2 1.2-1.2.4-.1 1.2.6 1.3 1 0 .5-.6 1.1-1.1 2.1zM290 490.4c.6.9 1.3 1.5 1.3 2 0 .4-.8 1.3-1.1 1.2-.5-.1-1.3-.7-1.4-1.2-.1-.5.5-1.1 1.2-2zM296.9 487.4c-.6-.9-1.3-1.4-1.2-1.8.1-.5.8-.9 1.2-1.4.4.4 1.2.8 1.2 1.2 0 .5-.6 1-1.2 2zM276.3 614.1c.6.9 1.3 1.5 1.2 1.8-.1.5-.8 1.2-1.3 1.3-.3.1-1.2-.8-1.2-1.2 0-.5.6-1 1.3-1.9zM351.7 682.7c.7.9 1.4 1.5 1.3 2 0 .5-.8 1.1-1.3 1.3-.3.1-1.2-.7-1.2-1.2.1-.5.7-1.1 1.2-2.1zM326.3 650.4c-.9.6-1.5 1.3-2 1.2-.5 0-.9-.8-1.3-1.2.5-.4.9-1.2 1.4-1.2.4-.2 1 .5 1.9 1.2zM166.4 717.1c.6.9 1.2 1.4 1.2 1.8-.1.5-.7 1-1.2 1.5-.5-.4-1.2-.8-1.3-1.3 0-.6.6-1.1 1.3-2zM262.4 521.7c-.6-.9-1.2-1.5-1.2-2 0-.4.9-1.2 1.2-1.1.5.2 1.2.8 1.3 1.3.1.4-.6 1-1.3 1.8zM168.2 705.3c-.8.6-1.3 1.3-1.7 1.3-.5-.1-1-.7-1.5-1.1.4-.5.8-1.1 1.4-1.3.4-.2.9.5 1.8 1.1zM271.2 547.3c-.8.6-1.3 1.3-1.7 1.3-.5-.1-1-.8-1.4-1.2.5-.4.9-1.1 1.4-1.2.3-.2.9.5 1.7 1.1zM175.1 684.7c-.9.6-1.4 1.3-1.8 1.2-.5-.1-1-.8-1.5-1.2.4-.4.8-1.2 1.2-1.3.6.1 1.2.7 2.1 1.3zM379.3 737.7c.6.9 1.3 1.4 1.2 1.8-.1.5-.8 1.1-1.3 1.3-.3.1-1.2-.7-1.2-1.2.1-.4.7-1 1.3-1.9zM166.4 734.7c-.7-1-1.3-1.5-1.3-2 0-.4.7-1.1 1.2-1.2.4 0 1.2.6 1.3 1.1 0 .5-.6 1.1-1.2 2.1zM310.7 449.3c.5.9 1.1 1.4 1.1 1.8-.1.5-.8.8-1.2 1.2-.4-.5-1.1-.9-1.2-1.4-.1-.3.6-.8 1.3-1.6zM317.3 469.8c.7.8 1.4 1.3 1.3 1.7-.1.5-.7 1-1.1 1.5-.5-.4-1.3-.8-1.3-1.2 0-.5.6-1.1 1.1-2zM285 581.7c-.9.6-1.4 1.2-1.8 1.1-.5-.1-.9-.8-1.3-1.2.5-.4.9-1.1 1.4-1.2.4-.1.9.7 1.7 1.3zM223.3 671c-.9.6-1.5 1.3-1.8 1.2-.5-.1-1-.8-1.4-1.2.4-.4.8-1.2 1.3-1.2.4-.1.9.5 1.9 1.2zM278.1 560.9c-.9.6-1.4 1.3-1.8 1.2-.5-.1-1-.8-1.4-1.2.4-.4.8-1.2 1.3-1.2.4 0 1 .6 1.9 1.2zM166.3 689.7c.6.9 1.2 1.4 1.2 1.8 0 .5-.7.9-1.1 1.3-.5-.4-1.2-.8-1.3-1.3 0-.3.6-.9 1.2-1.8zM278.1 609.2c-1 .6-1.6 1.1-2.1 1.1-.4-.1-.8-.8-1.2-1.3.5-.4 1-1 1.5-1.1.5 0 1 .6 1.8 1.3zM346.9 671.1c-1.1.6-1.6 1.2-2.1 1.1-.4 0-1.1-.8-1.1-1.3 0-.4.8-1.2 1.2-1.2.5.1 1.1.7 2 1.4zM372.3 528.6c-.6-.9-1.2-1.4-1.1-1.8.1-.5.8-1.1 1.3-1.2.3-.1 1.2.8 1.1 1.2 0 .4-.6.9-1.3 1.8zM269.3 638.6c-.6-1-1.2-1.5-1.2-2 0-.4.7-1.2 1.1-1.2.5 0 1.2.7 1.3 1.1.1.5-.5 1.1-1.2 2.1zM271.2 643.5c-.9.6-1.5 1.2-2 1.2-.4 0-.8-.8-1.2-1.2.5-.4.9-1.1 1.4-1.2.5-.1 1 .6 1.8 1.2zM159.4 727.7c-.6-.9-1.2-1.4-1.1-1.9.1-.5.8-.8 1.2-1.2.4.5 1.1.9 1.2 1.4 0 .4-.7.9-1.3 1.7zM338.1 666c-.6-.8-1.3-1.4-1.2-1.8.1-.5.7-1.1 1.2-1.3.3-.1 1.2.7 1.2 1.1 0 .5-.6 1-1.2 2zM262.4 655.4c.6.8 1.3 1.3 1.3 1.8s-.7.9-1.1 1.3c-.5-.4-1.2-.8-1.3-1.3-.1-.4.5-1 1.1-1.8zM326.2 657.3c-.9.6-1.4 1.2-1.8 1.2-.5-.1-.9-.8-1.3-1.3.4-.4.9-1.1 1.3-1.1.4-.1.9.5 1.8 1.2zM381.1 519.9c-.9.6-1.5 1.2-1.8 1.1-.5-.1-.9-.9-1.3-1.3.4-.4.9-1 1.4-1 .4 0 .9.6 1.7 1.2zM305.5 478.5c-.8.7-1.3 1.4-1.7 1.3-.5-.1-.9-.8-1.4-1.2.4-.4.8-1.1 1.2-1.2.5-.1 1 .5 1.9 1.1zM374.3 732.6c-.9.7-1.4 1.3-1.8 1.3-.5 0-.9-.7-1.4-1.1.4-.4.8-1.1 1.2-1.2.5-.1 1.1.5 2 1zM278 595.4c-.9.6-1.4 1.2-1.8 1.1-.5-.1-.9-.9-1.3-1.3.5-.4.9-1.1 1.4-1.1.4 0 .9.7 1.7 1.3zM262.5 542.3c-.6-.9-1.3-1.4-1.2-1.8.1-.5.8-.9 1.3-1.3.4.4 1.1.9 1.1 1.3s-.6.9-1.2 1.8zM284.8 574.7c-.8.7-1.3 1.4-1.7 1.3-.5-.1-1-.8-1.4-1.2.4-.4.8-1.1 1.3-1.2.4 0 1 .6 1.8 1.1zM269.3 504.2c.6.8 1.2 1.3 1.2 1.8s-.7.9-1 1.3c-.5-.4-1.2-.8-1.3-1.3-.1-.3.5-.9 1.1-1.8zM379.2 744.6c.6.8 1.3 1.3 1.3 1.8s-.7.9-1.1 1.4c-.5-.4-1.2-.8-1.3-1.3-.1-.4.6-1 1.1-1.9zM353.7 698.3c-.8.7-1.3 1.3-1.7 1.3-.5 0-.9-.7-1.4-1 .4-.5.7-1.2 1.2-1.3.4-.1 1 .5 1.9 1zM276.2 604.1c-.6-.9-1.2-1.5-1.1-1.8.1-.5.9-.9 1.3-1.3.4.4 1 .9 1 1.3 0 .5-.6.9-1.2 1.8zM255.6 518c.6.9 1.3 1.4 1.2 1.8-.1.5-.7.9-1.1 1.3-.4-.4-1.1-.8-1.2-1.2-.1-.5.5-1 1.1-1.9zM285 492.5c-.9.5-1.5 1.1-1.9 1.1-.5-.1-.8-.8-1.2-1.2.5-.4.9-1.1 1.4-1.1.3-.2.8.5 1.7 1.2zM291.8 485.5c-.9.6-1.4 1.2-1.8 1.2-.4-.1-1.1-.8-1.1-1.2s.7-1.1 1.2-1.2c.4 0 .9.6 1.7 1.2zM264.4 526.8c-1 .6-1.5 1.2-2 1.1-.4 0-.8-.8-1.2-1.2.5-.4.9-1.1 1.4-1.1.4-.1.9.5 1.8 1.2zM161.3 718.9c-.8.6-1.4 1.3-1.7 1.2-.5-.1-.9-.8-1.4-1.2.4-.4.8-1.1 1.3-1.2.4 0 .9.6 1.8 1.2zM175.1 678c-.9.5-1.4 1.2-1.8 1.1-.5-.1-1.1-.8-1.1-1.3 0-.4.8-1.1 1.2-1.1.4 0 .9.7 1.7 1.3zM379.3 755.2c-.6-.9-1.3-1.4-1.2-1.8.1-.5.7-.9 1.2-1.3.4.4 1.1.8 1.2 1.3 0 .4-.6.9-1.2 1.8zM310.7 456.1c.6.9 1.2 1.4 1.1 1.8-.1.5-.8.8-1.2 1.2-.4-.4-1.1-.8-1.2-1.4-.1-.2.6-.8 1.3-1.6zM344.9 686.6c-.6-.9-1.2-1.4-1.1-1.9.1-.5.8-1.1 1.2-1.1s1.1.7 1.2 1.2c0 .4-.7.9-1.3 1.8zM278.1 499.2c-.9.6-1.4 1.3-1.8 1.2-.5-.1-.9-.8-1.4-1.2.4-.4.9-1.1 1.3-1.1.5-.1 1 .5 1.9 1.1zM243.7 664.1c-.9.6-1.4 1.3-1.8 1.2-.4 0-1.1-.7-1.1-1.2 0-.4.7-1.1 1.1-1.1.4-.1.9.5 1.8 1.1zM262.3 535.4c-.6-.9-1.2-1.5-1.1-1.9.2-.5.9-.9 1.3-1.3.4.5 1 .9 1 1.4.2.5-.5 1-1.2 1.8zM356.8 705.3c1-.6 1.5-1.2 2-1.2.4 0 1.2.9 1.1 1.2-.1.5-.8 1.1-1.3 1.2-.4.1-1-.6-1.8-1.2zM264.3 547.4c-.9.5-1.4 1.1-1.9 1-.5-.1-.8-.8-1.2-1.2.4-.4.9-1.1 1.3-1.1.5 0 1 .7 1.8 1.3zM161.4 732.8c-1 .6-1.5 1.2-1.9 1.1-.5-.1-.8-.8-1.2-1.2.4-.4.9-1 1.3-1.1.4 0 .9.6 1.8 1.2zM365.6 724c.6.9 1.2 1.5 1.1 1.9-.1.5-.8.8-1.2 1.3-.4-.4-1.1-.8-1.1-1.3-.1-.5.6-1 1.2-1.9zM264.4 650.3c-.9.6-1.4 1.3-1.9 1.2-.5 0-.9-.7-1.3-1.1.4-.4.8-1.1 1.2-1.2.5-.1 1 .5 2 1.1zM262.4 645.3c-.6-.9-1.1-1.4-1.1-1.9 0-.4.7-1.1 1-1.1.5.1 1.2.6 1.3 1.1s-.5 1-1.2 1.9zM345.1 676c.6.9 1.2 1.5 1.1 1.8-.1.5-.9.8-1.4 1.2-.4-.5-1-.9-1-1.4 0-.3.6-.8 1.3-1.6zM264.3 513c-.8.6-1.4 1.2-1.8 1.1-.5-.1-.9-.8-1.3-1.3.4-.4.9-1 1.3-1.1.5.1 1 .7 1.8 1.3zM161.4 705.5c-1 .5-1.5 1.1-1.9 1-.5-.1-.8-.8-1.2-1.2.4-.4.9-1 1.3-1.1.4-.1.9.6 1.8 1.3zM386.2 514.8c-.6-.8-1.3-1.2-1.3-1.7s.7-.9 1-1.4c.5.4 1.2.7 1.3 1.3.2.3-.5.9-1 1.8zM312.5 464.8c-.9.6-1.4 1.2-1.9 1.2-.5-.1-.9-.7-1.3-1.1.4-.4.8-1.1 1.3-1.2.4-.1.9.5 1.9 1.1zM346.8 691.5c-.8.6-1.3 1.2-1.8 1.3-.4 0-1.2-.7-1.2-1 .1-.5.6-1.2 1-1.3.5-.1 1 .5 2 1zM312.5 471.8c-1 .6-1.5 1.1-1.9 1-.5-.1-.8-.8-1.2-1.2.4-.4.9-1 1.3-1.1.4 0 .9.7 1.8 1.3zM353.6 705.4c-.8.5-1.3 1.2-1.8 1.1-.4-.1-.8-.8-1.2-1.2.4-.4.9-1 1.4-1.1.3-.1.8.6 1.6 1.2zM422.3 732.7c-1 .7-1.5 1.3-1.9 1.2-.5-.1-1.1-.7-1.2-1.2 0-.3.7-1 1.1-1.1.6 0 1.1.5 2 1.1zM159.6 710.4c.5.9 1.1 1.4 1 1.8-.1.5-.7.8-1.1 1.2-.4-.4-1.1-.8-1.2-1.2 0-.4.6-.9 1.3-1.8zM278.1 567.9c-1 .6-1.5 1.1-2 1.1-.4 0-.8-.7-1.2-1.1.4-.4.8-1.1 1.3-1.2.5-.1 1 .5 1.9 1.2zM312.4 444.2c-.9.6-1.4 1.2-1.9 1.1s-.9-.7-1.3-1.2c.4-.4.8-1.1 1.3-1.1s1 .6 1.9 1.2zM365.6 528.5c-.6-.9-1.3-1.4-1.3-1.8 0-.5.7-1.1 1.2-1.2.4 0 1.1.7 1.2 1.1.1.5-.5 1-1.1 1.9zM269.4 621c.6.9 1.2 1.5 1.1 1.9-.1.5-.8.8-1.2 1.2-.4-.4-1.1-.8-1.1-1.3-.1-.4.6-.9 1.2-1.8zM317.4 435.5c.6.9 1.2 1.4 1.2 1.8 0 .5-.7 1.2-1.1 1.2-.5 0-1.2-.7-1.2-1.1-.1-.5.5-1 1.1-1.9zM264.3 629.7c-.9.6-1.4 1.2-1.8 1.2s-1.2-.7-1.1-1c.1-.5.6-1.2 1.1-1.3.3-.1.9.5 1.8 1.1zM379.3 511.1c.6 1 1.1 1.5 1 2 0 .4-.7 1-1.1 1-.4 0-1.1-.7-1.1-1.1.1-.5.6-.9 1.2-1.9zM257.4 540.6c-1 .5-1.5 1.1-2 1-.4 0-1-.8-1-1.2s.7-1.1 1.1-1.1c.6 0 1 .6 1.9 1.3zM271.2 554.2c-.9.6-1.4 1.3-1.8 1.2-.5-.1-1.1-.8-1.2-1.2 0-.4.7-1.1 1.2-1.2.4 0 .9.6 1.8 1.2zM257.5 533.5c-.9.6-1.4 1.3-1.8 1.2-.5 0-.8-.7-1.3-1.1.4-.4.7-1.1 1.1-1.1.5-.1 1 .5 2 1zM374.3 739.6c-.9.6-1.5 1.2-1.9 1.1-.5-.1-1-.7-1.1-1.2-.1-.3.7-1 1.1-1 .5 0 .9.5 1.9 1.1zM161.3 698.5c-1 .6-1.5 1.1-1.9 1.1s-1.1-.8-1.1-1.1c.1-.5.7-1.1 1.1-1.2.5 0 1 .6 1.9 1.2zM269.6 614.6c.3.5.9 1 .9 1.4s-.7 1.2-1 1.1c-.5-.1-1.2-.6-1.3-1.1-.1-.4.5-1 .8-1.5.2.1.4.1.6.1zM360.5 712.1c-.8.7-1.3 1.3-1.7 1.3-.5 0-1.2-.7-1.2-1.1 0-.5.6-1.2 1.1-1.3.3-.1.9.5 1.8 1.1zM351.7 714c-.6-1-1.1-1.5-1-1.9.1-.5.8-.8 1.2-1.2.4.4 1 .8 1 1.3s-.5.8-1.2 1.8zM269.4 497.5c.5.8 1.1 1.3 1.1 1.7s-.7.8-1 1.2c-.4-.4-1-.8-1.1-1.2-.2-.4.4-.9 1-1.7zM374.2 746.6c-.9.5-1.4 1.1-1.8 1-.4 0-.8-.8-1.1-1.2.4-.4.9-1 1.4-1.1.2 0 .7.6 1.5 1.3zM214.4 669.2c.6.8 1.2 1.3 1.2 1.7-.1.5-.7 1.1-1.1 1.2-.3.1-1.1-.6-1.1-1-.1-.5.5-1 1-1.9zM159.3 693.4c-.5-.9-1-1.4-1-1.9 0-.4.8-.7 1.2-1.1.4.4 1 .9 1 1.4.1.3-.5.8-1.2 1.6zM257.5 526.8c-1 .5-1.5 1.1-1.9 1-.5-.1-.8-.8-1.2-1.2.4-.4.9-1 1.3-1.1.4 0 .9.7 1.8 1.3zM236.8 664.1c-.9.6-1.4 1.2-1.8 1.1-.4-.1-1-.8-1.1-1.2 0-.3.7-1 1.1-1 .4-.1.9.5 1.8 1.1zM387.8 767c-.9.6-1.4 1.1-2 1.2-.3 0-1.1-.9-1-1.1.2-.5.8-1.1 1.3-1.2.4 0 .9.6 1.7 1.1zM331.2 665.9c-.5-.9-1.1-1.4-1.1-1.8 0-.4.7-.8 1.1-1.2.4.4 1 .8 1.1 1.3.1.3-.5.8-1.1 1.7zM269.4 610.9c-.6-.8-1.2-1.3-1.1-1.7.1-.5.7-.9 1.1-1.3.4.4 1.1.8 1.1 1.1 0 .5-.6 1-1.1 1.9zM414.9 733.1c-.5.3-1 .8-1.4.8-.4 0-1-.7-1-1.1 0-.4.6-1.1 1-1.1.5 0 1 .5 1.4.8v.6zM271.1 567.8c-.8.6-1.3 1.2-1.8 1.2-.4 0-1.1-.8-1.1-1.1.1-.5.7-1.1 1.1-1.2s.9.5 1.8 1.1zM372.5 751.6c.5.9 1.1 1.4 1 1.9 0 .4-.8 1-1.1 1-.4 0-1.1-.7-1.1-1 0-.6.6-1 1.2-1.9zM271.1 602.2c-.8.6-1.3 1.2-1.7 1.2s-1.1-.7-1.1-1.1c.1-.5.6-1.1 1.1-1.2.3-.1.8.5 1.7 1.1zM269.3 562.9c-.6-1-1.1-1.5-1.1-2 .1-.4.8-1 1.3-1 .3 0 1 .7 1 1.1 0 .5-.6.9-1.2 1.9zM157.8 677.9c.8-.6 1.2-1.1 1.6-1.1.4 0 .8.6 1.3 1-.4.4-.7 1.1-1.2 1.2-.4 0-.9-.6-1.7-1.1zM360.5 719.1c-.9.5-1.4 1-1.9 1-.4 0-1.1-.9-1-1.2.2-.5.8-1 1.3-1.1l1.6 1.3zM255.5 514.7c-.5-.8-1.1-1.3-1.1-1.8 0-.4.8-1.1 1.2-1 .5.1 1 .7 1.1 1.2.1.3-.6.8-1.2 1.6zM310.5 439.2c-.6-.9-1.1-1.5-1.1-1.9.1-.4.8-1 1.3-1 .3 0 1 .7 1 1.1l-1.2 1.8zM277.5 582.1c-.5.2-1.1.6-1.6.5-.3 0-.9-.8-.8-1.1.1-.4.8-1 1.1-1 .5.1.9.6 1.4 1-.1.2-.1.4-.1.6zM345 696.8c.5.8 1.2 1.3 1.1 1.7-.2.5-.8 1-1.3 1.1-.3.1-1-.7-1-1.1 0-.5.6-1 1.2-1.7zM381 760.3c-.8.5-1.3 1.1-1.7 1-.5-.1-.9-.7-1.3-1.1.4-.4.9-1 1.4-1.1.4 0 .9.6 1.6 1.2zM346.7 705.5c-.9.5-1.4 1-1.9 1-.4 0-1.1-.9-1-1.1.2-.5.8-1 1.3-1.1.3-.1.8.5 1.6 1.2zM264.1 506.2c-.8.5-1.3 1.1-1.6 1-.5-.1-.8-.8-1.3-1.2.5-.4.9-1 1.4-1.1.4 0 .8.7 1.5 1.3zM255.7 641.6c.6 1 1.1 1.5 1.1 2 0 .4-.8 1-1.2 1s-1.1-.7-1.1-1.1c0-.5.5-.9 1.2-1.9zM262.5 555.8c-.6-.8-1.3-1.3-1.2-1.6.1-.5.6-1.1 1.1-1.2.3-.1 1.1.6 1.1 1 .1.5-.4 1-1 1.8zM167.9 684.7c-.8.5-1.2 1-1.7 1-.3 0-.7-.6-1-1 .4-.4.7-.9 1.2-1 .4 0 .8.5 1.5 1zM277.9 574.6c-.8.6-1.3 1.1-1.7 1.1-.4 0-1-.7-1-1.1 0-.4.6-1 1-1 .5-.1.9.5 1.7 1zM284.8 485.5c-.8.5-1.3 1.2-1.7 1.1-.5-.2-1-.8-1.1-1.3-.1-.3.7-1 1.1-1 .5 0 .9.7 1.7 1.2zM303.9 452.8c-.6-.8-1.2-1.2-1.2-1.7 0-.4.6-.8 1-1.2.4.4 1.1.7 1.2 1.2 0 .3-.5.9-1 1.7zM358.7 727.5c-.5-.7-1.2-1.2-1.1-1.6.1-.5.7-.9 1.1-1.3.4.4 1 .8 1.1 1.3 0 .4-.6.9-1.1 1.6zM338 669.2c.6.8 1.2 1.3 1.2 1.8 0 .4-.7 1.1-1.1 1.1-.5-.1-1.1-.7-1.2-1.1 0-.4.6-.9 1.1-1.8zM161.3 684.8c-.9.5-1.4 1.1-1.9 1.1-.4 0-.7-.7-1.1-1.1.4-.4.8-1 1.3-1.1.3-.1.8.5 1.7 1.1zM264.2 622.9c-.9.6-1.3 1.1-1.8 1.1-.4 0-.8-.7-1.2-1.1.4-.4.8-1 1.3-1.1.4-.1.9.5 1.7 1.1zM255.5 655.5c.6.8 1.3 1.3 1.2 1.6-.1.5-.7 1-1.2 1.2-.2.1-1.1-.6-1-.9 0-.5.5-1 1-1.9zM257.5 650.2c-.9.7-1.4 1.3-1.9 1.3-.4 0-1-.6-1.1-1-.1-.3.6-1.1.9-1.1.5-.1 1.1.3 2.1.8zM154.4 725.8c-.8.6-1.3 1.2-1.8 1.2-.4 0-1.2-.8-1.1-1 .1-.5.7-1.1 1.1-1.2.4-.1.9.5 1.8 1zM276.1 494c-.5-.8-1.1-1.3-1-1.7.1-.5.7-.8 1.1-1.2.4.4 1 .8 1.1 1.3.1.4-.6.9-1.2 1.6zM305.5 444.3c-.9.5-1.4 1-1.9 1-.4 0-1.1-.8-1-1.1.1-.5.8-1 1.2-1.1.4 0 .9.6 1.7 1.2zM367.3 732.6c-.8.6-1.2 1.3-1.6 1.2-.5-.1-.9-.7-1.3-1 .3-.4.7-1.1 1-1.2.5 0 1 .5 1.9 1zM305.4 471.6c-.8.6-1.2 1.2-1.6 1.2-.4 0-.8-.7-1.2-1 .4-.4.7-1 1.1-1.1s.9.4 1.7.9zM269.2 593.6c.6.8 1.2 1.3 1.2 1.6-.1.5-.7.9-1.1 1.3-.4-.4-1-.8-1.1-1.2 0-.4.5-.9 1-1.7zM276.2 590.1c-.5-.9-1-1.3-1-1.7 0-.4.6-.8.9-1.2.4.4 1 .8 1.1 1.2.1.4-.5.9-1 1.7zM154.4 719.1c-.9.5-1.4 1.1-1.8 1-.5-.1-.8-.8-1.2-1.2.4-.4.8-1 1.2-1 .5 0 .9.6 1.8 1.2zM296.9 476.8c.6.9 1.2 1.4 1.1 1.7-.1.5-.8.9-1.2 1.3-.4-.4-1-.8-1.1-1.2 0-.5.6-.9 1.2-1.8zM154.4 712.1c-.8.6-1.3 1.2-1.8 1.2-.4 0-.8-.7-1.2-1 .4-.4.7-1.1 1.2-1.2.4-.1.9.5 1.8 1zM269.4 573.1c.5.7 1.1 1.2 1 1.5-.2.5-.7.9-1.1 1.3-.3-.3-1-.7-1-1 .2-.5.6-.9 1.1-1.8zM305.4 464.9c-.7.5-1.2 1.1-1.6 1-.5-.1-.9-.7-1.3-1.1.4-.4.8-1 1.3-1.1.4 0 .8.6 1.6 1.2zM372.4 521.5c-.6-.8-1.2-1.3-1.2-1.7s.8-1.1 1.1-1.1c.5.1 1.1.7 1.2 1.2.1.3-.5.8-1.1 1.6zM339.8 684.8c-.9.5-1.4 1.1-1.8 1.1-.4 0-1.1-.8-1-1.1.1-.5.7-1 1.2-1.1.3-.1.8.5 1.6 1.1zM250.1 520.2c-.5.3-1 .8-1.5.8-.4 0-1-.7-1-1.1 0-.4.7-1.1 1.1-1.1.5 0 1 .5 1.4.8v.6zM262.5 617.7c-.6-.9-1.3-1.4-1.2-1.7.1-.5.7-1 1.2-1.2.2-.1 1 .6 1 1 0 .5-.5 1-1 1.9zM338 679.5c-.5-.8-1.1-1.3-1-1.7.1-.4.7-.8 1.1-1.2.4.4 1.1.8 1.1 1.3 0 .4-.6.9-1.2 1.6zM264.2 636.6c-.8.6-1.3 1.1-1.8 1.1-.4 0-.8-.7-1.2-1.1.4-.4.8-1.1 1.3-1.2.3 0 .9.6 1.7 1.2zM255.6 548.9c-.6-.7-1.2-1.2-1.1-1.5.2-.5.8-.8 1.2-1.2.4.4 1 .8 1 1.2.1.4-.5.8-1.1 1.5zM381 767.3c-.8.5-1.4 1-1.8.9-.4-.1-.7-.8-1.1-1.2.4-.3.9-.9 1.3-.9s.8.6 1.6 1.2zM303.6 435.7c.6.8 1.2 1.2 1.1 1.6 0 .4-.7.8-1 1.2-.4-.4-1-.7-1.1-1.1 0-.4.5-.9 1-1.7zM250.4 526.8c-.8.5-1.3 1.1-1.7 1-.4 0-1-.7-1-1.1s.7-1 1.1-1c.4-.1.8.5 1.6 1.1zM372.4 761.9c-.5-.8-1.1-1.3-1-1.7s.8-1 1.2-1c.4 0 1 .7 1.1 1.1l-1.3 1.6zM331.1 672.7c-.5-.9-1-1.4-1-1.8.1-.4.7-.7 1.1-1.1.4.4 1 .8 1 1.2.1.4-.5.9-1.1 1.7zM152.6 734.4c-.5-.8-1.1-1.3-1-1.7s.7-1 1.1-1 1 .7 1 1.1c0 .4-.6.8-1.1 1.6zM255.6 631.4c-.5-.8-1.1-1.2-1.1-1.6.1-.4.7-1 1.1-1 .4 0 1.1.6 1.1 1 0 .3-.6.8-1.1 1.6zM262.5 607.4c.5.8 1.1 1.3 1 1.7-.1.4-.7.9-1.1 1-.3.1-1-.6-1-1s.5-.9 1.1-1.7zM152.6 690c.5.8 1.1 1.2 1.1 1.6-.1.4-.7.8-1.1 1.2-.4-.4-1-.7-1.1-1.2 0-.4.6-.9 1.1-1.6zM262.4 562.6c-.5-.8-1.1-1.3-1.1-1.7.1-.4.7-1 1.1-1s1 .7 1.1 1.1c.1.4-.5.9-1.1 1.6zM305.5 458c-.9.5-1.4 1-1.9 1-.3 0-1.1-.7-1-.9.2-.5.6-1.1 1.1-1.3.3-.1.9.6 1.8 1.2zM298.5 458.2c-.9.4-1.4.9-1.8.8-.4-.1-1-.8-.9-1 .2-.5.7-1 1.2-1 .3-.1.7.5 1.5 1.2zM374.1 767c-.8.6-1.2 1.1-1.7 1.2-.4 0-1.1-.6-1.1-.9 0-.5.5-1.1.9-1.2.5-.1 1 .4 1.9.9zM154.3 705.3c-.8.6-1.2 1.2-1.6 1.2s-.8-.7-1.2-1c.4-.4.7-1 1.1-1.1.4-.2.9.4 1.7.9zM346.6 712.2c-.8.6-1.2 1.1-1.6 1.1s-.8-.7-1.2-1c.4-.4.7-1 1.1-1.1s.9.5 1.7 1zM154.3 684.6c-.8.6-1.3 1.2-1.7 1.1-.4 0-.9-.7-1.1-1.1-.1-.2.6-.9 1-1 .5.1 1 .5 1.8 1zM325.9 664.1c-.8.5-1.3 1-1.7 1-.4-.1-.7-.7-1.1-1.1.4-.4.8-1 1.2-1s.9.6 1.6 1.1zM257.3 554.4c-.9.4-1.4.9-1.8.8-.4-.1-.7-.8-1-1.2.4-.3.9-.9 1.3-.9l1.5 1.3zM264.1 499.1c-.7.6-1.2 1.2-1.6 1.2s-.8-.6-1.2-1c.4-.4.7-1 1.1-1.1s.9.4 1.7.9zM365.4 738c.6.7 1.2 1.1 1.2 1.5s-.6.8-1 1.2c-.4-.4-1.1-.7-1.1-1.1-.1-.3.5-.8.9-1.6zM332.8 678c-.8.5-1.3 1-1.7.9s-1-.7-1-1.1c0-.4.7-1 1.1-1 .5 0 .9.6 1.6 1.2zM166.4 676.3c.5.7 1.1 1.1 1.1 1.5 0 .4-.7 1-1.1 1s-.9-.7-1-1.1c-.1-.3.5-.7 1-1.4zM255.5 638.3c-.5-.8-1.1-1.3-1-1.7.1-.4.8-1.1 1.1-1 .4 0 1 .7 1 1.1.1.3-.5.8-1.1 1.6zM360.3 732.8c-.8.5-1.3 1.1-1.7 1-.4-.1-.8-.7-1.1-1.1.4-.4.8-1 1.2-1 .4-.1.9.5 1.6 1.1zM351.7 720.7c-.5-.9-1.1-1.4-1-1.7.1-.4.7-.9 1.2-1 .3 0 1 .7.9 1 0 .4-.5.9-1.1 1.7zM298.4 444.3c-.7.5-1.2 1-1.6 1l-1-1c.4-.4.8-.9 1.2-1 .2-.2.7.4 1.4 1zM264 581.7c-.8.5-1.2 1-1.7 1-.4 0-1-.7-1-.9.1-.5.6-1.1 1-1.2.5-.1.9.5 1.7 1.1zM270.8 581.6c-.7.5-1.2 1.1-1.5 1-.4 0-1-.7-1-1.1 0-.4.6-1.1 1-1.1.4.1.8.7 1.5 1.2zM339.7 698.7c-.9.4-1.4.9-1.8.8-.3 0-.9-.8-.8-1.1.1-.4.7-1 1.1-1 .4 0 .8.6 1.5 1.3zM257.3 506.1c-.9.6-1.4 1.1-1.8 1.1-.4-.1-.7-.7-1.1-1.1.4-.3.7-.9 1.1-.9.5-.1 1 .3 1.8.9zM154.3 698.4c-.8.6-1.2 1.1-1.6 1.1s-.8-.6-1.2-1c.4-.4.7-1.1 1.1-1.1.4-.1.9.5 1.7 1zM248.8 535.2c-.5-.7-1.1-1.2-1.1-1.6 0-.4.6-.8 1-1.2.4.4 1.1.7 1.1 1.1.1.5-.5.9-1 1.7zM296.8 449.5c.5.8 1.1 1.3 1.1 1.6-.1.4-.7.9-1.2 1-.3.1-1-.6-1-1 .1-.4.6-.8 1.1-1.6zM339.7 691.5c-.7.6-1.2 1.2-1.6 1.2s-1-.6-1.1-1c0-.4.6-1 1-1.1.4-.1.9.4 1.7.9zM257.3 622.8c-.8.6-1.2 1.1-1.7 1.1-.4 0-1.1-.6-1-.9.1-.5.5-1.1.9-1.2.4-.1.9.5 1.8 1zM367.2 519.9c-.9.5-1.3.9-1.8.9-.3 0-1-.8-.9-1 .2-.5.7-1.1 1.1-1.1.4 0 .8.6 1.6 1.2zM298.4 464.8c-.7.5-1.2 1-1.6 1s-.7-.6-1.1-.9c.4-.4.7-1 1.1-1.1s.9.5 1.6 1zM241.9 518.4c.4.7 1 1.2.9 1.5-.1.4-.7.7-1.2 1-.3-.4-.9-.8-.9-1.2.1-.4.7-.7 1.2-1.3zM209.3 670.9c-.8.6-1.3 1.2-1.6 1.1-.4-.1-1-.6-1.1-1.1-.1-.3.6-1 1-1 .3 0 .8.5 1.7 1zM289.9 476.9c.6.8 1.1 1.2 1.1 1.6 0 .4-.6.8-1 1.2-.4-.4-1-.7-1.1-1.1-.1-.4.5-.9 1-1.7zM154.3 677.8c-.9.5-1.3 1-1.8 1-.4 0-1-.6-1-1s.6-1 .9-1c.6 0 1 .5 1.9 1zM264.1 574.6c-.8.6-1.2 1.1-1.6 1.2-.4 0-1.1-.6-1.1-.9.1-.5.6-1.1 1-1.2.3-.1.9.4 1.7.9zM269.3 587c.5.7 1.1 1.1 1 1.4 0 .4-.6.7-1 1.1-.4-.4-.9-.7-1-1.1 0-.3.5-.7 1-1.4zM262.6 586.9c.5.8.9 1.3.9 1.7 0 .4-.7.7-1 1-.3-.4-.9-.8-1-1.2s.5-.8 1.1-1.5zM248.8 658.7c-.5-.6-1.1-1.1-1-1.4.1-.4.7-.8 1.1-1.1.3.3.9.7 1 1.1-.1.3-.6.7-1.1 1.4zM243.3 526.7c-.6.5-1 1.1-1.3 1-.5-.1-.8-.7-1.2-1 .4-.4.8-.9 1.2-1 .2-.1.7.5 1.3 1zM353.3 725.9c-.6.5-1.1 1-1.4.9-.4-.1-.8-.7-1.2-1 .4-.3.8-.9 1.3-1 .2 0 .7.6 1.3 1.1zM248.8 648.8c.5.7 1 1.2 1 1.6 0 .3-.8 1-1 1-.4-.1-1-.7-1.1-1.1-.1-.4.5-.8 1.1-1.5zM264.1 567.7c-.7.6-1.2 1.2-1.5 1.2-.4 0-1.1-.6-1.1-1s.6-1 1-1.1c.3-.1.8.5 1.6.9zM147.3 725.9c-.7.5-1.2 1-1.5 1-.4-.1-.8-.7-1.2-1 .4-.4.7-1 1.1-1 .4-.1.9.5 1.6 1zM248.8 642c.5.7 1 1.2.9 1.5-.1.4-.7.7-1.2 1.1-.3-.4-.9-.8-.9-1.2.1-.4.7-.8 1.2-1.4zM325.8 671c-.7.5-1.1 1.1-1.4 1-.4-.1-.8-.7-1.1-1.1.4-.3.7-.9 1.1-.9.3 0 .7.5 1.4 1zM372.5 511.3c.5.8 1 1.3 1 1.7 0 .4-.7 1-.9 1-.5-.1-1.1-.6-1.2-1-.1-.4.5-.9 1.1-1.7zM248.7 514.6c-.5-.8-1.1-1.2-1-1.7 0-.4.7-1 1-1 .5.1 1.1.6 1.2 1 0 .4-.6.9-1.2 1.7zM269.4 493.8c-.5-.6-1.1-1-1.1-1.4.1-.5.6-.8 1-1.2.4.4 1 .8 1.1 1.2 0 .3-.6.8-1 1.4zM145.9 713.7c-.6-.7-1.2-1.1-1.2-1.4.1-.4.6-1 1-1.1.2-.1 1 .5 1 .9.1.4-.4.8-.8 1.6zM298.3 471.7c-.7.5-1.1 1.1-1.4 1-.4-.1-.7-.7-1.1-1.1.4-.3.8-.9 1.2-.9.3 0 .7.5 1.3 1zM276.3 484c.4.7 1 1.2.9 1.5-.1.4-.7.7-1.2 1-.3-.4-.8-.8-.8-1.2 0-.3.6-.7 1.1-1.3zM367.1 753.3c-.7.5-1.1 1.1-1.4 1-.4-.1-.8-.7-1.2-1 .4-.3.7-.9 1.1-.9.3 0 .8.5 1.5.9zM332.7 684.6c-.7.5-1 1-1.4 1-.4 0-.8-.5-1.2-.8.4-.4.7-1 1.1-1.1.3-.1.8.5 1.5.9zM255.5 617.5c-.4-.7-.9-1.2-.8-1.5.1-.4.6-.7 1-1.1.3.4.9.8 1 1.2l-1.2 1.4zM262.6 600.6c.5.9 1 1.4.9 1.8 0 .4-.7 1-1 .9-.4-.1-1-.6-1.1-1.1 0-.4.6-.8 1.2-1.6zM262.6 596.9c-.6-.7-1.1-1.1-1.1-1.5.1-.4.6-.8.9-1.2.4.3 1 .6 1 1 .1.5-.4.9-.8 1.7zM250.4 540.5c-.9.5-1.4 1-1.8.9-.3 0-.9-.7-.9-1 0-.4.6-1 1-1 .4.1.9.6 1.7 1.1zM255.6 562.5c-.5-.7-1-1.1-1-1.4.1-.4.7-.8 1.1-1.1.3.4.9.7.9 1.1 0 .3-.5.7-1 1.4zM250.2 547.4c-.7.4-1.1.9-1.5.9s-.7-.6-1.1-1c.4-.4.7-.9 1.2-1 .3 0 .8.6 1.4 1.1zM145.7 731.1c.5.8 1.1 1.2 1.1 1.7 0 .3-.6.9-1 1-.4 0-1-.5-1-.9-.1-.5.4-1 .9-1.8zM145.8 720.6c-.6-.8-1.1-1.3-1.1-1.7 0-.3.7-.9 1.1-.9s1 .6 1 .9c0 .4-.5.9-1 1.7zM229.7 664.2c-.8.5-1.3 1-1.7 1-.4 0-1-.7-1-1 .1-.5.6-1.1 1-1.2.5 0 .9.6 1.7 1.2zM339.5 705.5c-.7.4-1.1.9-1.5.9-.4-.1-1-.8-.9-1 .1-.4.7-.9 1.1-1 .3-.1.7.5 1.3 1.1zM147.2 705.3c-.6.5-1.1 1.1-1.4 1-.5-.1-.8-.7-1.2-1.1.4-.3.7-.9 1.1-.9l1.5 1zM200.6 669.5c.5.7 1.1 1 1.1 1.4s-.6.7-.9 1.1c-.4-.3-.9-.6-1-1-.1-.3.4-.8.8-1.5zM365.5 744.9c.5.7 1 1.2 1 1.6 0 .4-.6.7-1 1.1-.4-.4-1-.7-1.1-1.1.1-.4.6-.8 1.1-1.6zM357.2 739.6c.6-.5 1.1-1 1.4-1 .4 0 .7.6 1.1 1-.4.4-.7 1-1.1 1-.3.1-.7-.5-1.4-1zM255.5 607.7c.5.6 1 1 1 1.3-.1.4-.5.8-.8 1.2-.4-.3-1-.6-1-1-.1-.4.4-.9.8-1.5zM298.2 437.3c-.7.5-1.1.9-1.4.9-.3 0-.6-.6-1-.9.4-.3.7-.8 1.1-1 .3 0 .7.6 1.3 1zM366.9 512.9c-.6.5-1 1.1-1.3 1-.4-.1-.9-.5-1.1-.9-.1-.2.5-.9.8-.9.5-.1.9.4 1.6.8zM318.9 664.2c-.7.5-1.2 1-1.5.9-.4-.1-.8-.7-.9-1.1 0-.2.6-.8.9-.8.4 0 .8.5 1.5 1zM367 760.3c-.7.4-1.1.9-1.5.9-.4-.1-.9-.7-.9-1s.6-.9 1-.9c.4-.1.7.5 1.4 1zM331.2 693.1c-.5-.7-1.1-1.1-1-1.5 0-.4.6-.8 1-.9.2-.1.9.5.9.9 0 .3-.4.7-.9 1.5zM250 554.2c-.6.4-1 1-1.2.9-.4-.1-.7-.6-1.1-.9.4-.3.7-.8 1.1-.9.3-.1.7.5 1.2.9zM346.4 719c-.7.5-1.1 1-1.4 1-.4 0-.9-.6-1-.9 0-.3.6-.9.9-1 .4-.1.8.4 1.5.9zM291.4 451.2c-.7.4-1.1.8-1.5.8-.3 0-.6-.6-.8-1 .4-.3.7-.8 1.1-.8.2-.1.6.5 1.2 1zM257 602.3c-.7.4-1.1.9-1.5.9-.3 0-.9-.7-.8-.9.1-.4.6-.9 1-.9.3-.2.7.4 1.3.9zM257 574.8c-.7.4-1.1.8-1.5.8-.3 0-.9-.7-.8-.9.1-.4.6-.8 1-.9.3 0 .7.5 1.3 1zM257 567.9c-.7.4-1.1.9-1.5.9-.3 0-.9-.7-.8-.9.1-.4.6-.9 1-1 .2-.1.6.5 1.3 1zM283.1 480c-.5-.7-1-1-1-1.4 0-.3.6-.6.9-1 .3.3.9.6 1 1 .1.3-.4.7-.9 1.4zM325.8 677.9c-.7.4-1.2.8-1.6.8-.3 0-.8-.6-.8-1 0-.3.6-.9.9-.9.4.1.8.6 1.5 1.1zM241.9 514.3c-.5-.6-1-1-1-1.4 0-.3.6-.9.9-.9.4.1.9.6 1 1 0 .3-.4.7-.9 1.3zM248.7 635.1c.5.7 1 1.1 1 1.5 0 .3-.6 1-.8.9-.4-.1-1-.5-1.1-.9-.1-.3.4-.7.9-1.5zM248.7 628.2c.5.7 1 1.1 1 1.5 0 .3-.6 1-.8 1-.4-.1-1-.5-1.1-.9-.1-.3.4-.8.9-1.6zM243.2 533.6c-.7.4-1.1.9-1.5.8-.3 0-.6-.6-.9-.9.4-.3.7-.8 1.1-.9.3 0 .7.5 1.3 1zM250.1 506c-.6.5-1 1-1.2.9-.4-.1-.7-.6-1.1-.9.3-.3.6-.9.9-.9.3 0 .7.5 1.4.9zM140.2 726c-.7.4-1.1.8-1.5.8-.3 0-.9-.7-.8-.9.2-.4.6-.8 1.1-.9.3-.1.6.5 1.2 1zM147.1 691.6c-.6.4-1.1 1-1.3.9-.4-.1-.8-.6-.9-1-.1-.2.6-.9.9-.8.3 0 .7.5 1.3.9zM353.2 732.8c-.7.4-1.1.9-1.5.9-.3 0-.9-.7-.9-.9.1-.4.6-.9 1-.9.4-.1.8.4 1.4.9zM145.8 697.1c.5.6 1 1 .9 1.3-.1.4-.6.7-.9 1.1-.3-.3-.9-.7-.9-1-.1-.4.4-.8.9-1.4zM139 717.6c.4.6.8 1 .8 1.4 0 .4-.6.6-.9 1-.3-.4-.8-.7-.9-1.1-.1-.3.5-.7 1-1.3zM243.2 650.3c-.6.5-1 1-1.2.9-.4-.1-.9-.5-1-.9-.1-.2.5-.9.8-.9.4 0 .8.5 1.4.9zM263.9 492.2c-.8.5-1.1.9-1.6 1-.2 0-.8-.6-.7-.8.1-.3.5-.8.8-.9.4 0 .8.4 1.5.7zM221.2 662.8c.5.6 1 .9 1 1.2-.1.4-.6.8-.9 1.1-.4-.3-.9-.6-1-1.1 0-.2.5-.6.9-1.2zM256.9 595.4c-.6.4-1 .9-1.3.8-.4 0-.7-.5-1-.9.4-.3.7-.9 1.1-1 .2.1.7.6 1.2 1.1zM250 622.8c-.6.5-1 1-1.2 1-.4-.1-.8-.6-1-1-.1-.2.5-.8.9-.9.4 0 .7.5 1.3.9zM145.7 686c-.4-.6-.9-1-.9-1.3.1-.4.6-.7.9-1.1.3.4.8.7.9 1.1.1.4-.4.8-.9 1.3zM256.9 588.5c-.6.5-1 1-1.3.9-.4-.1-.7-.6-1-1 .3-.3.6-.8 1-.8s.7.4 1.3.9zM332.5 698.5c-.6.4-1 .9-1.3.9-.4 0-.7-.5-1-.8.3-.3.7-.8 1.1-1 .2-.1.6.4 1.2.9zM256.9 581.6c-.6.5-1 1-1.3 1-.4-.1-.7-.7-1-1 .3-.3.7-.8 1-.8.4-.1.7.4 1.3.8zM289.8 459.4c-.4-.7-.8-1.2-.8-1.6 0-.3.7-.7 1-.7.3 0 .9.6.8.9 0 .4-.4.7-1 1.4zM138.9 710.9c.4.6.9.9.9 1.3 0 .3-.5.7-.8 1-.3-.3-.9-.6-1-1-.1-.3.4-.7.9-1.3zM336.6 712.3c.7-.5 1.1-1 1.5-1 .3 0 .9.6.9.9 0 .3-.5.9-.8.9-.4-.1-.9-.4-1.6-.8zM358.6 518.4c.5.6 1.1 1 1 1.3-.1.4-.6.8-.9 1.1-.3-.3-.9-.6-.9-.9 0-.3.4-.8.8-1.5zM255.9 498.3c.2.3.7.7.6.9-.2.4-.7.8-1.1 1.1-.3-.4-.7-.7-.8-1.1-.1-.4.2-.9.4-1.4.3.1.6.3.9.5zM324.3 686.1c-.4-.6-.9-1-.8-1.3 0-.4.5-.7.8-1 .4.3.9.6 1 1.1 0 .1-.5.6-1 1.2zM147.1 677.7c-.6.5-.9 1-1.2 1-.3 0-.7-.5-1.1-.7.3-.4.5-.9.9-1.1.3-.1.8.4 1.4.8zM291.4 444.1c-.7.5-1 .9-1.4.9-.3 0-.6-.5-1-.8.3-.3.6-.9.9-.9.4 0 .8.4 1.5.8zM242 541.8c-.5-.6-1-.9-1-1.2 0-.4.5-.7.7-1.1.4.3.9.5 1 .9.1.3-.3.8-.7 1.4zM236.3 520c-.5.4-1 .8-1.1.8-.4-.2-.7-.6-1.1-1 .3-.3.7-.8 1-.8.3 0 .6.5 1.2 1zM365.6 768.4c-.5-.6-.9-.9-.9-1.2 0-.4.5-.7.8-1.1.4.3.9.6 1 1 0 .3-.5.7-.9 1.3zM243.2 657.2c-.6.4-1 .9-1.3.9-.3 0-.6-.5-1-.8.3-.3.6-.8 1-1 .3 0 .7.5 1.3.9zM291.3 471.6c-.6.5-1 1.1-1.2 1-.4-.1-.7-.6-1.1-.9.3-.3.6-.9.9-.9.4-.1.8.4 1.4.8zM250.1 616c-.7.4-1.1.9-1.4.8-.4-.1-.6-.6-.9-.9.3-.3.7-.8 1-.8.3 0 .6.5 1.3.9zM346.3 725.9c-.7.4-1.1.9-1.4.8-.3-.1-.6-.6-.9-.9.3-.3.7-.8 1-.8s.7.5 1.3.9zM250 561c-.6.4-1 .8-1.3.8-.3-.1-.9-.6-.8-.9 0-.3.5-.8.9-.9l1.2 1zM339.4 718.9c-.6.5-.9 1-1.3 1-.3 0-.9-.5-.9-.8 0-.3.5-.9.8-.9.3-.2.7.3 1.4.7zM331.2 706.6c-.5-.6-1-1-.9-1.3 0-.3.6-.8.9-.8.3 0 .8.5.9.9 0 .3-.5.6-.9 1.2zM360 753.3c-.6.5-.9 1-1.3 1-.3 0-.9-.5-.9-.8s.5-.9.8-.9c.4-.2.8.3 1.4.7zM317.5 672.3c-.4-.6-.9-.9-.9-1.3 0-.3.5-.6.8-1 .3.3.9.6.9.9 0 .4-.4.8-.8 1.4zM235 528c-.5-.6-1-1-.9-1.3 0-.3.5-.8.9-.9.3 0 .9.5.9.8 0 .4-.5.8-.9 1.4zM140.2 698.6c-.7.4-1.1.8-1.5.8-.3 0-.8-.6-.8-.8.1-.4.5-.9.9-.9.4-.1.8.4 1.4.9zM243.1 547.4c-.7.4-1.1.9-1.4.8-.3-.1-.7-.6-.7-1 0-.2.5-.8.8-.7.4 0 .7.4 1.3.9zM193.9 669.6c.4.7.9 1.1.8 1.4-.1.3-.6.6-.9.9-.3-.3-.8-.6-.8-.9s.4-.7.9-1.4zM358.7 745.1c.4.7.8 1 .8 1.4 0 .3-.5.6-.8 1-.3-.4-.8-.7-.9-1.1 0-.3.5-.7.9-1.3zM325.5 691.7c-.5.4-.9.8-1.1.8-.4-.1-.6-.6-.9-.9.3-.3.6-.7 1-.8.2-.1.5.4 1 .9zM269.3 486.6c-.3-.5-.8-.9-.7-1.2.1-.3.5-.8.8-.8s.9.5.8.7c0 .4-.4.7-.9 1.3zM243.2 643.4c-.6.5-.9 1-1.3.9-.3 0-.9-.5-.9-.8s.5-.9.8-.9c.3-.1.7.4 1.4.8zM243.1 629.8c-.6.4-1 .9-1.2.8-.4-.1-.8-.5-.9-.9 0-.2.5-.8.8-.8.4 0 .7.4 1.3.9zM138.9 734.1c-.5-.6-.9-1-.9-1.3s.5-.9.7-.8c.4.1.9.4 1 .8.1.2-.4.6-.8 1.3zM140.3 705.3c-.7.4-1.1.9-1.4.9s-.7-.5-.8-.9c-.1-.2.5-.7.8-.8.3 0 .7.4 1.4.8zM250.1 567.7c-.7.5-1 .9-1.4 1-.3 0-.8-.5-.8-.8 0-.3.4-.9.7-.9.3 0 .7.4 1.5.7zM139 692.9c-.4-.7-.8-1-.8-1.4 0-.3.5-.8.8-.8.3 0 .8.4.9.7-.1.4-.5.8-.9 1.5zM277.5 478.7c-.7.4-1 .8-1.4.7-.3 0-.8-.7-.7-.8.2-.4.6-.8 1-.8.2-.1.6.4 1.1.9zM236.3 533.6c-.6.4-1 .8-1.4.8-.3 0-.9-.6-.8-.7.1-.4.5-.9.8-.9.4-.1.8.4 1.4.8z"/></g></svg>