<svg xmlns="http://www.w3.org/2000/svg" viewBox="0 0 792 612" enable-background="new 0 0 792 612"><path fill="#0065A1" d="M93.4 0h605.2v612h-605.2z"/><path fill="#fff" d="M207.2 93.3h42.4l24.7 80.2 27.7-80.2h40.1l-49.3 118v84.8h-36.3l-.8-83.3zM349.1 167.3s2.1-23.9 46.9-27c0 0 40.2-1.5 53.3 27v102.6s-7.7 30.1-50.1 30.1c0 0-49.4.8-50.1-33.9v-98.8zM478.6 144.2h36.2v118s8.5 20.8 33.2-5.4v-112.6h33.2v151.9h-33.9l-.8-17.7s-53.2 42.4-67.9-.8v-133.4z"/><path stroke="#fff" stroke-width="3" stroke-miterlimit="10" d="M196.4 363.2s-6.9-51.9 114.9-43.3h243.7s58.6 1.7 56.3 83.4l.1 98.7s-12.4 40.1-71.8 40.1h-295.4s-51-13.9-47.9-57.1l.1-121.8z" fill="none"/><path fill="#fff" d="M224.9 353.9h87.9v20.9h-29.3v126.4h-27.8l-.7-124.9h-30.1zM312.8 391.7h25.5v86.9s4.1 12.4 21.5-3.5v-83.4h24.9v111.4h-24.9v-10.7s-43.3 28.6-46.9-4.9v-95.8h-.1zM410.4 353.9h24.6v48s32.7-29.5 48 8.4v76.7s-8.4 32.4-46.9 7.8v9.1h-25.7v-150zM501.8 417s4.6-24 30.4-26.9c0 0 40.2-6.9 45.4 26.9v33.8h-49.5v27.5s9.5 17.1 22 2.3l.6-18.5 26.9.3s4.6 33.8-21.4 41.6c0 0-52.9 13.3-54.4-30.9v-56.1z"/><path fill="#0065A1" d="M436.2 413.7s19.7-12.6 20.1 7.6v61.1s-14.3 10.4-20.1-2.3v-66.4zM383.4 177.7s.8-11.6 15.8-10.4c0 0 13.9-1.5 14.7 10.4v88.3s-7.7 8.5-15.2 8.5c0 0-14.8 0-15.2-12.3l-.1-84.5z"/></svg>